<svg version="1.1" viewBox="0.0 0.0 905.0 560.0" fill="none" stroke="none" stroke-linecap="square" stroke-miterlimit="10" width="905" height="560" xmlns:xlink="http://www.w3.org/1999/xlink" xmlns="http://www.w3.org/2000/svg"><path fill="#fafafa" d="M0 0L905.0 0L905.0 560.0L0 560.0L0 0Z" fill-rule="nonzero"/><path stroke="#e6e6e6" stroke-width="1.0" stroke-linecap="butt" d="M55.5 479.5L877.5 479.5" fill-rule="nonzero"/><path stroke="#e6e6e6" stroke-width="1.0" stroke-linecap="butt" d="M55.5 446.5L877.5 446.5" fill-rule="nonzero"/><path stroke="#e6e6e6" stroke-width="1.0" stroke-linecap="butt" d="M55.5 380.5L877.5 380.5" fill-rule="nonzero"/><path stroke="#e6e6e6" stroke-width="1.0" stroke-linecap="butt" d="M55.5 347.5L877.5 347.5" fill-rule="nonzero"/><path stroke="#e6e6e6" stroke-width="1.0" stroke-linecap="butt" d="M55.5 281.5L877.5 281.5" fill-rule="nonzero"/><path stroke="#e6e6e6" stroke-width="1.0" stroke-linecap="butt" d="M55.5 248.5L877.5 248.5" fill-rule="nonzero"/><path stroke="#e6e6e6" stroke-width="1.0" stroke-linecap="butt" d="M55.5 182.5L877.5 182.5" fill-rule="nonzero"/><path stroke="#e6e6e6" stroke-width="1.0" stroke-linecap="butt" d="M55.5 149.5L877.5 149.5" fill-rule="nonzero"/><path stroke="#000000" stroke-width="1.0" stroke-linecap="butt" d="M877.5 512.5L55.5 512.5" fill-rule="nonzero"/><path stroke="#000000" stroke-width="1.0" stroke-linecap="butt" d="M55.5 512.5L55.5 116.5" fill-rule="nonzero"/><clipPath id="id_0"><path d="M55.0 116.333336L877.0 116.333336L877.0 512.0L55.0 512.0L55.0 116.333336Z" clip-rule="nonzero"/></clipPath><path stroke="#f9cb9c" stroke-width="4.0" stroke-linecap="butt" stroke-opacity="0.9019608" clip-path="url(#id_0)" d="M106.375 512.0L209.125 502.10834L311.875 492.21667L414.625 492.21667L517.375 492.21667L620.125 492.21667L722.875 492.21667L825.625 512.0" fill-rule="nonzero"/><path stroke="#e69138" stroke-width="4.0" stroke-linecap="butt" clip-path="url(#id_0)" d="M106.375 512.0L209.125 294.38333L311.875 254.81667L414.625 254.81667L517.375 254.81667L620.125 254.81667L722.875 254.81667L825.625 512.0" fill-rule="nonzero"/><path stroke="#3aafa9" stroke-width="4.0" stroke-linecap="butt" clip-path="url(#id_0)" d="M106.375 512.0L209.125 510.02167L311.875 512.0L414.625 510.02167L517.375 462.54166L620.125 512.0L722.875 502.10834L825.625 512.0" fill-rule="nonzero"/><path stroke="#2b7a78" stroke-width="4.0" stroke-linecap="butt" stroke-opacity="0.9019608" clip-path="url(#id_0)" d="M106.375 512.0L209.125 506.065L311.875 512.0L414.625 512.0L517.375 363.625L620.125 512.0L722.875 452.65L825.625 512.0" fill-rule="nonzero"/><path fill="#f9cb9c" fill-opacity="0.9019608" clip-path="url(#id_0)" d="M110.875 512.0C110.875 514.4853 108.86028 516.5 106.375 516.5C103.88972 516.5 101.875 514.4853 101.875 512.0C101.875 509.5147 103.88972 507.5 106.375 507.5C108.86028 507.5 110.875 509.5147 110.875 512.0Z" fill-rule="nonzero"/><path fill="#f9cb9c" fill-opacity="0.9019608" clip-path="url(#id_0)" d="M213.625 502.10834C213.625 504.59363 211.61028 506.60834 209.125 506.60834C206.63972 506.60834 204.625 504.59363 204.625 502.10834C204.625 499.62305 206.63972 497.60834 209.125 497.60834C211.61028 497.60834 213.625 499.62305 213.625 502.10834Z" fill-rule="nonzero"/><path fill="#f9cb9c" fill-opacity="0.9019608" clip-path="url(#id_0)" d="M316.375 492.21667C316.375 494.70193 314.3603 496.71667 311.875 496.71667C309.3897 496.71667 307.375 494.70193 307.375 492.21667C307.375 489.73138 309.3897 487.71667 311.875 487.71667C314.3603 487.71667 316.375 489.73138 316.375 492.21667Z" fill-rule="nonzero"/><path fill="#f9cb9c" fill-opacity="0.9019608" clip-path="url(#id_0)" d="M419.125 492.21667C419.125 494.70193 417.1103 496.71667 414.625 496.71667C412.1397 496.71667 410.125 494.70193 410.125 492.21667C410.125 489.73138 412.1397 487.71667 414.625 487.71667C417.1103 487.71667 419.125 489.73138 419.125 492.21667Z" fill-rule="nonzero"/><path fill="#f9cb9c" fill-opacity="0.9019608" clip-path="url(#id_0)" d="M521.875 492.21667C521.875 494.70193 519.8603 496.71667 517.375 496.71667C514.8897 496.71667 512.875 494.70193 512.875 492.21667C512.875 489.73138 514.8897 487.71667 517.375 487.71667C519.8603 487.71667 521.875 489.73138 521.875 492.21667Z" fill-rule="nonzero"/><path fill="#f9cb9c" fill-opacity="0.9019608" clip-path="url(#id_0)" d="M624.625 492.21667C624.625 494.70193 622.6103 496.71667 620.125 496.71667C617.6397 496.71667 615.625 494.70193 615.625 492.21667C615.625 489.73138 617.6397 487.71667 620.125 487.71667C622.6103 487.71667 624.625 489.73138 624.625 492.21667Z" fill-rule="nonzero"/><path fill="#f9cb9c" fill-opacity="0.9019608" clip-path="url(#id_0)" d="M727.375 492.21667C727.375 494.70193 725.3603 496.71667 722.875 496.71667C720.3897 496.71667 718.375 494.70193 718.375 492.21667C718.375 489.73138 720.3897 487.71667 722.875 487.71667C725.3603 487.71667 727.375 489.73138 727.375 492.21667Z" fill-rule="nonzero"/><path fill="#f9cb9c" fill-opacity="0.9019608" clip-path="url(#id_0)" d="M830.125 512.0C830.125 514.4853 828.1103 516.5 825.625 516.5C823.1397 516.5 821.125 514.4853 821.125 512.0C821.125 509.5147 823.1397 507.5 825.625 507.5C828.1103 507.5 830.125 509.5147 830.125 512.0Z" fill-rule="nonzero"/><path fill="#e69138" clip-path="url(#id_0)" d="M110.875 512.0C110.875 514.4853 108.86028 516.5 106.375 516.5C103.88972 516.5 101.875 514.4853 101.875 512.0C101.875 509.5147 103.88972 507.5 106.375 507.5C108.86028 507.5 110.875 509.5147 110.875 512.0Z" fill-rule="nonzero"/><path fill="#e69138" clip-path="url(#id_0)" d="M213.625 294.38333C213.625 296.86862 211.61028 298.88333 209.125 298.88333C206.63972 298.88333 204.625 296.86862 204.625 294.38333C204.625 291.89804 206.63972 289.88333 209.125 289.88333C211.61028 289.88333 213.625 291.89804 213.625 294.38333Z" fill-rule="nonzero"/><path fill="#e69138" clip-path="url(#id_0)" d="M316.375 254.81667C316.375 257.30194 314.3603 259.31668 311.875 259.31668C309.3897 259.31668 307.375 257.30194 307.375 254.81667C307.375 252.33139 309.3897 250.31667 311.875 250.31667C314.3603 250.31667 316.375 252.33139 316.375 254.81667Z" fill-rule="nonzero"/><path fill="#e69138" clip-path="url(#id_0)" d="M419.125 254.81667C419.125 257.30194 417.1103 259.31668 414.625 259.31668C412.1397 259.31668 410.125 257.30194 410.125 254.81667C410.125 252.33139 412.1397 250.31667 414.625 250.31667C417.1103 250.31667 419.125 252.33139 419.125 254.81667Z" fill-rule="nonzero"/><path fill="#e69138" clip-path="url(#id_0)" d="M521.875 254.81667C521.875 257.30194 519.8603 259.31668 517.375 259.31668C514.8897 259.31668 512.875 257.30194 512.875 254.81667C512.875 252.33139 514.8897 250.31667 517.375 250.31667C519.8603 250.31667 521.875 252.33139 521.875 254.81667Z" fill-rule="nonzero"/><path fill="#e69138" clip-path="url(#id_0)" d="M624.625 254.81667C624.625 257.30194 622.6103 259.31668 620.125 259.31668C617.6397 259.31668 615.625 257.30194 615.625 254.81667C615.625 252.33139 617.6397 250.31667 620.125 250.31667C622.6103 250.31667 624.625 252.33139 624.625 254.81667Z" fill-rule="nonzero"/><path fill="#e69138" clip-path="url(#id_0)" d="M727.375 254.81667C727.375 257.30194 725.3603 259.31668 722.875 259.31668C720.3897 259.31668 718.375 257.30194 718.375 254.81667C718.375 252.33139 720.3897 250.31667 722.875 250.31667C725.3603 250.31667 727.375 252.33139 727.375 254.81667Z" fill-rule="nonzero"/><path fill="#e69138" clip-path="url(#id_0)" d="M830.125 512.0C830.125 514.4853 828.1103 516.5 825.625 516.5C823.1397 516.5 821.125 514.4853 821.125 512.0C821.125 509.5147 823.1397 507.5 825.625 507.5C828.1103 507.5 830.125 509.5147 830.125 512.0Z" fill-rule="nonzero"/><path fill="#3aafa9" clip-path="url(#id_0)" d="M110.875 512.0C110.875 514.4853 108.86028 516.5 106.375 516.5C103.88972 516.5 101.875 514.4853 101.875 512.0C101.875 509.5147 103.88972 507.5 106.375 507.5C108.86028 507.5 110.875 509.5147 110.875 512.0Z" fill-rule="nonzero"/><path fill="#3aafa9" clip-path="url(#id_0)" d="M213.625 510.02167C213.625 512.50696 211.61028 514.52167 209.125 514.52167C206.63972 514.52167 204.625 512.50696 204.625 510.02167C204.625 507.53638 206.63972 505.52167 209.125 505.52167C211.61028 505.52167 213.625 507.53638 213.625 510.02167Z" fill-rule="nonzero"/><path fill="#3aafa9" clip-path="url(#id_0)" d="M316.375 512.0C316.375 514.4853 314.3603 516.5 311.875 516.5C309.3897 516.5 307.375 514.4853 307.375 512.0C307.375 509.5147 309.3897 507.5 311.875 507.5C314.3603 507.5 316.375 509.5147 316.375 512.0Z" fill-rule="nonzero"/><path fill="#3aafa9" clip-path="url(#id_0)" d="M419.125 510.02167C419.125 512.50696 417.1103 514.52167 414.625 514.52167C412.1397 514.52167 410.125 512.50696 410.125 510.02167C410.125 507.53638 412.1397 505.52167 414.625 505.52167C417.1103 505.52167 419.125 507.53638 419.125 510.02167Z" fill-rule="nonzero"/><path fill="#3aafa9" clip-path="url(#id_0)" d="M521.875 462.54166C521.875 465.02695 519.8603 467.04166 517.375 467.04166C514.8897 467.04166 512.875 465.02695 512.875 462.54166C512.875 460.0564 514.8897 458.04166 517.375 458.04166C519.8603 458.04166 521.875 460.0564 521.875 462.54166Z" fill-rule="nonzero"/><path fill="#3aafa9" clip-path="url(#id_0)" d="M624.625 512.0C624.625 514.4853 622.6103 516.5 620.125 516.5C617.6397 516.5 615.625 514.4853 615.625 512.0C615.625 509.5147 617.6397 507.5 620.125 507.5C622.6103 507.5 624.625 509.5147 624.625 512.0Z" fill-rule="nonzero"/><path fill="#3aafa9" clip-path="url(#id_0)" d="M727.375 502.10834C727.375 504.59363 725.3603 506.60834 722.875 506.60834C720.3897 506.60834 718.375 504.59363 718.375 502.10834C718.375 499.62305 720.3897 497.60834 722.875 497.60834C725.3603 497.60834 727.375 499.62305 727.375 502.10834Z" fill-rule="nonzero"/><path fill="#3aafa9" clip-path="url(#id_0)" d="M830.125 512.0C830.125 514.4853 828.1103 516.5 825.625 516.5C823.1397 516.5 821.125 514.4853 821.125 512.0C821.125 509.5147 823.1397 507.5 825.625 507.5C828.1103 507.5 830.125 509.5147 830.125 512.0Z" fill-rule="nonzero"/><path fill="#2b7a78" fill-opacity="0.9019608" clip-path="url(#id_0)" d="M110.875 512.0C110.875 514.4853 108.86028 516.5 106.375 516.5C103.88972 516.5 101.875 514.4853 101.875 512.0C101.875 509.5147 103.88972 507.5 106.375 507.5C108.86028 507.5 110.875 509.5147 110.875 512.0Z" fill-rule="nonzero"/><path fill="#2b7a78" fill-opacity="0.9019608" clip-path="url(#id_0)" d="M213.625 506.065C213.625 508.5503 211.61028 510.565 209.125 510.565C206.63972 510.565 204.625 508.5503 204.625 506.065C204.625 503.5797 206.63972 501.565 209.125 501.565C211.61028 501.565 213.625 503.5797 213.625 506.065Z" fill-rule="nonzero"/><path fill="#2b7a78" fill-opacity="0.9019608" clip-path="url(#id_0)" d="M316.375 512.0C316.375 514.4853 314.3603 516.5 311.875 516.5C309.3897 516.5 307.375 514.4853 307.375 512.0C307.375 509.5147 309.3897 507.5 311.875 507.5C314.3603 507.5 316.375 509.5147 316.375 512.0Z" fill-rule="nonzero"/><path fill="#2b7a78" fill-opacity="0.9019608" clip-path="url(#id_0)" d="M419.125 512.0C419.125 514.4853 417.1103 516.5 414.625 516.5C412.1397 516.5 410.125 514.4853 410.125 512.0C410.125 509.5147 412.1397 507.5 414.625 507.5C417.1103 507.5 419.125 509.5147 419.125 512.0Z" fill-rule="nonzero"/><path fill="#2b7a78" fill-opacity="0.9019608" clip-path="url(#id_0)" d="M521.875 363.625C521.875 366.1103 519.8603 368.125 517.375 368.125C514.8897 368.125 512.875 366.1103 512.875 363.625C512.875 361.1397 514.8897 359.125 517.375 359.125C519.8603 359.125 521.875 361.1397 521.875 363.625Z" fill-rule="nonzero"/><path fill="#2b7a78" fill-opacity="0.9019608" clip-path="url(#id_0)" d="M624.625 512.0C624.625 514.4853 622.6103 516.5 620.125 516.5C617.6397 516.5 615.625 514.4853 615.625 512.0C615.625 509.5147 617.6397 507.5 620.125 507.5C622.6103 507.5 624.625 509.5147 624.625 512.0Z" fill-rule="nonzero"/><path fill="#2b7a78" fill-opacity="0.9019608" clip-path="url(#id_0)" d="M727.375 452.65C727.375 455.13528 725.3603 457.15 722.875 457.15C720.3897 457.15 718.375 455.13528 718.375 452.65C718.375 450.1647 720.3897 448.15 722.875 448.15C725.3603 448.15 727.375 450.1647 727.375 452.65Z" fill-rule="nonzero"/><path fill="#2b7a78" fill-opacity="0.9019608" clip-path="url(#id_0)" d="M830.125 512.0C830.125 514.4853 828.1103 516.5 825.625 516.5C823.1397 516.5 821.125 514.4853 821.125 512.0C821.125 509.5147 823.1397 507.5 825.625 507.5C828.1103 507.5 830.125 509.5147 830.125 512.0Z" fill-rule="nonzero"/><path fill="#000000" d="M42.5 511.76562Q42.5 510.23438 42.8125 509.3125Q43.125 508.375 43.734375 507.875Q44.359375 507.375 45.296875 507.375Q45.984375 507.375 46.5 507.65625Q47.03125 507.9375 47.375 508.46875Q47.71875 508.98438 47.90625 509.73438Q48.09375 510.48438 48.09375 511.76562Q48.09375 513.28125 47.78125 514.2031Q47.484375 515.125 46.859375 515.6406Q46.25 516.1406 45.296875 516.1406Q44.0625 516.1406 43.34375 515.25Q42.5 514.1875 42.5 511.76562ZM43.578125 511.76562Q43.578125 513.875 44.078125 514.5781Q44.578125 515.28125 45.296875 515.28125Q46.03125 515.28125 46.515625 514.5781Q47.015625 513.875 47.015625 511.76562Q47.015625 509.64062 46.515625 508.95312Q46.03125 508.25 45.28125 508.25Q44.5625 508.25 44.125 508.85938Q43.578125 509.64062 43.578125 511.76562Z" fill-rule="nonzero"/><path fill="#000000" d="M42.5 414.83334L43.609375 414.7396Q43.734375 415.5521 44.171875 415.95834Q44.625 416.3646 45.265625 416.3646Q46.015625 416.3646 46.546875 415.78647Q47.078125 415.20834 47.078125 414.27084Q47.078125 413.3646 46.5625 412.84897Q46.0625 412.31772 45.234375 412.31772Q44.734375 412.31772 44.3125 412.5521Q43.90625 412.78647 43.671875 413.14584L42.6875 413.02084L43.515625 408.6146L47.796875 408.6146L47.796875 409.6146L44.359375 409.6146L43.90625 411.9271Q44.671875 411.38022 45.515625 411.38022Q46.640625 411.38022 47.40625 412.16147Q48.1875 412.94272 48.1875 414.1771Q48.1875 415.33334 47.515625 416.19272Q46.6875 417.22397 45.265625 417.22397Q44.09375 417.22397 43.34375 416.56772Q42.609375 415.91147 42.5 414.83334Z" fill-rule="nonzero"/><path fill="#000000" d="M39.46875 318.16666L38.421875 318.16666L38.421875 311.4479Q38.03125 311.80728 37.40625 312.18228Q36.796875 312.54166 36.3125 312.71353L36.3125 311.6979Q37.1875 311.27603 37.84375 310.6979Q38.515625 310.10416 38.796875 309.54166L39.46875 309.54166L39.46875 318.16666ZM42.5 313.93228Q42.5 312.40103 42.8125 311.47916Q43.125 310.54166 43.734375 310.04166Q44.359375 309.54166 45.296875 309.54166Q45.984375 309.54166 46.5 309.8229Q47.03125 310.10416 47.375 310.6354Q47.71875 311.15103 47.90625 311.90103Q48.09375 312.65103 48.09375 313.93228Q48.09375 315.4479 47.78125 316.36978Q47.484375 317.29166 46.859375 317.80728Q46.25 318.30728 45.296875 318.30728Q44.0625 318.30728 43.34375 317.41666Q42.5 316.35416 42.5 313.93228ZM43.578125 313.93228Q43.578125 316.04166 44.078125 316.74478Q44.578125 317.4479 45.296875 317.4479Q46.03125 317.4479 46.515625 316.74478Q47.015625 316.04166 47.015625 313.93228Q47.015625 311.80728 46.515625 311.11978Q46.03125 310.41666 45.28125 310.41666Q44.5625 310.41666 44.125 311.02603Q43.578125 311.80728 43.578125 313.93228Z" fill-rule="nonzero"/><path fill="#000000" d="M39.46875 219.25L38.421875 219.25L38.421875 212.53125Q38.03125 212.89062 37.40625 213.26562Q36.796875 213.625 36.3125 213.79688L36.3125 212.78125Q37.1875 212.35938 37.84375 211.78125Q38.515625 211.1875 38.796875 210.625L39.46875 210.625L39.46875 219.25ZM42.5 217.0L43.609375 216.90625Q43.734375 217.71875 44.171875 218.125Q44.625 218.53125 45.265625 218.53125Q46.015625 218.53125 46.546875 217.95312Q47.078125 217.375 47.078125 216.4375Q47.078125 215.53125 46.5625 215.01562Q46.0625 214.48438 45.234375 214.48438Q44.734375 214.48438 44.3125 214.71875Q43.90625 214.95312 43.671875 215.3125L42.6875 215.1875L43.515625 210.78125L47.796875 210.78125L47.796875 211.78125L44.359375 211.78125L43.90625 214.09375Q44.671875 213.54688 45.515625 213.54688Q46.640625 213.54688 47.40625 214.32812Q48.1875 215.10938 48.1875 216.34375Q48.1875 217.5 47.515625 218.35938Q46.6875 219.39062 45.265625 219.39062Q44.09375 219.39062 43.34375 218.73438Q42.609375 218.07812 42.5 217.0Z" fill-rule="nonzero"/><path fill="#000000" d="M41.046875 119.31771L41.046875 120.333336L35.359375 120.333336Q35.359375 119.958336 35.484375 119.59896Q35.703125 119.020836 36.171875 118.458336Q36.65625 117.895836 37.5625 117.16146Q38.96875 116.00521 39.453125 115.333336Q39.953125 114.66146 39.953125 114.06771Q39.953125 113.44271 39.5 113.020836Q39.046875 112.583336 38.328125 112.583336Q37.5625 112.583336 37.109375 113.03646Q36.65625 113.489586 36.640625 114.302086L35.5625 114.19271Q35.671875 112.97396 36.390625 112.34896Q37.125 111.708336 38.359375 111.708336Q39.59375 111.708336 40.3125 112.395836Q41.03125 113.083336 41.03125 114.09896Q41.03125 114.614586 40.8125 115.114586Q40.609375 115.59896 40.109375 116.16146Q39.625 116.708336 38.5 117.66146Q37.546875 118.458336 37.265625 118.75521Q37.0 119.03646 36.828125 119.31771L41.046875 119.31771ZM42.5 116.09896Q42.5 114.56771 42.8125 113.645836Q43.125 112.708336 43.734375 112.208336Q44.359375 111.708336 45.296875 111.708336Q45.984375 111.708336 46.5 111.989586Q47.03125 112.270836 47.375 112.802086Q47.71875 113.31771 47.90625 114.06771Q48.09375 114.81771 48.09375 116.09896Q48.09375 117.614586 47.78125 118.53646Q47.484375 119.458336 46.859375 119.97396Q46.25 120.47396 45.296875 120.47396Q44.0625 120.47396 43.34375 119.583336Q42.5 118.520836 42.5 116.09896ZM43.578125 116.09896Q43.578125 118.208336 44.078125 118.91146Q44.578125 119.614586 45.296875 119.614586Q46.03125 119.614586 46.515625 118.91146Q47.015625 118.208336 47.015625 116.09896Q47.015625 113.97396 46.515625 113.28646Q46.03125 112.583336 45.28125 112.583336Q44.5625 112.583336 44.125 113.19271Q43.578125 113.97396 43.578125 116.09896Z" fill-rule="nonzero"/><path fill="#000000" d="M95.703125 529.0L95.703125 528.21875Q95.109375 529.1406 93.96875 529.1406Q93.21875 529.1406 92.59375 528.7344Q91.96875 528.3125 91.625 527.5781Q91.28125 526.84375 91.28125 525.8906Q91.28125 524.96875 91.59375 524.2031Q91.90625 523.4375 92.53125 523.0469Q93.15625 522.6406 93.921875 522.6406Q94.484375 522.6406 94.921875 522.875Q95.359375 523.1094 95.640625 523.4844L95.640625 520.40625L96.6875 520.40625L96.6875 529.0L95.703125 529.0ZM92.375 525.8906Q92.375 527.09375 92.875 527.6875Q93.375 528.2656 94.0625 528.2656Q94.75 528.2656 95.234375 527.7031Q95.71875 527.1406 95.71875 525.9844Q95.71875 524.7031 95.21875 524.1094Q94.734375 523.5156 94.015625 523.5156Q93.3125 523.5156 92.84375 524.09375Q92.375 524.65625 92.375 525.8906ZM102.734375 528.2344Q102.140625 528.7344 101.59375 528.9375Q101.0625 529.1406 100.4375 529.1406Q99.40625 529.1406 98.859375 528.6406Q98.3125 528.1406 98.3125 527.3594Q98.3125 526.90625 98.515625 526.53125Q98.71875 526.1406 99.0625 525.9219Q99.40625 525.6875 99.828125 525.5781Q100.125 525.4844 100.765625 525.40625Q102.03125 525.2656 102.640625 525.0469Q102.640625 524.8281 102.640625 524.78125Q102.640625 524.125 102.34375 523.8594Q101.9375 523.5156 101.140625 523.5156Q100.40625 523.5156 100.046875 523.78125Q99.6875 524.03125 99.515625 524.6875L98.484375 524.5469Q98.625 523.8906 98.953125 523.4844Q99.28125 523.0781 99.890625 522.8594Q100.5 522.6406 101.296875 522.6406Q102.09375 522.6406 102.59375 522.8281Q103.09375 523.0156 103.328125 523.2969Q103.5625 523.5781 103.65625 524.0156Q103.703125 524.28125 103.703125 524.9844L103.703125 526.3906Q103.703125 527.8594 103.765625 528.25Q103.84375 528.6406 104.046875 529.0L102.9375 529.0Q102.78125 528.6719 102.734375 528.2344ZM102.640625 525.875Q102.0625 526.1094 100.921875 526.28125Q100.265625 526.375 100.0 526.5Q99.734375 526.6094 99.578125 526.8281Q99.4375 527.0469 99.4375 527.3281Q99.4375 527.75 99.75 528.03125Q100.078125 528.3125 100.6875 528.3125Q101.296875 528.3125 101.765625 528.0469Q102.25 527.78125 102.46875 527.3125Q102.640625 526.9531 102.640625 526.2656L102.640625 525.875ZM105.46875 529.5156L106.5 529.6719Q106.5625 530.1406 106.859375 530.3594Q107.25 530.65625 107.921875 530.65625Q108.65625 530.65625 109.046875 530.3594Q109.453125 530.0625 109.59375 529.5469Q109.6875 529.21875 109.671875 528.1875Q108.984375 529.0 107.953125 529.0Q106.671875 529.0 105.96875 528.0781Q105.265625 527.1406 105.265625 525.8594Q105.265625 524.96875 105.578125 524.21875Q105.90625 523.4531 106.515625 523.0469Q107.125 522.6406 107.953125 522.6406Q109.0625 522.6406 109.78125 523.53125L109.78125 522.78125L110.75 522.78125L110.75 528.15625Q110.75 529.6094 110.453125 530.21875Q110.15625 530.8281 109.515625 531.1719Q108.875 531.53125 107.9375 531.53125Q106.828125 531.53125 106.140625 531.03125Q105.453125 530.53125 105.46875 529.5156ZM106.34375 525.78125Q106.34375 527.0 106.828125 527.5625Q107.3125 528.125 108.046875 528.125Q108.78125 528.125 109.265625 527.5625Q109.765625 527.0 109.765625 525.8125Q109.765625 524.6719 109.25 524.09375Q108.75 523.5156 108.03125 523.5156Q107.328125 523.5156 106.828125 524.09375Q106.34375 524.65625 106.34375 525.78125ZM115.375 524.7656Q115.375 523.2344 115.6875 522.3125Q116.0 521.375 116.609375 520.875Q117.234375 520.375 118.171875 520.375Q118.859375 520.375 119.375 520.65625Q119.90625 520.9375 120.25 521.46875Q120.59375 521.9844 120.78125 522.7344Q120.96875 523.4844 120.96875 524.7656Q120.96875 526.28125 120.65625 527.2031Q120.359375 528.125 119.734375 528.6406Q119.125 529.1406 118.171875 529.1406Q116.9375 529.1406 116.21875 528.25Q115.375 527.1875 115.375 524.7656ZM116.453125 524.7656Q116.453125 526.875 116.953125 527.5781Q117.453125 528.28125 118.171875 528.28125Q118.90625 528.28125 119.390625 527.5781Q119.890625 526.875 119.890625 524.7656Q119.890625 522.6406 119.390625 521.9531Q118.90625 521.25 118.15625 521.25Q117.4375 521.25 117.0 521.8594Q116.453125 522.6406 116.453125 524.7656Z" fill-rule="nonzero"/><path fill="#000000" d="M198.45312 529.0L198.45312 528.21875Q197.85938 529.1406 196.71875 529.1406Q195.96875 529.1406 195.34375 528.7344Q194.71875 528.3125 194.375 527.5781Q194.03125 526.84375 194.03125 525.8906Q194.03125 524.96875 194.34375 524.2031Q194.65625 523.4375 195.28125 523.0469Q195.90625 522.6406 196.67188 522.6406Q197.23438 522.6406 197.67188 522.875Q198.10938 523.1094 198.39062 523.4844L198.39062 520.40625L199.4375 520.40625L199.4375 529.0L198.45312 529.0ZM195.125 525.8906Q195.125 527.09375 195.625 527.6875Q196.125 528.2656 196.8125 528.2656Q197.5 528.2656 197.98438 527.7031Q198.46875 527.1406 198.46875 525.9844Q198.46875 524.7031 197.96875 524.1094Q197.48438 523.5156 196.76562 523.5156Q196.0625 523.5156 195.59375 524.09375Q195.125 524.65625 195.125 525.8906ZM205.48438 528.2344Q204.89062 528.7344 204.34375 528.9375Q203.8125 529.1406 203.1875 529.1406Q202.15625 529.1406 201.60938 528.6406Q201.0625 528.1406 201.0625 527.3594Q201.0625 526.90625 201.26562 526.53125Q201.46875 526.1406 201.8125 525.9219Q202.15625 525.6875 202.57812 525.5781Q202.875 525.4844 203.51562 525.40625Q204.78125 525.2656 205.39062 525.0469Q205.39062 524.8281 205.39062 524.78125Q205.39062 524.125 205.09375 523.8594Q204.6875 523.5156 203.89062 523.5156Q203.15625 523.5156 202.79688 523.78125Q202.4375 524.03125 202.26562 524.6875L201.23438 524.5469Q201.375 523.8906 201.70312 523.4844Q202.03125 523.0781 202.64062 522.8594Q203.25 522.6406 204.04688 522.6406Q204.84375 522.6406 205.34375 522.8281Q205.84375 523.0156 206.07812 523.2969Q206.3125 523.5781 206.40625 524.0156Q206.45312 524.28125 206.45312 524.9844L206.45312 526.3906Q206.45312 527.8594 206.51562 528.25Q206.59375 528.6406 206.79688 529.0L205.6875 529.0Q205.53125 528.6719 205.48438 528.2344ZM205.39062 525.875Q204.8125 526.1094 203.67188 526.28125Q203.01562 526.375 202.75 526.5Q202.48438 526.6094 202.32812 526.8281Q202.1875 527.0469 202.1875 527.3281Q202.1875 527.75 202.5 528.03125Q202.82812 528.3125 203.4375 528.3125Q204.04688 528.3125 204.51562 528.0469Q205.0 527.78125 205.21875 527.3125Q205.39062 526.9531 205.39062 526.2656L205.39062 525.875ZM208.21875 529.5156L209.25 529.6719Q209.3125 530.1406 209.60938 530.3594Q210.0 530.65625 210.67188 530.65625Q211.40625 530.65625 211.79688 530.3594Q212.20312 530.0625 212.34375 529.5469Q212.4375 529.21875 212.42188 528.1875Q211.73438 529.0 210.70312 529.0Q209.42188 529.0 208.71875 528.0781Q208.01562 527.1406 208.01562 525.8594Q208.01562 524.96875 208.32812 524.21875Q208.65625 523.4531 209.26562 523.0469Q209.875 522.6406 210.70312 522.6406Q211.8125 522.6406 212.53125 523.53125L212.53125 522.78125L213.5 522.78125L213.5 528.15625Q213.5 529.6094 213.20312 530.21875Q212.90625 530.8281 212.26562 531.1719Q211.625 531.53125 210.6875 531.53125Q209.57812 531.53125 208.89062 531.03125Q208.20312 530.53125 208.21875 529.5156ZM209.09375 525.78125Q209.09375 527.0 209.57812 527.5625Q210.0625 528.125 210.79688 528.125Q211.53125 528.125 212.01562 527.5625Q212.51562 527.0 212.51562 525.8125Q212.51562 524.6719 212.0 524.09375Q211.5 523.5156 210.78125 523.5156Q210.07812 523.5156 209.57812 524.09375Q209.09375 524.65625 209.09375 525.78125ZM222.09375 529.0L221.04688 529.0L221.04688 522.28125Q220.65625 522.6406 220.03125 523.0156Q219.42188 523.375 218.9375 523.5469L218.9375 522.53125Q219.8125 522.1094 220.46875 521.53125Q221.14062 520.9375 221.42188 520.375L222.09375 520.375L222.09375 529.0Z" fill-rule="nonzero"/><path fill="#000000" d="M301.20312 529.0L301.20312 528.21875Q300.60938 529.1406 299.46875 529.1406Q298.71875 529.1406 298.09375 528.7344Q297.46875 528.3125 297.125 527.5781Q296.78125 526.84375 296.78125 525.8906Q296.78125 524.96875 297.09375 524.2031Q297.40625 523.4375 298.03125 523.0469Q298.65625 522.6406 299.42188 522.6406Q299.98438 522.6406 300.42188 522.875Q300.85938 523.1094 301.14062 523.4844L301.14062 520.40625L302.1875 520.40625L302.1875 529.0L301.20312 529.0ZM297.875 525.8906Q297.875 527.09375 298.375 527.6875Q298.875 528.2656 299.5625 528.2656Q300.25 528.2656 300.73438 527.7031Q301.21875 527.1406 301.21875 525.9844Q301.21875 524.7031 300.71875 524.1094Q300.23438 523.5156 299.51562 523.5156Q298.8125 523.5156 298.34375 524.09375Q297.875 524.65625 297.875 525.8906ZM308.23438 528.2344Q307.64062 528.7344 307.09375 528.9375Q306.5625 529.1406 305.9375 529.1406Q304.90625 529.1406 304.35938 528.6406Q303.8125 528.1406 303.8125 527.3594Q303.8125 526.90625 304.01562 526.53125Q304.21875 526.1406 304.5625 525.9219Q304.90625 525.6875 305.32812 525.5781Q305.625 525.4844 306.26562 525.40625Q307.53125 525.2656 308.14062 525.0469Q308.14062 524.8281 308.14062 524.78125Q308.14062 524.125 307.84375 523.8594Q307.4375 523.5156 306.64062 523.5156Q305.90625 523.5156 305.54688 523.78125Q305.1875 524.03125 305.01562 524.6875L303.98438 524.5469Q304.125 523.8906 304.45312 523.4844Q304.78125 523.0781 305.39062 522.8594Q306.0 522.6406 306.79688 522.6406Q307.59375 522.6406 308.09375 522.8281Q308.59375 523.0156 308.82812 523.2969Q309.0625 523.5781 309.15625 524.0156Q309.20312 524.28125 309.20312 524.9844L309.20312 526.3906Q309.20312 527.8594 309.26562 528.25Q309.34375 528.6406 309.54688 529.0L308.4375 529.0Q308.28125 528.6719 308.23438 528.2344ZM308.14062 525.875Q307.5625 526.1094 306.42188 526.28125Q305.76562 526.375 305.5 526.5Q305.23438 526.6094 305.07812 526.8281Q304.9375 527.0469 304.9375 527.3281Q304.9375 527.75 305.25 528.03125Q305.57812 528.3125 306.1875 528.3125Q306.79688 528.3125 307.26562 528.0469Q307.75 527.78125 307.96875 527.3125Q308.14062 526.9531 308.14062 526.2656L308.14062 525.875ZM310.96875 529.5156L312.0 529.6719Q312.0625 530.1406 312.35938 530.3594Q312.75 530.65625 313.42188 530.65625Q314.15625 530.65625 314.54688 530.3594Q314.95312 530.0625 315.09375 529.5469Q315.1875 529.21875 315.17188 528.1875Q314.48438 529.0 313.45312 529.0Q312.17188 529.0 311.46875 528.0781Q310.76562 527.1406 310.76562 525.8594Q310.76562 524.96875 311.07812 524.21875Q311.40625 523.4531 312.01562 523.0469Q312.625 522.6406 313.45312 522.6406Q314.5625 522.6406 315.28125 523.53125L315.28125 522.78125L316.25 522.78125L316.25 528.15625Q316.25 529.6094 315.95312 530.21875Q315.65625 530.8281 315.01562 531.1719Q314.375 531.53125 313.4375 531.53125Q312.32812 531.53125 311.64062 531.03125Q310.95312 530.53125 310.96875 529.5156ZM311.84375 525.78125Q311.84375 527.0 312.32812 527.5625Q312.8125 528.125 313.54688 528.125Q314.28125 528.125 314.76562 527.5625Q315.26562 527.0 315.26562 525.8125Q315.26562 524.6719 314.75 524.09375Q314.25 523.5156 313.53125 523.5156Q312.82812 523.5156 312.32812 524.09375Q311.84375 524.65625 311.84375 525.78125ZM320.9375 521.53125L320.9375 520.5156L326.5 520.5156L326.5 521.34375Q325.6875 522.21875 324.875 523.6719Q324.07812 525.1094 323.64062 526.6406Q323.3125 527.71875 323.23438 529.0L322.14062 529.0Q322.15625 527.9844 322.53125 526.5469Q322.92188 525.1094 323.625 523.78125Q324.34375 522.4531 325.15625 521.53125L320.9375 521.53125Z" fill-rule="nonzero"/><path fill="#000000" d="M400.45312 529.0L400.45312 528.21875Q399.85938 529.1406 398.71875 529.1406Q397.96875 529.1406 397.34375 528.7344Q396.71875 528.3125 396.375 527.5781Q396.03125 526.84375 396.03125 525.8906Q396.03125 524.96875 396.34375 524.2031Q396.65625 523.4375 397.28125 523.0469Q397.90625 522.6406 398.67188 522.6406Q399.23438 522.6406 399.67188 522.875Q400.10938 523.1094 400.39062 523.4844L400.39062 520.40625L401.4375 520.40625L401.4375 529.0L400.45312 529.0ZM397.125 525.8906Q397.125 527.09375 397.625 527.6875Q398.125 528.2656 398.8125 528.2656Q399.5 528.2656 399.98438 527.7031Q400.46875 527.1406 400.46875 525.9844Q400.46875 524.7031 399.96875 524.1094Q399.48438 523.5156 398.76562 523.5156Q398.0625 523.5156 397.59375 524.09375Q397.125 524.65625 397.125 525.8906ZM407.48438 528.2344Q406.89062 528.7344 406.34375 528.9375Q405.8125 529.1406 405.1875 529.1406Q404.15625 529.1406 403.60938 528.6406Q403.0625 528.1406 403.0625 527.3594Q403.0625 526.90625 403.26562 526.53125Q403.46875 526.1406 403.8125 525.9219Q404.15625 525.6875 404.57812 525.5781Q404.875 525.4844 405.51562 525.40625Q406.78125 525.2656 407.39062 525.0469Q407.39062 524.8281 407.39062 524.78125Q407.39062 524.125 407.09375 523.8594Q406.6875 523.5156 405.89062 523.5156Q405.15625 523.5156 404.79688 523.78125Q404.4375 524.03125 404.26562 524.6875L403.23438 524.5469Q403.375 523.8906 403.70312 523.4844Q404.03125 523.0781 404.64062 522.8594Q405.25 522.6406 406.04688 522.6406Q406.84375 522.6406 407.34375 522.8281Q407.84375 523.0156 408.07812 523.2969Q408.3125 523.5781 408.40625 524.0156Q408.45312 524.28125 408.45312 524.9844L408.45312 526.3906Q408.45312 527.8594 408.51562 528.25Q408.59375 528.6406 408.79688 529.0L407.6875 529.0Q407.53125 528.6719 407.48438 528.2344ZM407.39062 525.875Q406.8125 526.1094 405.67188 526.28125Q405.01562 526.375 404.75 526.5Q404.48438 526.6094 404.32812 526.8281Q404.1875 527.0469 404.1875 527.3281Q404.1875 527.75 404.5 528.03125Q404.82812 528.3125 405.4375 528.3125Q406.04688 528.3125 406.51562 528.0469Q407.0 527.78125 407.21875 527.3125Q407.39062 526.9531 407.39062 526.2656L407.39062 525.875ZM410.21875 529.5156L411.25 529.6719Q411.3125 530.1406 411.60938 530.3594Q412.0 530.65625 412.67188 530.65625Q413.40625 530.65625 413.79688 530.3594Q414.20312 530.0625 414.34375 529.5469Q414.4375 529.21875 414.42188 528.1875Q413.73438 529.0 412.70312 529.0Q411.42188 529.0 410.71875 528.0781Q410.01562 527.1406 410.01562 525.8594Q410.01562 524.96875 410.32812 524.21875Q410.65625 523.4531 411.26562 523.0469Q411.875 522.6406 412.70312 522.6406Q413.8125 522.6406 414.53125 523.53125L414.53125 522.78125L415.5 522.78125L415.5 528.15625Q415.5 529.6094 415.20312 530.21875Q414.90625 530.8281 414.26562 531.1719Q413.625 531.53125 412.6875 531.53125Q411.57812 531.53125 410.89062 531.03125Q410.20312 530.53125 410.21875 529.5156ZM411.09375 525.78125Q411.09375 527.0 411.57812 527.5625Q412.0625 528.125 412.79688 528.125Q413.53125 528.125 414.01562 527.5625Q414.51562 527.0 414.51562 525.8125Q414.51562 524.6719 414.0 524.09375Q413.5 523.5156 412.78125 523.5156Q412.07812 523.5156 411.57812 524.09375Q411.09375 524.65625 411.09375 525.78125ZM424.09375 529.0L423.04688 529.0L423.04688 522.28125Q422.65625 522.6406 422.03125 523.0156Q421.42188 523.375 420.9375 523.5469L420.9375 522.53125Q421.8125 522.1094 422.46875 521.53125Q423.14062 520.9375 423.42188 520.375L424.09375 520.375L424.09375 529.0ZM430.5 529.0L430.5 526.9375L426.78125 526.9375L426.78125 525.96875L430.70312 520.40625L431.5625 520.40625L431.5625 525.96875L432.71875 525.96875L432.71875 526.9375L431.5625 526.9375L431.5625 529.0L430.5 529.0ZM430.5 525.96875L430.5 522.1094L427.8125 525.96875L430.5 525.96875Z" fill-rule="nonzero"/><path fill="#000000" d="M495.39062 525.7344L495.39062 524.53125Q496.0 523.8281 497.01562 523.8281Q497.35938 523.8281 497.75 523.9375Q498.14062 524.03125 498.85938 524.34375Q499.26562 524.5156 499.45312 524.5625Q499.65625 524.6094 499.875 524.6094Q500.25 524.6094 500.65625 524.3906Q501.0625 524.15625 501.375 523.8125L501.375 525.0625Q501.0 525.40625 500.60938 525.5625Q500.23438 525.71875 499.75 525.71875Q499.40625 525.71875 499.07812 525.6406Q498.76562 525.5625 498.0625 525.25Q497.375 524.9375 496.92188 524.9375Q496.54688 524.9375 496.20312 525.1094Q495.875 525.2656 495.39062 525.7344ZM506.70312 529.0L506.70312 528.21875Q506.10938 529.1406 504.96875 529.1406Q504.21875 529.1406 503.59375 528.7344Q502.96875 528.3125 502.625 527.5781Q502.28125 526.84375 502.28125 525.8906Q502.28125 524.96875 502.59375 524.2031Q502.90625 523.4375 503.53125 523.0469Q504.15625 522.6406 504.92188 522.6406Q505.48438 522.6406 505.92188 522.875Q506.35938 523.1094 506.64062 523.4844L506.64062 520.40625L507.6875 520.40625L507.6875 529.0L506.70312 529.0ZM503.375 525.8906Q503.375 527.09375 503.875 527.6875Q504.375 528.2656 505.0625 528.2656Q505.75 528.2656 506.23438 527.7031Q506.71875 527.1406 506.71875 525.9844Q506.71875 524.7031 506.21875 524.1094Q505.73438 523.5156 505.01562 523.5156Q504.3125 523.5156 503.84375 524.09375Q503.375 524.65625 503.375 525.8906ZM513.7344 528.2344Q513.1406 528.7344 512.59375 528.9375Q512.0625 529.1406 511.4375 529.1406Q510.40625 529.1406 509.85938 528.6406Q509.3125 528.1406 509.3125 527.3594Q509.3125 526.90625 509.51562 526.53125Q509.71875 526.1406 510.0625 525.9219Q510.40625 525.6875 510.82812 525.5781Q511.125 525.4844 511.76562 525.40625Q513.03125 525.2656 513.6406 525.0469Q513.6406 524.8281 513.6406 524.78125Q513.6406 524.125 513.34375 523.8594Q512.9375 523.5156 512.1406 523.5156Q511.40625 523.5156 511.04688 523.78125Q510.6875 524.03125 510.51562 524.6875L509.48438 524.5469Q509.625 523.8906 509.95312 523.4844Q510.28125 523.0781 510.89062 522.8594Q511.5 522.6406 512.2969 522.6406Q513.09375 522.6406 513.59375 522.8281Q514.09375 523.0156 514.3281 523.2969Q514.5625 523.5781 514.65625 524.0156Q514.7031 524.28125 514.7031 524.9844L514.7031 526.3906Q514.7031 527.8594 514.7656 528.25Q514.84375 528.6406 515.0469 529.0L513.9375 529.0Q513.78125 528.6719 513.7344 528.2344ZM513.6406 525.875Q513.0625 526.1094 511.92188 526.28125Q511.26562 526.375 511.0 526.5Q510.73438 526.6094 510.57812 526.8281Q510.4375 527.0469 510.4375 527.3281Q510.4375 527.75 510.75 528.03125Q511.07812 528.3125 511.6875 528.3125Q512.2969 528.3125 512.7656 528.0469Q513.25 527.78125 513.46875 527.3125Q513.6406 526.9531 513.6406 526.2656L513.6406 525.875ZM516.46875 529.5156L517.5 529.6719Q517.5625 530.1406 517.8594 530.3594Q518.25 530.65625 518.9219 530.65625Q519.65625 530.65625 520.0469 530.3594Q520.4531 530.0625 520.59375 529.5469Q520.6875 529.21875 520.6719 528.1875Q519.9844 529.0 518.9531 529.0Q517.6719 529.0 516.96875 528.0781Q516.2656 527.1406 516.2656 525.8594Q516.2656 524.96875 516.5781 524.21875Q516.90625 523.4531 517.5156 523.0469Q518.125 522.6406 518.9531 522.6406Q520.0625 522.6406 520.78125 523.53125L520.78125 522.78125L521.75 522.78125L521.75 528.15625Q521.75 529.6094 521.4531 530.21875Q521.15625 530.8281 520.5156 531.1719Q519.875 531.53125 518.9375 531.53125Q517.8281 531.53125 517.1406 531.03125Q516.4531 530.53125 516.46875 529.5156ZM517.34375 525.78125Q517.34375 527.0 517.8281 527.5625Q518.3125 528.125 519.0469 528.125Q519.78125 528.125 520.2656 527.5625Q520.7656 527.0 520.7656 525.8125Q520.7656 524.6719 520.25 524.09375Q519.75 523.5156 519.03125 523.5156Q518.3281 523.5156 517.8281 524.09375Q517.34375 524.65625 517.34375 525.78125ZM531.9219 527.9844L531.9219 529.0L526.2344 529.0Q526.2344 528.625 526.3594 528.2656Q526.5781 527.6875 527.0469 527.125Q527.53125 526.5625 528.4375 525.8281Q529.84375 524.6719 530.3281 524.0Q530.8281 523.3281 530.8281 522.7344Q530.8281 522.1094 530.375 521.6875Q529.9219 521.25 529.2031 521.25Q528.4375 521.25 527.9844 521.7031Q527.53125 522.15625 527.5156 522.96875L526.4375 522.8594Q526.5469 521.6406 527.2656 521.0156Q528.0 520.375 529.2344 520.375Q530.46875 520.375 531.1875 521.0625Q531.90625 521.75 531.90625 522.7656Q531.90625 523.28125 531.6875 523.78125Q531.4844 524.2656 530.9844 524.8281Q530.5 525.375 529.375 526.3281Q528.4219 527.125 528.1406 527.4219Q527.875 527.7031 527.7031 527.9844L531.9219 527.9844ZM537.34375 529.0L536.2969 529.0L536.2969 522.28125Q535.90625 522.6406 535.28125 523.0156Q534.6719 523.375 534.1875 523.5469L534.1875 522.53125Q535.0625 522.1094 535.71875 521.53125Q536.3906 520.9375 536.6719 520.375L537.34375 520.375L537.34375 529.0Z" fill-rule="nonzero"/><path fill="#000000" d="M605.9531 529.0L605.9531 528.21875Q605.3594 529.1406 604.21875 529.1406Q603.46875 529.1406 602.84375 528.7344Q602.21875 528.3125 601.875 527.5781Q601.53125 526.84375 601.53125 525.8906Q601.53125 524.96875 601.84375 524.2031Q602.15625 523.4375 602.78125 523.0469Q603.40625 522.6406 604.1719 522.6406Q604.7344 522.6406 605.1719 522.875Q605.6094 523.1094 605.8906 523.4844L605.8906 520.40625L606.9375 520.40625L606.9375 529.0L605.9531 529.0ZM602.625 525.8906Q602.625 527.09375 603.125 527.6875Q603.625 528.2656 604.3125 528.2656Q605.0 528.2656 605.4844 527.7031Q605.96875 527.1406 605.96875 525.9844Q605.96875 524.7031 605.46875 524.1094Q604.9844 523.5156 604.2656 523.5156Q603.5625 523.5156 603.09375 524.09375Q602.625 524.65625 602.625 525.8906ZM612.9844 528.2344Q612.3906 528.7344 611.84375 528.9375Q611.3125 529.1406 610.6875 529.1406Q609.65625 529.1406 609.1094 528.6406Q608.5625 528.1406 608.5625 527.3594Q608.5625 526.90625 608.7656 526.53125Q608.96875 526.1406 609.3125 525.9219Q609.65625 525.6875 610.0781 525.5781Q610.375 525.4844 611.0156 525.40625Q612.28125 525.2656 612.8906 525.0469Q612.8906 524.8281 612.8906 524.78125Q612.8906 524.125 612.59375 523.8594Q612.1875 523.5156 611.3906 523.5156Q610.65625 523.5156 610.2969 523.78125Q609.9375 524.03125 609.7656 524.6875L608.7344 524.5469Q608.875 523.8906 609.2031 523.4844Q609.53125 523.0781 610.1406 522.8594Q610.75 522.6406 611.5469 522.6406Q612.34375 522.6406 612.84375 522.8281Q613.34375 523.0156 613.5781 523.2969Q613.8125 523.5781 613.90625 524.0156Q613.9531 524.28125 613.9531 524.9844L613.9531 526.3906Q613.9531 527.8594 614.0156 528.25Q614.09375 528.6406 614.2969 529.0L613.1875 529.0Q613.03125 528.6719 612.9844 528.2344ZM612.8906 525.875Q612.3125 526.1094 611.1719 526.28125Q610.5156 526.375 610.25 526.5Q609.9844 526.6094 609.8281 526.8281Q609.6875 527.0469 609.6875 527.3281Q609.6875 527.75 610.0 528.03125Q610.3281 528.3125 610.9375 528.3125Q611.5469 528.3125 612.0156 528.0469Q612.5 527.78125 612.71875 527.3125Q612.8906 526.9531 612.8906 526.2656L612.8906 525.875ZM615.71875 529.5156L616.75 529.6719Q616.8125 530.1406 617.1094 530.3594Q617.5 530.65625 618.1719 530.65625Q618.90625 530.65625 619.2969 530.3594Q619.7031 530.0625 619.84375 529.5469Q619.9375 529.21875 619.9219 528.1875Q619.2344 529.0 618.2031 529.0Q616.9219 529.0 616.21875 528.0781Q615.5156 527.1406 615.5156 525.8594Q615.5156 524.96875 615.8281 524.21875Q616.15625 523.4531 616.7656 523.0469Q617.375 522.6406 618.2031 522.6406Q619.3125 522.6406 620.03125 523.53125L620.03125 522.78125L621.0 522.78125L621.0 528.15625Q621.0 529.6094 620.7031 530.21875Q620.40625 530.8281 619.7656 531.1719Q619.125 531.53125 618.1875 531.53125Q617.0781 531.53125 616.3906 531.03125Q615.7031 530.53125 615.71875 529.5156ZM616.59375 525.78125Q616.59375 527.0 617.0781 527.5625Q617.5625 528.125 618.2969 528.125Q619.03125 528.125 619.5156 527.5625Q620.0156 527.0 620.0156 525.8125Q620.0156 524.6719 619.5 524.09375Q619.0 523.5156 618.28125 523.5156Q617.5781 523.5156 617.0781 524.09375Q616.59375 524.65625 616.59375 525.78125ZM631.1719 527.9844L631.1719 529.0L625.4844 529.0Q625.4844 528.625 625.6094 528.2656Q625.8281 527.6875 626.2969 527.125Q626.78125 526.5625 627.6875 525.8281Q629.09375 524.6719 629.5781 524.0Q630.0781 523.3281 630.0781 522.7344Q630.0781 522.1094 629.625 521.6875Q629.1719 521.25 628.4531 521.25Q627.6875 521.25 627.2344 521.7031Q626.78125 522.15625 626.7656 522.96875L625.6875 522.8594Q625.7969 521.6406 626.5156 521.0156Q627.25 520.375 628.4844 520.375Q629.71875 520.375 630.4375 521.0625Q631.15625 521.75 631.15625 522.7656Q631.15625 523.28125 630.9375 523.78125Q630.7344 524.2656 630.2344 524.8281Q629.75 525.375 628.625 526.3281Q627.6719 527.125 627.3906 527.4219Q627.125 527.7031 626.9531 527.9844L631.1719 527.9844ZM632.625 526.75L633.7344 526.65625Q633.8594 527.46875 634.2969 527.875Q634.75 528.28125 635.3906 528.28125Q636.1406 528.28125 636.6719 527.7031Q637.2031 527.125 637.2031 526.1875Q637.2031 525.28125 636.6875 524.7656Q636.1875 524.2344 635.3594 524.2344Q634.8594 524.2344 634.4375 524.46875Q634.03125 524.7031 633.7969 525.0625L632.8125 524.9375L633.6406 520.53125L637.9219 520.53125L637.9219 521.53125L634.4844 521.53125L634.03125 523.84375Q634.7969 523.2969 635.6406 523.2969Q636.7656 523.2969 637.53125 524.0781Q638.3125 524.8594 638.3125 526.09375Q638.3125 527.25 637.6406 528.1094Q636.8125 529.1406 635.3906 529.1406Q634.21875 529.1406 633.46875 528.4844Q632.7344 527.8281 632.625 526.75Z" fill-rule="nonzero"/><path fill="#000000" d="M708.7031 529.0L708.7031 528.21875Q708.1094 529.1406 706.96875 529.1406Q706.21875 529.1406 705.59375 528.7344Q704.96875 528.3125 704.625 527.5781Q704.28125 526.84375 704.28125 525.8906Q704.28125 524.96875 704.59375 524.2031Q704.90625 523.4375 705.53125 523.0469Q706.15625 522.6406 706.9219 522.6406Q707.4844 522.6406 707.9219 522.875Q708.3594 523.1094 708.6406 523.4844L708.6406 520.40625L709.6875 520.40625L709.6875 529.0L708.7031 529.0ZM705.375 525.8906Q705.375 527.09375 705.875 527.6875Q706.375 528.2656 707.0625 528.2656Q707.75 528.2656 708.2344 527.7031Q708.71875 527.1406 708.71875 525.9844Q708.71875 524.7031 708.21875 524.1094Q707.7344 523.5156 707.0156 523.5156Q706.3125 523.5156 705.84375 524.09375Q705.375 524.65625 705.375 525.8906ZM715.7344 528.2344Q715.1406 528.7344 714.59375 528.9375Q714.0625 529.1406 713.4375 529.1406Q712.40625 529.1406 711.8594 528.6406Q711.3125 528.1406 711.3125 527.3594Q711.3125 526.90625 711.5156 526.53125Q711.71875 526.1406 712.0625 525.9219Q712.40625 525.6875 712.8281 525.5781Q713.125 525.4844 713.7656 525.40625Q715.03125 525.2656 715.6406 525.0469Q715.6406 524.8281 715.6406 524.78125Q715.6406 524.125 715.34375 523.8594Q714.9375 523.5156 714.1406 523.5156Q713.40625 523.5156 713.0469 523.78125Q712.6875 524.03125 712.5156 524.6875L711.4844 524.5469Q711.625 523.8906 711.9531 523.4844Q712.28125 523.0781 712.8906 522.8594Q713.5 522.6406 714.2969 522.6406Q715.09375 522.6406 715.59375 522.8281Q716.09375 523.0156 716.3281 523.2969Q716.5625 523.5781 716.65625 524.0156Q716.7031 524.28125 716.7031 524.9844L716.7031 526.3906Q716.7031 527.8594 716.7656 528.25Q716.84375 528.6406 717.0469 529.0L715.9375 529.0Q715.78125 528.6719 715.7344 528.2344ZM715.6406 525.875Q715.0625 526.1094 713.9219 526.28125Q713.2656 526.375 713.0 526.5Q712.7344 526.6094 712.5781 526.8281Q712.4375 527.0469 712.4375 527.3281Q712.4375 527.75 712.75 528.03125Q713.0781 528.3125 713.6875 528.3125Q714.2969 528.3125 714.7656 528.0469Q715.25 527.78125 715.46875 527.3125Q715.6406 526.9531 715.6406 526.2656L715.6406 525.875ZM718.46875 529.5156L719.5 529.6719Q719.5625 530.1406 719.8594 530.3594Q720.25 530.65625 720.9219 530.65625Q721.65625 530.65625 722.0469 530.3594Q722.4531 530.0625 722.59375 529.5469Q722.6875 529.21875 722.6719 528.1875Q721.9844 529.0 720.9531 529.0Q719.6719 529.0 718.96875 528.0781Q718.2656 527.1406 718.2656 525.8594Q718.2656 524.96875 718.5781 524.21875Q718.90625 523.4531 719.5156 523.0469Q720.125 522.6406 720.9531 522.6406Q722.0625 522.6406 722.78125 523.53125L722.78125 522.78125L723.75 522.78125L723.75 528.15625Q723.75 529.6094 723.4531 530.21875Q723.15625 530.8281 722.5156 531.1719Q721.875 531.53125 720.9375 531.53125Q719.8281 531.53125 719.1406 531.03125Q718.4531 530.53125 718.46875 529.5156ZM719.34375 525.78125Q719.34375 527.0 719.8281 527.5625Q720.3125 528.125 721.0469 528.125Q721.78125 528.125 722.2656 527.5625Q722.7656 527.0 722.7656 525.8125Q722.7656 524.6719 722.25 524.09375Q721.75 523.5156 721.03125 523.5156Q720.3281 523.5156 719.8281 524.09375Q719.34375 524.65625 719.34375 525.78125ZM728.375 526.7344L729.4375 526.59375Q729.6094 527.4844 730.0469 527.8906Q730.4844 528.28125 731.1094 528.28125Q731.8594 528.28125 732.375 527.7656Q732.8906 527.25 732.8906 526.4844Q732.8906 525.7656 732.40625 525.2969Q731.9375 524.8125 731.2031 524.8125Q730.90625 524.8125 730.4531 524.9375L730.5781 524.0Q730.6875 524.0156 730.75 524.0156Q731.4219 524.0156 731.9531 523.6719Q732.5 523.3125 732.5 522.5781Q732.5 522.0 732.1094 521.625Q731.71875 521.2344 731.09375 521.2344Q730.4844 521.2344 730.0625 521.625Q729.65625 522.0156 729.5469 522.78125L728.4844 522.59375Q728.6719 521.5469 729.3594 520.96875Q730.0469 520.375 731.0625 520.375Q731.7656 520.375 732.3594 520.6875Q732.9531 520.9844 733.2656 521.5Q733.5781 522.0156 733.5781 522.6094Q733.5781 523.15625 733.28125 523.625Q732.9844 524.0781 732.40625 524.34375Q733.15625 524.5156 733.5781 525.0781Q734.0 525.625 734.0 526.46875Q734.0 527.59375 733.1719 528.375Q732.3594 529.15625 731.1094 529.15625Q729.9844 529.15625 729.2344 528.4844Q728.4844 527.7969 728.375 526.7344ZM735.375 526.75L736.4844 526.65625Q736.6094 527.46875 737.0469 527.875Q737.5 528.28125 738.1406 528.28125Q738.8906 528.28125 739.4219 527.7031Q739.9531 527.125 739.9531 526.1875Q739.9531 525.28125 739.4375 524.7656Q738.9375 524.2344 738.1094 524.2344Q737.6094 524.2344 737.1875 524.46875Q736.78125 524.7031 736.5469 525.0625L735.5625 524.9375L736.3906 520.53125L740.6719 520.53125L740.6719 521.53125L737.2344 521.53125L736.78125 523.84375Q737.5469 523.2969 738.3906 523.2969Q739.5156 523.2969 740.28125 524.0781Q741.0625 524.8594 741.0625 526.09375Q741.0625 527.25 740.3906 528.1094Q739.5625 529.1406 738.1406 529.1406Q736.96875 529.1406 736.21875 528.4844Q735.4844 527.8281 735.375 526.75Z" fill-rule="nonzero"/><path fill="#000000" d="M799.4531 529.0L799.4531 528.21875Q798.8594 529.1406 797.71875 529.1406Q796.96875 529.1406 796.34375 528.7344Q795.71875 528.3125 795.375 527.5781Q795.03125 526.84375 795.03125 525.8906Q795.03125 524.96875 795.34375 524.2031Q795.65625 523.4375 796.28125 523.0469Q796.90625 522.6406 797.6719 522.6406Q798.2344 522.6406 798.6719 522.875Q799.1094 523.1094 799.3906 523.4844L799.3906 520.40625L800.4375 520.40625L800.4375 529.0L799.4531 529.0ZM796.125 525.8906Q796.125 527.09375 796.625 527.6875Q797.125 528.2656 797.8125 528.2656Q798.5 528.2656 798.9844 527.7031Q799.46875 527.1406 799.46875 525.9844Q799.46875 524.7031 798.96875 524.1094Q798.4844 523.5156 797.7656 523.5156Q797.0625 523.5156 796.59375 524.09375Q796.125 524.65625 796.125 525.8906ZM806.4844 528.2344Q805.8906 528.7344 805.34375 528.9375Q804.8125 529.1406 804.1875 529.1406Q803.15625 529.1406 802.6094 528.6406Q802.0625 528.1406 802.0625 527.3594Q802.0625 526.90625 802.2656 526.53125Q802.46875 526.1406 802.8125 525.9219Q803.15625 525.6875 803.5781 525.5781Q803.875 525.4844 804.5156 525.40625Q805.78125 525.2656 806.3906 525.0469Q806.3906 524.8281 806.3906 524.78125Q806.3906 524.125 806.09375 523.8594Q805.6875 523.5156 804.8906 523.5156Q804.15625 523.5156 803.7969 523.78125Q803.4375 524.03125 803.2656 524.6875L802.2344 524.5469Q802.375 523.8906 802.7031 523.4844Q803.03125 523.0781 803.6406 522.8594Q804.25 522.6406 805.0469 522.6406Q805.84375 522.6406 806.34375 522.8281Q806.84375 523.0156 807.0781 523.2969Q807.3125 523.5781 807.40625 524.0156Q807.4531 524.28125 807.4531 524.9844L807.4531 526.3906Q807.4531 527.8594 807.5156 528.25Q807.59375 528.6406 807.7969 529.0L806.6875 529.0Q806.53125 528.6719 806.4844 528.2344ZM806.3906 525.875Q805.8125 526.1094 804.6719 526.28125Q804.0156 526.375 803.75 526.5Q803.4844 526.6094 803.3281 526.8281Q803.1875 527.0469 803.1875 527.3281Q803.1875 527.75 803.5 528.03125Q803.8281 528.3125 804.4375 528.3125Q805.0469 528.3125 805.5156 528.0469Q806.0 527.78125 806.21875 527.3125Q806.3906 526.9531 806.3906 526.2656L806.3906 525.875ZM809.21875 529.5156L810.25 529.6719Q810.3125 530.1406 810.6094 530.3594Q811.0 530.65625 811.6719 530.65625Q812.40625 530.65625 812.7969 530.3594Q813.2031 530.0625 813.34375 529.5469Q813.4375 529.21875 813.4219 528.1875Q812.7344 529.0 811.7031 529.0Q810.4219 529.0 809.71875 528.0781Q809.0156 527.1406 809.0156 525.8594Q809.0156 524.96875 809.3281 524.21875Q809.65625 523.4531 810.2656 523.0469Q810.875 522.6406 811.7031 522.6406Q812.8125 522.6406 813.53125 523.53125L813.53125 522.78125L814.5 522.78125L814.5 528.15625Q814.5 529.6094 814.2031 530.21875Q813.90625 530.8281 813.2656 531.1719Q812.625 531.53125 811.6875 531.53125Q810.5781 531.53125 809.8906 531.03125Q809.2031 530.53125 809.21875 529.5156ZM810.09375 525.78125Q810.09375 527.0 810.5781 527.5625Q811.0625 528.125 811.7969 528.125Q812.53125 528.125 813.0156 527.5625Q813.5156 527.0 813.5156 525.8125Q813.5156 524.6719 813.0 524.09375Q812.5 523.5156 811.78125 523.5156Q811.0781 523.5156 810.5781 524.09375Q810.09375 524.65625 810.09375 525.78125ZM819.125 526.7344L820.1875 526.59375Q820.3594 527.4844 820.7969 527.8906Q821.2344 528.28125 821.8594 528.28125Q822.6094 528.28125 823.125 527.7656Q823.6406 527.25 823.6406 526.4844Q823.6406 525.7656 823.15625 525.2969Q822.6875 524.8125 821.9531 524.8125Q821.65625 524.8125 821.2031 524.9375L821.3281 524.0Q821.4375 524.0156 821.5 524.0156Q822.1719 524.0156 822.7031 523.6719Q823.25 523.3125 823.25 522.5781Q823.25 522.0 822.8594 521.625Q822.46875 521.2344 821.84375 521.2344Q821.2344 521.2344 820.8125 521.625Q820.40625 522.0156 820.2969 522.78125L819.2344 522.59375Q819.4219 521.5469 820.1094 520.96875Q820.7969 520.375 821.8125 520.375Q822.5156 520.375 823.1094 520.6875Q823.7031 520.9844 824.0156 521.5Q824.3281 522.0156 824.3281 522.6094Q824.3281 523.15625 824.03125 523.625Q823.7344 524.0781 823.15625 524.34375Q823.90625 524.5156 824.3281 525.0781Q824.75 525.625 824.75 526.46875Q824.75 527.59375 823.9219 528.375Q823.1094 529.15625 821.8594 529.15625Q820.7344 529.15625 819.9844 528.4844Q819.2344 527.7969 819.125 526.7344ZM826.1875 521.53125L826.1875 520.5156L831.75 520.5156L831.75 521.34375Q830.9375 522.21875 830.125 523.6719Q829.3281 525.1094 828.8906 526.6406Q828.5625 527.71875 828.4844 529.0L827.3906 529.0Q827.40625 527.9844 827.78125 526.5469Q828.1719 525.1094 828.875 523.78125Q829.59375 522.4531 830.40625 521.53125L826.1875 521.53125ZM840.4531 529.0L840.4531 528.21875Q839.8594 529.1406 838.71875 529.1406Q837.96875 529.1406 837.34375 528.7344Q836.71875 528.3125 836.375 527.5781Q836.03125 526.84375 836.03125 525.8906Q836.03125 524.96875 836.34375 524.2031Q836.65625 523.4375 837.28125 523.0469Q837.90625 522.6406 838.6719 522.6406Q839.2344 522.6406 839.6719 522.875Q840.1094 523.1094 840.3906 523.4844L840.3906 520.40625L841.4375 520.40625L841.4375 529.0L840.4531 529.0ZM837.125 525.8906Q837.125 527.09375 837.625 527.6875Q838.125 528.2656 838.8125 528.2656Q839.5 528.2656 839.9844 527.7031Q840.46875 527.1406 840.46875 525.9844Q840.46875 524.7031 839.96875 524.1094Q839.4844 523.5156 838.7656 523.5156Q838.0625 523.5156 837.59375 524.09375Q837.125 524.65625 837.125 525.8906ZM843.03125 525.8906Q843.03125 524.15625 843.9844 523.3281Q844.78125 522.6406 845.9375 522.6406Q847.21875 522.6406 848.03125 523.4844Q848.8594 524.3125 848.8594 525.7969Q848.8594 527.0 848.5 527.6875Q848.1406 528.375 847.4375 528.7656Q846.75 529.1406 845.9375 529.1406Q844.6406 529.1406 843.8281 528.3125Q843.03125 527.46875 843.03125 525.8906ZM844.1094 525.8906Q844.1094 527.0781 844.625 527.6719Q845.15625 528.2656 845.9375 528.2656Q846.7344 528.2656 847.25 527.6719Q847.7656 527.0781 847.7656 525.8594Q847.7656 524.7031 847.2344 524.1094Q846.71875 523.5156 845.9375 523.5156Q845.15625 523.5156 844.625 524.1094Q844.1094 524.6875 844.1094 525.8906ZM844.2969 521.5625L844.2969 520.3594L845.3906 520.3594L845.3906 521.5625L844.2969 521.5625ZM846.4844 521.5625L846.4844 520.3594L847.5781 520.3594L847.5781 521.5625L846.4844 521.5625ZM854.4531 529.0L854.4531 528.21875Q853.8594 529.1406 852.71875 529.1406Q851.96875 529.1406 851.34375 528.7344Q850.71875 528.3125 850.375 527.5781Q850.03125 526.84375 850.03125 525.8906Q850.03125 524.96875 850.34375 524.2031Q850.65625 523.4375 851.28125 523.0469Q851.90625 522.6406 852.6719 522.6406Q853.2344 522.6406 853.6719 522.875Q854.1094 523.1094 854.3906 523.4844L854.3906 520.40625L855.4375 520.40625L855.4375 529.0L854.4531 529.0ZM851.125 525.8906Q851.125 527.09375 851.625 527.6875Q852.125 528.2656 852.8125 528.2656Q853.5 528.2656 853.9844 527.7031Q854.46875 527.1406 854.46875 525.9844Q854.46875 524.7031 853.96875 524.1094Q853.4844 523.5156 852.7656 523.5156Q852.0625 523.5156 851.59375 524.09375Q851.125 524.65625 851.125 525.8906Z" fill-rule="nonzero"/><path fill="#f9cb9c" fill-opacity="0.9019608" d="M242.0 82.666664C242.0 85.98038 239.3137 88.666664 236.0 88.666664C232.6863 88.666664 230.0 85.98038 230.0 82.666664C230.0 79.35296 232.6863 76.666664 236.0 76.666664C239.3137 76.666664 242.0 79.35296 242.0 82.666664Z" fill-rule="nonzero"/><path fill="#1a1a1a" d="M251.125 87.666664L251.125 77.65104L252.45312 77.65104L252.45312 81.760414L257.65625 81.760414L257.65625 77.65104L258.98438 77.65104L258.98438 87.666664L257.65625 87.666664L257.65625 82.947914L252.45312 82.947914L252.45312 87.666664L251.125 87.666664ZM259.46875 84.041664Q259.46875 82.02604 260.59375 81.041664Q261.51562 80.24479 262.875 80.24479Q264.35938 80.24479 265.3125 81.229164Q266.26562 82.197914 266.26562 83.93229Q266.26562 85.33854 265.84375 86.15104Q265.42188 86.947914 264.60938 87.40104Q263.8125 87.83854 262.875 87.83854Q261.34375 87.83854 260.40625 86.854164Q259.46875 85.86979 259.46875 84.041664ZM260.73438 84.041664Q260.73438 85.43229 261.34375 86.135414Q261.95312 86.822914 262.875 86.822914Q263.78125 86.822914 264.39062 86.11979Q265.0 85.416664 265.0 83.99479Q265.0 82.65104 264.39062 81.96354Q263.78125 81.260414 262.875 81.260414Q261.95312 81.260414 261.34375 81.947914Q260.73438 82.635414 260.73438 84.041664ZM260.95312 78.979164L260.95312 77.58854L262.23438 77.58854L262.23438 78.979164L260.95312 78.979164ZM263.5 78.979164L263.5 77.58854L264.78125 77.58854L264.78125 78.979164L263.5 78.979164ZM267.92188 79.072914L267.92188 77.65104L269.14062 77.65104L269.14062 79.072914L267.92188 79.072914ZM266.35938 90.479164L266.59375 89.43229Q266.95312 89.52604 267.17188 89.52604Q267.54688 89.52604 267.73438 89.27604Q267.92188 89.041664 267.92188 88.041664L267.92188 80.40104L269.14062 80.40104L269.14062 88.05729Q269.14062 89.40104 268.79688 89.93229Q268.35938 90.61979 267.32812 90.61979Q266.82812 90.61979 266.35938 90.479164ZM275.64062 87.666664L275.64062 86.74479Q274.9375 87.83854 273.60938 87.83854Q272.73438 87.83854 272.0 87.354164Q271.28125 86.86979 270.875 86.010414Q270.48438 85.15104 270.48438 84.041664Q270.48438 82.96354 270.84375 82.072914Q271.20312 81.18229 271.92188 80.71354Q272.65625 80.24479 273.54688 80.24479Q274.20312 80.24479 274.71875 80.52604Q275.23438 80.791664 275.54688 81.24479L275.54688 77.65104L276.78125 77.65104L276.78125 87.666664L275.64062 87.666664ZM271.75 84.041664Q271.75 85.43229 272.32812 86.135414Q272.92188 86.822914 273.71875 86.822914Q274.53125 86.822914 275.09375 86.166664Q275.65625 85.49479 275.65625 84.15104Q275.65625 82.65104 275.07812 81.96354Q274.5 81.260414 273.67188 81.260414Q272.84375 81.260414 272.29688 81.93229Q271.75 82.604164 271.75 84.041664ZM285.28125 90.61979Q284.25 89.322914 283.54688 87.604164Q282.84375 85.885414 282.84375 84.041664Q282.84375 82.416664 283.375 80.916664Q283.98438 79.18229 285.28125 77.479164L286.15625 77.479164Q285.32812 78.90104 285.0625 79.510414Q284.64062 80.447914 284.40625 81.479164Q284.10938 82.74479 284.10938 84.041664Q284.10938 87.33854 286.15625 90.61979L285.28125 90.61979ZM292.65625 85.010414L293.875 85.166664Q293.67188 86.416664 292.84375 87.135414Q292.03125 87.83854 290.84375 87.83854Q289.35938 87.83854 288.45312 86.86979Q287.54688 85.885414 287.54688 84.05729Q287.54688 82.885414 287.9375 82.010414Q288.32812 81.11979 289.125 80.68229Q289.92188 80.24479 290.85938 80.24479Q292.03125 80.24479 292.78125 80.83854Q293.54688 81.43229 293.75 82.541664L292.5625 82.729164Q292.39062 81.99479 291.95312 81.635414Q291.51562 81.260414 290.90625 81.260414Q289.96875 81.260414 289.39062 81.93229Q288.8125 82.58854 288.8125 84.02604Q288.8125 85.49479 289.375 86.166664Q289.9375 86.822914 290.82812 86.822914Q291.5625 86.822914 292.04688 86.385414Q292.53125 85.93229 292.65625 85.010414ZM294.92188 87.666664L294.92188 80.40104L296.03125 80.40104L296.03125 81.43229Q296.35938 80.885414 296.92188 80.572914Q297.5 80.24479 298.21875 80.24479Q299.03125 80.24479 299.54688 80.58854Q300.0625 80.916664 300.28125 81.510414Q301.14062 80.24479 302.51562 80.24479Q303.59375 80.24479 304.17188 80.83854Q304.76562 81.43229 304.76562 82.68229L304.76562 87.666664L303.53125 87.666664L303.53125 83.08854Q303.53125 82.354164 303.40625 82.02604Q303.29688 81.697914 302.98438 81.510414Q302.67188 81.30729 302.25 81.30729Q301.48438 81.30729 300.96875 81.822914Q300.46875 82.322914 300.46875 83.447914L300.46875 87.666664L299.23438 87.666664L299.23438 82.947914Q299.23438 82.135414 298.9375 81.729164Q298.64062 81.30729 297.95312 81.30729Q297.4375 81.30729 296.98438 81.58854Q296.54688 81.854164 296.34375 82.385414Q296.15625 82.90104 296.15625 83.90104L296.15625 87.666664L294.92188 87.666664ZM306.73438 90.61979L305.84375 90.61979Q307.89062 87.33854 307.89062 84.041664Q307.89062 82.760414 307.59375 81.49479Q307.35938 80.46354 306.95312 79.52604Q306.6875 78.916664 305.84375 77.479164L306.73438 77.479164Q308.01562 79.18229 308.625 80.916664Q309.15625 82.416664 309.15625 84.041664Q309.15625 85.885414 308.4375 87.604164Q307.73438 89.322914 306.73438 90.61979Z" fill-rule="nonzero"/><path fill="#e69138" d="M338.0 82.666664C338.0 85.98038 335.31372 88.666664 332.0 88.666664C328.68628 88.666664 326.0 85.98038 326.0 82.666664C326.0 79.35296 328.68628 76.666664 332.0 76.666664C335.31372 76.666664 338.0 79.35296 338.0 82.666664Z" fill-rule="nonzero"/><path fill="#1a1a1a" d="M347.03125 87.666664L347.03125 77.65104L348.35938 77.65104L348.35938 86.479164L353.28125 86.479164L353.28125 87.666664L347.03125 87.666664ZM354.92188 79.072914L354.92188 77.65104L356.14062 77.65104L356.14062 79.072914L354.92188 79.072914ZM353.35938 90.479164L353.59375 89.43229Q353.95312 89.52604 354.17188 89.52604Q354.54688 89.52604 354.73438 89.27604Q354.92188 89.041664 354.92188 88.041664L354.92188 80.40104L356.14062 80.40104L356.14062 88.05729Q356.14062 89.40104 355.79688 89.93229Q355.35938 90.61979 354.32812 90.61979Q353.82812 90.61979 353.35938 90.479164ZM362.6875 87.666664L362.6875 86.604164Q361.82812 87.83854 360.375 87.83854Q359.73438 87.83854 359.17188 87.58854Q358.625 87.33854 358.34375 86.96354Q358.07812 86.58854 357.96875 86.05729Q357.89062 85.697914 357.89062 84.90104L357.89062 80.40104L359.125 80.40104L359.125 84.43229Q359.125 85.40104 359.20312 85.729164Q359.3125 86.21354 359.6875 86.49479Q360.0625 86.77604 360.625 86.77604Q361.17188 86.77604 361.65625 86.49479Q362.14062 86.197914 362.34375 85.71354Q362.54688 85.229164 362.54688 84.291664L362.54688 80.40104L363.78125 80.40104L363.78125 87.666664L362.6875 87.666664ZM365.4375 85.49479L366.64062 85.30729Q366.75 86.041664 367.21875 86.43229Q367.6875 86.822914 368.53125 86.822914Q369.375 86.822914 369.78125 86.479164Q370.20312 86.135414 370.20312 85.666664Q370.20312 85.24479 369.82812 85.010414Q369.57812 84.83854 368.57812 84.58854Q367.21875 84.24479 366.6875 83.99479Q366.17188 83.74479 365.90625 83.30729Q365.64062 82.86979 365.64062 82.33854Q365.64062 81.854164 365.85938 81.447914Q366.07812 81.02604 366.46875 80.74479Q366.75 80.541664 367.23438 80.40104Q367.73438 80.24479 368.3125 80.24479Q369.15625 80.24479 369.79688 80.49479Q370.45312 80.729164 370.76562 81.15104Q371.07812 81.572914 371.1875 82.27604L369.98438 82.447914Q369.90625 81.885414 369.5 81.572914Q369.10938 81.260414 368.39062 81.260414Q367.54688 81.260414 367.1875 81.541664Q366.82812 81.80729 366.82812 82.197914Q366.82812 82.43229 366.96875 82.61979Q367.125 82.822914 367.45312 82.947914Q367.625 83.010414 368.53125 83.260414Q369.84375 83.61979 370.35938 83.83854Q370.875 84.05729 371.15625 84.479164Q371.45312 84.90104 371.45312 85.52604Q371.45312 86.15104 371.09375 86.697914Q370.75 87.229164 370.0625 87.541664Q369.39062 87.83854 368.53125 87.83854Q367.125 87.83854 366.375 87.24479Q365.64062 86.65104 365.4375 85.49479ZM379.28125 90.61979Q378.25 89.322914 377.54688 87.604164Q376.84375 85.885414 376.84375 84.041664Q376.84375 82.416664 377.375 80.916664Q377.98438 79.18229 379.28125 77.479164L380.15625 77.479164Q379.32812 78.90104 379.0625 79.510414Q378.64062 80.447914 378.40625 81.479164Q378.10938 82.74479 378.10938 84.041664Q378.10938 87.33854 380.15625 90.61979L379.28125 90.61979ZM381.92188 87.666664L381.92188 77.65104L383.15625 77.65104L383.15625 81.24479Q384.01562 80.24479 385.32812 80.24479Q386.14062 80.24479 386.73438 80.572914Q387.32812 80.885414 387.57812 81.447914Q387.84375 81.99479 387.84375 83.072914L387.84375 87.666664L386.60938 87.666664L386.60938 83.072914Q386.60938 82.135414 386.20312 81.729164Q385.8125 81.30729 385.07812 81.30729Q384.53125 81.30729 384.04688 81.58854Q383.5625 81.86979 383.35938 82.354164Q383.15625 82.83854 383.15625 83.697914L383.15625 87.666664L381.92188 87.666664ZM390.73438 90.61979L389.84375 90.61979Q391.89062 87.33854 391.89062 84.041664Q391.89062 82.760414 391.59375 81.49479Q391.35938 80.46354 390.95312 79.52604Q390.6875 78.916664 389.84375 77.479164L390.73438 77.479164Q392.01562 79.18229 392.625 80.916664Q393.15625 82.416664 393.15625 84.041664Q393.15625 85.885414 392.4375 87.604164Q391.73438 89.322914 390.73438 90.61979Z" fill-rule="nonzero"/><path fill="#3aafa9" d="M422.0 82.666664C422.0 85.98038 419.31372 88.666664 416.0 88.666664C412.68628 88.666664 410.0 85.98038 410.0 82.666664C410.0 79.35296 412.68628 76.666664 416.0 76.666664C419.31372 76.666664 422.0 79.35296 422.0 82.666664Z" fill-rule="nonzero"/><path fill="#1a1a1a" d="M433.9375 87.666664L430.0625 77.65104L431.5 77.65104L434.10938 84.93229Q434.42188 85.80729 434.625 86.572914Q434.85938 85.74479 435.17188 84.93229L437.875 77.65104L439.23438 77.65104L435.3125 87.666664L433.9375 87.666664ZM444.65625 86.77604Q443.98438 87.354164 443.34375 87.604164Q442.71875 87.83854 441.98438 87.83854Q440.79688 87.83854 440.14062 87.260414Q439.5 86.666664 439.5 85.74479Q439.5 85.21354 439.73438 84.77604Q439.98438 84.33854 440.375 84.072914Q440.78125 83.80729 441.26562 83.666664Q441.625 83.572914 442.35938 83.479164Q443.85938 83.30729 444.5625 83.05729Q444.5625 82.80729 444.5625 82.74479Q444.5625 81.979164 444.21875 81.68229Q443.75 81.260414 442.8125 81.260414Q441.95312 81.260414 441.53125 81.572914Q441.125 81.86979 440.92188 82.635414L439.71875 82.479164Q439.875 81.697914 440.25 81.229164Q440.64062 80.760414 441.34375 80.510414Q442.0625 80.24479 443.0 80.24479Q443.92188 80.24479 444.5 80.46354Q445.07812 80.68229 445.34375 81.010414Q445.625 81.33854 445.73438 81.854164Q445.79688 82.166664 445.79688 82.979164L445.79688 84.61979Q445.79688 86.33854 445.875 86.791664Q445.95312 87.24479 446.1875 87.666664L444.90625 87.666664Q444.71875 87.27604 444.65625 86.77604ZM444.5625 84.02604Q443.89062 84.291664 442.54688 84.49479Q441.79688 84.604164 441.46875 84.74479Q441.15625 84.86979 440.98438 85.135414Q440.8125 85.40104 440.8125 85.71354Q440.8125 86.21354 441.1875 86.541664Q441.5625 86.86979 442.28125 86.86979Q443.0 86.86979 443.54688 86.55729Q444.09375 86.24479 444.35938 85.697914Q444.5625 85.291664 444.5625 84.479164L444.5625 84.02604ZM450.60938 86.572914L450.78125 87.65104Q450.26562 87.760414 449.85938 87.760414Q449.1875 87.760414 448.8125 87.55729Q448.45312 87.33854 448.29688 86.99479Q448.15625 86.65104 448.15625 85.541664L448.15625 81.36979L447.25 81.36979L447.25 80.40104L448.15625 80.40104L448.15625 78.604164L449.375 77.86979L449.375 80.40104L450.60938 80.40104L450.60938 81.36979L449.375 81.36979L449.375 85.604164Q449.375 86.135414 449.4375 86.291664Q449.5 86.43229 449.64062 86.52604Q449.79688 86.61979 450.0625 86.61979Q450.28125 86.61979 450.60938 86.572914ZM454.60938 86.572914L454.78125 87.65104Q454.26562 87.760414 453.85938 87.760414Q453.1875 87.760414 452.8125 87.55729Q452.45312 87.33854 452.29688 86.99479Q452.15625 86.65104 452.15625 85.541664L452.15625 81.36979L451.25 81.36979L451.25 80.40104L452.15625 80.40104L452.15625 78.604164L453.375 77.86979L453.375 80.40104L454.60938 80.40104L454.60938 81.36979L453.375 81.36979L453.375 85.604164Q453.375 86.135414 453.4375 86.291664Q453.5 86.43229 453.64062 86.52604Q453.79688 86.61979 454.0625 86.61979Q454.28125 86.61979 454.60938 86.572914ZM460.89062 85.322914L462.17188 85.479164Q461.85938 86.604164 461.04688 87.229164Q460.23438 87.83854 458.96875 87.83854Q457.375 87.83854 456.4375 86.854164Q455.51562 85.86979 455.51562 84.104164Q455.51562 82.260414 456.45312 81.260414Q457.40625 80.24479 458.90625 80.24479Q460.35938 80.24479 461.28125 81.24479Q462.20312 82.229164 462.20312 84.02604Q462.20312 84.135414 462.20312 84.354164L456.78125 84.354164Q456.85938 85.541664 457.45312 86.18229Q458.0625 86.822914 458.98438 86.822914Q459.65625 86.822914 460.125 86.46354Q460.60938 86.104164 460.89062 85.322914ZM456.85938 83.33854L460.90625 83.33854Q460.82812 82.416664 460.4375 81.96354Q459.85938 81.260414 458.92188 81.260414Q458.0625 81.260414 457.48438 81.822914Q456.92188 82.385414 456.85938 83.33854ZM463.92188 87.666664L463.92188 80.40104L465.03125 80.40104L465.03125 81.43229Q465.82812 80.24479 467.34375 80.24479Q468.0 80.24479 468.54688 80.479164Q469.09375 80.71354 469.35938 81.104164Q469.64062 81.479164 469.75 82.010414Q469.82812 82.354164 469.82812 83.197914L469.82812 87.666664L468.59375 87.666664L468.59375 83.24479Q468.59375 82.49479 468.45312 82.135414Q468.3125 81.760414 467.9375 81.541664Q467.57812 81.30729 467.07812 81.30729Q466.29688 81.30729 465.71875 81.80729Q465.15625 82.30729 465.15625 83.697914L465.15625 87.666664L463.92188 87.666664ZM478.28125 90.61979Q477.25 89.322914 476.54688 87.604164Q475.84375 85.885414 475.84375 84.041664Q475.84375 82.416664 476.375 80.916664Q476.98438 79.18229 478.28125 77.479164L479.15625 77.479164Q478.32812 78.90104 478.0625 79.510414Q477.64062 80.447914 477.40625 81.479164Q477.10938 82.74479 477.10938 84.041664Q477.10938 87.33854 479.15625 90.61979L478.28125 90.61979ZM480.89062 87.666664L480.89062 77.65104L482.125 77.65104L482.125 87.666664L480.89062 87.666664ZM484.73438 90.61979L483.84375 90.61979Q485.89062 87.33854 485.89062 84.041664Q485.89062 82.760414 485.59375 81.49479Q485.35938 80.46354 484.95312 79.52604Q484.6875 78.916664 483.84375 77.479164L484.73438 77.479164Q486.01562 79.18229 486.625 80.916664Q487.15625 82.416664 487.15625 84.041664Q487.15625 85.885414 486.4375 87.604164Q485.73438 89.322914 484.73438 90.61979ZM492.92188 90.447914L492.92188 80.40104L494.04688 80.40104L494.04688 81.354164Q494.4375 80.791664 494.9375 80.52604Q495.4375 80.24479 496.15625 80.24479Q497.07812 80.24479 497.78125 80.729164Q498.5 81.197914 498.85938 82.072914Q499.21875 82.947914 499.21875 83.979164Q499.21875 85.08854 498.8125 85.99479Q498.42188 86.885414 497.65625 87.36979Q496.90625 87.83854 496.0625 87.83854Q495.45312 87.83854 494.95312 87.572914Q494.46875 87.30729 494.15625 86.916664L494.15625 90.447914L492.92188 90.447914ZM494.03125 84.072914Q494.03125 85.479164 494.59375 86.15104Q495.17188 86.822914 495.98438 86.822914Q496.79688 86.822914 497.375 86.135414Q497.96875 85.43229 497.96875 83.979164Q497.96875 82.58854 497.39062 81.90104Q496.82812 81.21354 496.03125 81.21354Q495.25 81.21354 494.64062 81.947914Q494.03125 82.68229 494.03125 84.072914ZM505.65625 86.77604Q504.98438 87.354164 504.34375 87.604164Q503.71875 87.83854 502.98438 87.83854Q501.79688 87.83854 501.14062 87.260414Q500.5 86.666664 500.5 85.74479Q500.5 85.21354 500.73438 84.77604Q500.98438 84.33854 501.375 84.072914Q501.78125 83.80729 502.26562 83.666664Q502.625 83.572914 503.35938 83.479164Q504.85938 83.30729 505.5625 83.05729Q505.5625 82.80729 505.5625 82.74479Q505.5625 81.979164 505.21875 81.68229Q504.75 81.260414 503.8125 81.260414Q502.95312 81.260414 502.53125 81.572914Q502.125 81.86979 501.92188 82.635414L500.71875 82.479164Q500.875 81.697914 501.25 81.229164Q501.64062 80.760414 502.34375 80.510414Q503.0625 80.24479 504.0 80.24479Q504.92188 80.24479 505.5 80.46354Q506.07812 80.68229 506.34375 81.010414Q506.625 81.33854 506.73438 81.854164Q506.79688 82.166664 506.79688 82.979164L506.79688 84.61979Q506.79688 86.33854 506.875 86.791664Q506.95312 87.24479 507.1875 87.666664L505.90625 87.666664Q505.71875 87.27604 505.65625 86.77604ZM505.5625 84.02604Q504.89062 84.291664 503.54688 84.49479Q502.79688 84.604164 502.46875 84.74479Q502.15625 84.86979 501.98438 85.135414Q501.8125 85.40104 501.8125 85.71354Q501.8125 86.21354 502.1875 86.541664Q502.5625 86.86979 503.28125 86.86979Q504.0 86.86979 504.54688 86.55729Q505.09375 86.24479 505.35938 85.697914Q505.5625 85.291664 505.5625 84.479164L505.5625 84.02604ZM502.625 78.52604Q502.625 78.02604 502.98438 77.666664Q503.35938 77.291664 503.85938 77.291664Q504.35938 77.291664 504.71875 77.666664Q505.07812 78.02604 505.07812 78.541664Q505.07812 79.072914 504.71875 79.43229Q504.35938 79.791664 503.85938 79.791664Q503.34375 79.791664 502.98438 79.43229Q502.625 79.072914 502.625 78.52604ZM503.14062 78.52604Q503.14062 78.854164 503.35938 79.072914Q503.57812 79.291664 503.875 79.291664Q504.15625 79.291664 504.375 79.072914Q504.59375 78.854164 504.59375 78.541664Q504.59375 78.229164 504.375 78.010414Q504.17188 77.791664 503.875 77.791664Q503.57812 77.791664 503.35938 78.010414Q503.14062 78.229164 503.14062 78.52604ZM509.21875 87.666664L509.21875 81.36979L508.125 81.36979L508.125 80.40104L509.21875 80.40104L509.21875 79.635414Q509.21875 78.90104 509.34375 78.541664Q509.53125 78.072914 509.96875 77.77604Q510.42188 77.479164 511.23438 77.479164Q511.75 77.479164 512.375 77.604164L512.1875 78.666664Q511.8125 78.604164 511.46875 78.604164Q510.90625 78.604164 510.67188 78.83854Q510.4375 79.072914 510.4375 79.729164L510.4375 80.40104L511.85938 80.40104L511.85938 81.36979L510.4375 81.36979L510.4375 87.666664L509.21875 87.666664ZM512.875 90.46354L512.7344 89.30729Q513.1406 89.416664 513.4375 89.416664Q513.84375 89.416664 514.09375 89.27604Q514.34375 89.15104 514.5 88.90104Q514.6094 88.71354 514.875 87.979164Q514.90625 87.885414 514.9844 87.68229L512.21875 80.40104L513.5469 80.40104L515.0625 84.604164Q515.3594 85.416664 515.59375 86.291664Q515.7969 85.447914 516.09375 84.635414L517.6406 80.40104L518.875 80.40104L516.1094 87.791664Q515.6719 88.979164 515.4219 89.43229Q515.09375 90.041664 514.6719 90.322914Q514.25 90.61979 513.65625 90.61979Q513.3125 90.61979 512.875 90.46354ZM519.8906 87.666664L519.8906 77.65104L521.125 77.65104L521.125 87.666664L519.8906 87.666664ZM522.8906 87.666664L522.8906 77.65104L524.125 77.65104L524.125 87.666664L522.8906 87.666664ZM528.6094 86.572914L528.78125 87.65104Q528.2656 87.760414 527.8594 87.760414Q527.1875 87.760414 526.8125 87.55729Q526.4531 87.33854 526.2969 86.99479Q526.15625 86.65104 526.15625 85.541664L526.15625 81.36979L525.25 81.36979L525.25 80.40104L526.15625 80.40104L526.15625 78.604164L527.375 77.86979L527.375 80.40104L528.6094 80.40104L528.6094 81.36979L527.375 81.36979L527.375 85.604164Q527.375 86.135414 527.4375 86.291664Q527.5 86.43229 527.6406 86.52604Q527.7969 86.61979 528.0625 86.61979Q528.28125 86.61979 528.6094 86.572914Z" fill-rule="nonzero"/><path fill="#2b7a78" fill-opacity="0.9019608" d="M557.0 82.666664C557.0 85.98038 554.3137 88.666664 551.0 88.666664C547.6863 88.666664 545.0 85.98038 545.0 82.666664C545.0 79.35296 547.6863 76.666664 551.0 76.666664C554.3137 76.666664 557.0 79.35296 557.0 82.666664Z" fill-rule="nonzero"/><path fill="#1a1a1a" d="M566.0625 87.666664L566.0625 77.65104L567.4219 77.65104L572.6875 85.510414L572.6875 77.65104L573.96875 77.65104L573.96875 87.666664L572.6094 87.666664L567.34375 79.791664L567.34375 87.666664L566.0625 87.666664ZM579.65625 86.77604Q578.9844 87.354164 578.34375 87.604164Q577.71875 87.83854 576.9844 87.83854Q575.7969 87.83854 575.1406 87.260414Q574.5 86.666664 574.5 85.74479Q574.5 85.21354 574.7344 84.77604Q574.9844 84.33854 575.375 84.072914Q575.78125 83.80729 576.2656 83.666664Q576.625 83.572914 577.3594 83.479164Q578.8594 83.30729 579.5625 83.05729Q579.5625 82.80729 579.5625 82.74479Q579.5625 81.979164 579.21875 81.68229Q578.75 81.260414 577.8125 81.260414Q576.9531 81.260414 576.53125 81.572914Q576.125 81.86979 575.9219 82.635414L574.71875 82.479164Q574.875 81.697914 575.25 81.229164Q575.6406 80.760414 576.34375 80.510414Q577.0625 80.24479 578.0 80.24479Q578.9219 80.24479 579.5 80.46354Q580.0781 80.68229 580.34375 81.010414Q580.625 81.33854 580.7344 81.854164Q580.7969 82.166664 580.7969 82.979164L580.7969 84.61979Q580.7969 86.33854 580.875 86.791664Q580.9531 87.24479 581.1875 87.666664L579.90625 87.666664Q579.71875 87.27604 579.65625 86.77604ZM579.5625 84.02604Q578.8906 84.291664 577.5469 84.49479Q576.7969 84.604164 576.46875 84.74479Q576.15625 84.86979 575.9844 85.135414Q575.8125 85.40104 575.8125 85.71354Q575.8125 86.21354 576.1875 86.541664Q576.5625 86.86979 577.28125 86.86979Q578.0 86.86979 578.5469 86.55729Q579.09375 86.24479 579.3594 85.697914Q579.5625 85.291664 579.5625 84.479164L579.5625 84.02604ZM575.9375 78.979164L575.9375 77.58854L577.21875 77.58854L577.21875 78.979164L575.9375 78.979164ZM578.4844 78.979164L578.4844 77.58854L579.7656 77.58854L579.7656 78.979164L578.4844 78.979164ZM582.90625 87.666664L582.90625 80.40104L584.0156 80.40104L584.0156 81.510414Q584.4375 80.729164 584.7969 80.49479Q585.15625 80.24479 585.59375 80.24479Q586.21875 80.24479 586.8594 80.635414L586.4375 81.77604Q585.9844 81.510414 585.53125 81.510414Q585.125 81.510414 584.7969 81.760414Q584.4844 81.99479 584.34375 82.43229Q584.1406 83.08854 584.1406 83.86979L584.1406 87.666664L582.90625 87.666664ZM587.9375 79.05729L587.9375 77.65104L589.15625 77.65104L589.15625 79.05729L587.9375 79.05729ZM587.9375 87.666664L587.9375 80.40104L589.15625 80.40104L589.15625 87.666664L587.9375 87.666664ZM590.9219 87.666664L590.9219 80.40104L592.03125 80.40104L592.03125 81.43229Q592.8281 80.24479 594.34375 80.24479Q595.0 80.24479 595.5469 80.479164Q596.09375 80.71354 596.3594 81.104164Q596.6406 81.479164 596.75 82.010414Q596.8281 82.354164 596.8281 83.197914L596.8281 87.666664L595.59375 87.666664L595.59375 83.24479Q595.59375 82.49479 595.4531 82.135414Q595.3125 81.760414 594.9375 81.541664Q594.5781 81.30729 594.0781 81.30729Q593.2969 81.30729 592.71875 81.80729Q592.15625 82.30729 592.15625 83.697914L592.15625 87.666664L590.9219 87.666664ZM598.7031 88.27604L599.8906 88.447914Q599.96875 88.99479 600.3125 89.260414Q600.7656 89.58854 601.5625 89.58854Q602.4219 89.58854 602.875 89.24479Q603.34375 88.916664 603.5156 88.291664Q603.6094 87.916664 603.59375 86.71354Q602.7969 87.666664 601.59375 87.666664Q600.09375 87.666664 599.2656 86.58854Q598.4531 85.510414 598.4531 83.99479Q598.4531 82.96354 598.8281 82.08854Q599.2031 81.197914 599.90625 80.729164Q600.625 80.24479 601.59375 80.24479Q602.875 80.24479 603.71875 81.27604L603.71875 80.40104L604.84375 80.40104L604.84375 86.68229Q604.84375 88.385414 604.5 89.08854Q604.15625 89.791664 603.40625 90.197914Q602.65625 90.61979 601.5625 90.61979Q600.2656 90.61979 599.46875 90.02604Q598.6719 89.447914 598.7031 88.27604ZM599.71875 83.90104Q599.71875 85.33854 600.28125 85.99479Q600.84375 86.65104 601.7031 86.65104Q602.5469 86.65104 603.125 85.99479Q603.7031 85.33854 603.7031 83.947914Q603.7031 82.61979 603.1094 81.947914Q602.5156 81.260414 601.6875 81.260414Q600.8594 81.260414 600.28125 81.93229Q599.71875 82.58854 599.71875 83.90104ZM613.28125 90.61979Q612.25 89.322914 611.5469 87.604164Q610.84375 85.885414 610.84375 84.041664Q610.84375 82.416664 611.375 80.916664Q611.9844 79.18229 613.28125 77.479164L614.15625 77.479164Q613.3281 78.90104 613.0625 79.510414Q612.6406 80.447914 612.40625 81.479164Q612.1094 82.74479 612.1094 84.041664Q612.1094 87.33854 614.15625 90.61979L613.28125 90.61979ZM615.9219 87.666664L615.9219 80.40104L617.03125 80.40104L617.03125 81.43229Q617.3594 80.885414 617.9219 80.572914Q618.5 80.24479 619.21875 80.24479Q620.03125 80.24479 620.5469 80.58854Q621.0625 80.916664 621.28125 81.510414Q622.1406 80.24479 623.5156 80.24479Q624.59375 80.24479 625.1719 80.83854Q625.7656 81.43229 625.7656 82.68229L625.7656 87.666664L624.53125 87.666664L624.53125 83.08854Q624.53125 82.354164 624.40625 82.02604Q624.2969 81.697914 623.9844 81.510414Q623.6719 81.30729 623.25 81.30729Q622.4844 81.30729 621.96875 81.822914Q621.46875 82.322914 621.46875 83.447914L621.46875 87.666664L620.2344 87.666664L620.2344 82.947914Q620.2344 82.135414 619.9375 81.729164Q619.6406 81.30729 618.9531 81.30729Q618.4375 81.30729 617.9844 81.58854Q617.5469 81.854164 617.34375 82.385414Q617.15625 82.90104 617.15625 83.90104L617.15625 87.666664L615.9219 87.666664ZM626.8906 87.666664L626.8906 77.65104L628.125 77.65104L628.125 87.666664L626.8906 87.666664ZM630.7344 90.61979L629.84375 90.61979Q631.8906 87.33854 631.8906 84.041664Q631.8906 82.760414 631.59375 81.49479Q631.3594 80.46354 630.9531 79.52604Q630.6875 78.916664 629.84375 77.479164L630.7344 77.479164Q632.0156 79.18229 632.625 80.916664Q633.15625 82.416664 633.15625 84.041664Q633.15625 85.885414 632.4375 87.604164Q631.7344 89.322914 630.7344 90.61979ZM638.9219 90.447914L638.9219 80.40104L640.0469 80.40104L640.0469 81.354164Q640.4375 80.791664 640.9375 80.52604Q641.4375 80.24479 642.15625 80.24479Q643.0781 80.24479 643.78125 80.729164Q644.5 81.197914 644.8594 82.072914Q645.21875 82.947914 645.21875 83.979164Q645.21875 85.08854 644.8125 85.99479Q644.4219 86.885414 643.65625 87.36979Q642.90625 87.83854 642.0625 87.83854Q641.4531 87.83854 640.9531 87.572914Q640.46875 87.30729 640.15625 86.916664L640.15625 90.447914L638.9219 90.447914ZM640.03125 84.072914Q640.03125 85.479164 640.59375 86.15104Q641.1719 86.822914 641.9844 86.822914Q642.7969 86.822914 643.375 86.135414Q643.96875 85.43229 643.96875 83.979164Q643.96875 82.58854 643.3906 81.90104Q642.8281 81.21354 642.03125 81.21354Q641.25 81.21354 640.6406 81.947914Q640.03125 82.68229 640.03125 84.072914ZM651.65625 86.77604Q650.9844 87.354164 650.34375 87.604164Q649.71875 87.83854 648.9844 87.83854Q647.7969 87.83854 647.1406 87.260414Q646.5 86.666664 646.5 85.74479Q646.5 85.21354 646.7344 84.77604Q646.9844 84.33854 647.375 84.072914Q647.78125 83.80729 648.2656 83.666664Q648.625 83.572914 649.3594 83.479164Q650.8594 83.30729 651.5625 83.05729Q651.5625 82.80729 651.5625 82.74479Q651.5625 81.979164 651.21875 81.68229Q650.75 81.260414 649.8125 81.260414Q648.9531 81.260414 648.53125 81.572914Q648.125 81.86979 647.9219 82.635414L646.71875 82.479164Q646.875 81.697914 647.25 81.229164Q647.6406 80.760414 648.34375 80.510414Q649.0625 80.24479 650.0 80.24479Q650.9219 80.24479 651.5 80.46354Q652.0781 80.68229 652.34375 81.010414Q652.625 81.33854 652.7344 81.854164Q652.7969 82.166664 652.7969 82.979164L652.7969 84.61979Q652.7969 86.33854 652.875 86.791664Q652.9531 87.24479 653.1875 87.666664L651.90625 87.666664Q651.71875 87.27604 651.65625 86.77604ZM651.5625 84.02604Q650.8906 84.291664 649.5469 84.49479Q648.7969 84.604164 648.46875 84.74479Q648.15625 84.86979 647.9844 85.135414Q647.8125 85.40104 647.8125 85.71354Q647.8125 86.21354 648.1875 86.541664Q648.5625 86.86979 649.28125 86.86979Q650.0 86.86979 650.5469 86.55729Q651.09375 86.24479 651.3594 85.697914Q651.5625 85.291664 651.5625 84.479164L651.5625 84.02604ZM648.625 78.52604Q648.625 78.02604 648.9844 77.666664Q649.3594 77.291664 649.8594 77.291664Q650.3594 77.291664 650.71875 77.666664Q651.0781 78.02604 651.0781 78.541664Q651.0781 79.072914 650.71875 79.43229Q650.3594 79.791664 649.8594 79.791664Q649.34375 79.791664 648.9844 79.43229Q648.625 79.072914 648.625 78.52604ZM649.1406 78.52604Q649.1406 78.854164 649.3594 79.072914Q649.5781 79.291664 649.875 79.291664Q650.15625 79.291664 650.375 79.072914Q650.59375 78.854164 650.59375 78.541664Q650.59375 78.229164 650.375 78.010414Q650.1719 77.791664 649.875 77.791664Q649.5781 77.791664 649.3594 78.010414Q649.1406 78.229164 649.1406 78.52604ZM655.21875 87.666664L655.21875 81.36979L654.125 81.36979L654.125 80.40104L655.21875 80.40104L655.21875 79.635414Q655.21875 78.90104 655.34375 78.541664Q655.53125 78.072914 655.96875 77.77604Q656.4219 77.479164 657.2344 77.479164Q657.75 77.479164 658.375 77.604164L658.1875 78.666664Q657.8125 78.604164 657.46875 78.604164Q656.90625 78.604164 656.6719 78.83854Q656.4375 79.072914 656.4375 79.729164L656.4375 80.40104L657.8594 80.40104L657.8594 81.36979L656.4375 81.36979L656.4375 87.666664L655.21875 87.666664ZM658.875 90.46354L658.7344 89.30729Q659.1406 89.416664 659.4375 89.416664Q659.84375 89.416664 660.09375 89.27604Q660.34375 89.15104 660.5 88.90104Q660.6094 88.71354 660.875 87.979164Q660.90625 87.885414 660.9844 87.68229L658.21875 80.40104L659.5469 80.40104L661.0625 84.604164Q661.3594 85.416664 661.59375 86.291664Q661.7969 85.447914 662.09375 84.635414L663.6406 80.40104L664.875 80.40104L662.1094 87.791664Q661.6719 88.979164 661.4219 89.43229Q661.09375 90.041664 660.6719 90.322914Q660.25 90.61979 659.65625 90.61979Q659.3125 90.61979 658.875 90.46354ZM665.8906 87.666664L665.8906 77.65104L667.125 77.65104L667.125 87.666664L665.8906 87.666664ZM668.8906 87.666664L668.8906 77.65104L670.125 77.65104L670.125 87.666664L668.8906 87.666664ZM674.6094 86.572914L674.78125 87.65104Q674.2656 87.760414 673.8594 87.760414Q673.1875 87.760414 672.8125 87.55729Q672.4531 87.33854 672.2969 86.99479Q672.15625 86.65104 672.15625 85.541664L672.15625 81.36979L671.25 81.36979L671.25 80.40104L672.15625 80.40104L672.15625 78.604164L673.375 77.86979L673.375 80.40104L674.6094 80.40104L674.6094 81.36979L673.375 81.36979L673.375 85.604164Q673.375 86.135414 673.4375 86.291664Q673.5 86.43229 673.6406 86.52604Q673.7969 86.61979 674.0625 86.61979Q674.28125 86.61979 674.6094 86.572914Z" fill-rule="nonzero"/><path fill="#757575" d="M381.57812 44.484375L383.71875 44.296875Q383.875 45.578125 384.42188 46.40625Q384.98438 47.234375 386.15625 47.75Q387.32812 48.25 388.79688 48.25Q390.09375 48.25 391.09375 47.875Q392.09375 47.484375 392.57812 46.8125Q393.0625 46.125 393.0625 45.328125Q393.0625 44.53125 392.59375 43.921875Q392.125 43.3125 391.04688 42.90625Q390.35938 42.640625 387.98438 42.078125Q385.625 41.5 384.67188 41.0Q383.4375 40.359375 382.82812 39.40625Q382.23438 38.4375 382.23438 37.265625Q382.23438 35.953125 382.96875 34.828125Q383.71875 33.703125 385.125 33.125Q386.54688 32.53125 388.28125 32.53125Q390.1875 32.53125 391.64062 33.140625Q393.10938 33.75 393.89062 34.953125Q394.6875 36.140625 394.73438 37.65625L392.5625 37.828125Q392.39062 36.1875 391.375 35.359375Q390.35938 34.53125 388.375 34.53125Q386.3125 34.53125 385.35938 35.296875Q384.42188 36.046875 384.42188 37.109375Q384.42188 38.03125 385.09375 38.625Q385.75 39.234375 388.51562 39.859375Q391.29688 40.484375 392.32812 40.953125Q393.82812 41.640625 394.53125 42.703125Q395.25 43.765625 395.25 45.140625Q395.25 46.515625 394.46875 47.734375Q393.6875 48.9375 392.21875 49.625Q390.75 50.296875 388.90625 50.296875Q386.57812 50.296875 385.0 49.625Q383.42188 48.9375 382.51562 47.578125Q381.625 46.203125 381.57812 44.484375ZM402.6875 48.109375L403.0 49.96875Q402.10938 50.171875 401.40625 50.171875Q400.25 50.171875 399.60938 49.8125Q398.98438 49.4375 398.71875 48.84375Q398.46875 48.25 398.46875 46.359375L398.46875 39.1875L396.92188 39.1875L396.92188 37.546875L398.46875 37.546875L398.46875 34.46875L400.5625 33.203125L400.5625 37.546875L402.6875 37.546875L402.6875 39.1875L400.5625 39.1875L400.5625 46.46875Q400.5625 47.375 400.67188 47.640625Q400.79688 47.890625 401.04688 48.046875Q401.29688 48.1875 401.76562 48.1875Q402.10938 48.1875 402.6875 48.109375ZM413.20312 48.46875Q412.03125 49.453125 410.9375 49.875Q409.85938 50.28125 408.625 50.28125Q406.57812 50.28125 405.46875 49.28125Q404.375 48.28125 404.375 46.71875Q404.375 45.796875 404.78125 45.046875Q405.20312 44.296875 405.875 43.84375Q406.54688 43.375 407.39062 43.140625Q408.01562 42.984375 409.26562 42.828125Q411.82812 42.515625 413.03125 42.09375Q413.04688 41.671875 413.04688 41.546875Q413.04688 40.265625 412.4375 39.734375Q411.64062 39.015625 410.04688 39.015625Q408.54688 39.015625 407.84375 39.546875Q407.14062 40.0625 406.79688 41.390625L404.73438 41.109375Q405.01562 39.78125 405.65625 38.96875Q406.29688 38.15625 407.51562 37.71875Q408.73438 37.265625 410.34375 37.265625Q411.9375 37.265625 412.9375 37.640625Q413.9375 38.015625 414.40625 38.59375Q414.875 39.15625 415.0625 40.03125Q415.15625 40.5625 415.15625 41.96875L415.15625 44.78125Q415.15625 47.71875 415.29688 48.5Q415.4375 49.28125 415.82812 50.0L413.625 50.0Q413.29688 49.34375 413.20312 48.46875ZM413.03125 43.75Q411.875 44.21875 409.57812 44.546875Q408.28125 44.734375 407.73438 44.96875Q407.20312 45.203125 406.90625 45.65625Q406.625 46.109375 406.625 46.65625Q406.625 47.5 407.25 48.0625Q407.89062 48.625 409.125 48.625Q410.34375 48.625 411.29688 48.09375Q412.25 47.5625 412.6875 46.640625Q413.03125 45.921875 413.03125 44.53125L413.03125 43.75ZM422.6875 48.109375L423.0 49.96875Q422.10938 50.171875 421.40625 50.171875Q420.25 50.171875 419.60938 49.8125Q418.98438 49.4375 418.71875 48.84375Q418.46875 48.25 418.46875 46.359375L418.46875 39.1875L416.92188 39.1875L416.92188 37.546875L418.46875 37.546875L418.46875 34.46875L420.5625 33.203125L420.5625 37.546875L422.6875 37.546875L422.6875 39.1875L420.5625 39.1875L420.5625 46.46875Q420.5625 47.375 420.67188 47.640625Q420.79688 47.890625 421.04688 48.046875Q421.29688 48.1875 421.76562 48.1875Q422.10938 48.1875 422.6875 48.109375ZM425.09375 35.25L425.09375 32.8125L427.20312 32.8125L427.20312 35.25L425.09375 35.25ZM425.09375 50.0L425.09375 37.546875L427.20312 37.546875L427.20312 50.0L425.09375 50.0ZM429.23438 46.28125L431.32812 45.953125Q431.5 47.203125 432.29688 47.875Q433.10938 48.546875 434.54688 48.546875Q436.0 48.546875 436.70312 47.953125Q437.40625 47.359375 437.40625 46.5625Q437.40625 45.84375 436.78125 45.4375Q436.35938 45.15625 434.625 44.71875Q432.3125 44.140625 431.40625 43.71875Q430.51562 43.28125 430.04688 42.53125Q429.59375 41.765625 429.59375 40.859375Q429.59375 40.03125 429.96875 39.328125Q430.35938 38.609375 431.01562 38.140625Q431.5 37.78125 432.34375 37.53125Q433.20312 37.265625 434.17188 37.265625Q435.64062 37.265625 436.75 37.6875Q437.85938 38.109375 438.375 38.84375Q438.90625 39.5625 439.10938 40.765625L437.04688 41.046875Q436.90625 40.078125 436.23438 39.546875Q435.5625 39.0 434.32812 39.0Q432.875 39.0 432.25 39.484375Q431.625 39.96875 431.625 40.609375Q431.625 41.015625 431.89062 41.34375Q432.14062 41.6875 432.70312 41.90625Q433.01562 42.03125 434.5625 42.453125Q436.79688 43.046875 437.67188 43.4375Q438.5625 43.8125 439.0625 44.546875Q439.57812 45.265625 439.57812 46.34375Q439.57812 47.390625 438.95312 48.328125Q438.34375 49.265625 437.1875 49.78125Q436.03125 50.28125 434.5625 50.28125Q432.14062 50.28125 430.85938 49.28125Q429.59375 48.265625 429.23438 46.28125ZM446.6875 48.109375L447.0 49.96875Q446.10938 50.171875 445.40625 50.171875Q444.25 50.171875 443.60938 49.8125Q442.98438 49.4375 442.71875 48.84375Q442.46875 48.25 442.46875 46.359375L442.46875 39.1875L440.92188 39.1875L440.92188 37.546875L442.46875 37.546875L442.46875 34.46875L444.5625 33.203125L444.5625 37.546875L446.6875 37.546875L446.6875 39.1875L444.5625 39.1875L444.5625 46.46875Q444.5625 47.375 444.67188 47.640625Q444.79688 47.890625 445.04688 48.046875Q445.29688 48.1875 445.76562 48.1875Q446.10938 48.1875 446.6875 48.109375ZM449.09375 35.25L449.09375 32.8125L451.20312 32.8125L451.20312 35.25L449.09375 35.25ZM449.09375 50.0L449.09375 37.546875L451.20312 37.546875L451.20312 50.0L449.09375 50.0ZM454.09375 50.0L454.09375 32.8125L456.20312 32.8125L456.20312 42.609375L461.20312 37.546875L463.92188 37.546875L459.17188 42.171875L464.40625 50.0L461.8125 50.0L457.6875 43.640625L456.20312 45.0625L456.20312 50.0L454.09375 50.0ZM485.60938 43.96875L487.89062 44.546875Q487.17188 47.34375 485.3125 48.828125Q483.45312 50.296875 480.76562 50.296875Q478.0 50.296875 476.25 49.171875Q474.51562 48.03125 473.60938 45.890625Q472.70312 43.734375 472.70312 41.28125Q472.70312 38.59375 473.71875 36.59375Q474.75 34.59375 476.64062 33.5625Q478.53125 32.53125 480.8125 32.53125Q483.39062 32.53125 485.14062 33.84375Q486.90625 35.15625 487.59375 37.53125L485.35938 38.0625Q484.75 36.1875 483.60938 35.328125Q482.48438 34.46875 480.76562 34.46875Q478.78125 34.46875 477.45312 35.421875Q476.125 36.375 475.57812 37.96875Q475.04688 39.5625 475.04688 41.265625Q475.04688 43.453125 475.67188 45.09375Q476.3125 46.734375 477.65625 47.546875Q479.01562 48.34375 480.57812 48.34375Q482.5 48.34375 483.8125 47.25Q485.14062 46.140625 485.60938 43.96875ZM490.07812 50.0L490.07812 32.8125L492.1875 32.8125L492.1875 38.984375Q493.67188 37.265625 495.92188 37.265625Q497.29688 37.265625 498.3125 37.8125Q499.34375 38.359375 499.78125 39.328125Q500.21875 40.28125 500.21875 42.109375L500.21875 50.0L498.10938 50.0L498.10938 42.109375Q498.10938 40.53125 497.42188 39.8125Q496.73438 39.09375 495.48438 39.09375Q494.54688 39.09375 493.71875 39.578125Q492.89062 40.0625 492.53125 40.890625Q492.1875 41.71875 492.1875 43.1875L492.1875 50.0L490.07812 50.0ZM504.09375 35.25L504.09375 32.8125L506.20312 32.8125L506.20312 35.25L504.09375 35.25ZM504.09375 50.0L504.09375 37.546875L506.20312 37.546875L506.20312 50.0L504.09375 50.0ZM509.03125 50.0L509.03125 32.8125L511.14062 32.8125L511.14062 50.0L509.03125 50.0ZM515.03125 50.0L515.03125 32.8125L517.1406 32.8125L517.1406 50.0L515.03125 50.0ZM521.09375 35.25L521.09375 32.8125L523.2031 32.8125L523.2031 35.25L521.09375 35.25ZM521.09375 50.0L521.09375 37.546875L523.2031 37.546875L523.2031 50.0L521.09375 50.0Z" fill-rule="nonzero"/></svg>