<svg version="1.1" viewBox="0.0 0.0 906.0 560.0" fill="none" stroke="none" stroke-linecap="square" stroke-miterlimit="10" width="906" height="560" xmlns:xlink="http://www.w3.org/1999/xlink" xmlns="http://www.w3.org/2000/svg"><path fill="#fafafa" d="M0 0L906.0 0L906.0 560.0L0 560.0L0 0Z" fill-rule="nonzero"/><path stroke="#2e2e2e" stroke-width="1.0" stroke-linecap="butt" d="M55.5 512.5L878.5 512.5" fill-rule="nonzero"/><path stroke="#c7c7c7" stroke-width="1.0" stroke-linecap="butt" d="M55.5 413.5L878.5 413.5" fill-rule="nonzero"/><path stroke="#c7c7c7" stroke-width="1.0" stroke-linecap="butt" d="M55.5 314.5L878.5 314.5" fill-rule="nonzero"/><path stroke="#c7c7c7" stroke-width="1.0" stroke-linecap="butt" d="M55.5 215.5L878.5 215.5" fill-rule="nonzero"/><path stroke="#c7c7c7" stroke-width="1.0" stroke-linecap="butt" d="M55.5 116.5L878.5 116.5" fill-rule="nonzero"/><path stroke="#e3e3e3" stroke-width="1.0" stroke-linecap="butt" d="M55.5 479.5L878.5 479.5" fill-rule="nonzero"/><path stroke="#e3e3e3" stroke-width="1.0" stroke-linecap="butt" d="M55.5 446.5L878.5 446.5" fill-rule="nonzero"/><path stroke="#e3e3e3" stroke-width="1.0" stroke-linecap="butt" d="M55.5 380.5L878.5 380.5" fill-rule="nonzero"/><path stroke="#e3e3e3" stroke-width="1.0" stroke-linecap="butt" d="M55.5 347.5L878.5 347.5" fill-rule="nonzero"/><path stroke="#e3e3e3" stroke-width="1.0" stroke-linecap="butt" d="M55.5 281.5L878.5 281.5" fill-rule="nonzero"/><path stroke="#e3e3e3" stroke-width="1.0" stroke-linecap="butt" d="M55.5 248.5L878.5 248.5" fill-rule="nonzero"/><path stroke="#e3e3e3" stroke-width="1.0" stroke-linecap="butt" d="M55.5 182.5L878.5 182.5" fill-rule="nonzero"/><path stroke="#e3e3e3" stroke-width="1.0" stroke-linecap="butt" d="M55.5 149.5L878.5 149.5" fill-rule="nonzero"/><path stroke="#000000" stroke-width="1.0" stroke-linecap="butt" d="M55.5 512.5L55.5 116.5" fill-rule="nonzero"/><clipPath id="id_0"><path d="M55.0 116.333336L878.0 116.333336L878.0 512.0L55.0 512.0L55.0 116.333336Z" clip-rule="nonzero"/></clipPath><path stroke="#f9cb9c" stroke-width="4.0" stroke-linecap="butt" clip-path="url(#id_0)" d="M157.875 512.0L363.625 472.43332L569.375 472.43332L775.125 512.0" fill-rule="nonzero"/><path stroke="#e69138" stroke-width="4.0" stroke-linecap="butt" clip-path="url(#id_0)" d="M157.875 512.0L363.625 294.38333L569.375 254.81667L775.125 512.0" fill-rule="nonzero"/><path stroke="#3aafa9" stroke-width="4.0" stroke-linecap="butt" clip-path="url(#id_0)" d="M157.875 512.0L363.625 512.0L569.375 512.0L775.125 512.0" fill-rule="nonzero"/><path stroke="#2b7a78" stroke-width="4.0" stroke-linecap="butt" clip-path="url(#id_0)" d="M157.875 512.0L363.625 512.0L569.375 512.0L775.125 512.0" fill-rule="nonzero"/><path fill="#f9cb9c" clip-path="url(#id_0)" d="M162.375 512.0C162.375 514.4853 160.36028 516.5 157.875 516.5C155.38972 516.5 153.375 514.4853 153.375 512.0C153.375 509.5147 155.38972 507.5 157.875 507.5C160.36028 507.5 162.375 509.5147 162.375 512.0Z" fill-rule="nonzero"/><path fill="#f9cb9c" clip-path="url(#id_0)" d="M368.125 472.43332C368.125 474.9186 366.1103 476.93332 363.625 476.93332C361.1397 476.93332 359.125 474.9186 359.125 472.43332C359.125 469.94806 361.1397 467.93332 363.625 467.93332C366.1103 467.93332 368.125 469.94806 368.125 472.43332Z" fill-rule="nonzero"/><path fill="#f9cb9c" clip-path="url(#id_0)" d="M573.875 472.43332C573.875 474.9186 571.8603 476.93332 569.375 476.93332C566.8897 476.93332 564.875 474.9186 564.875 472.43332C564.875 469.94806 566.8897 467.93332 569.375 467.93332C571.8603 467.93332 573.875 469.94806 573.875 472.43332Z" fill-rule="nonzero"/><path fill="#f9cb9c" clip-path="url(#id_0)" d="M779.625 512.0C779.625 514.4853 777.6103 516.5 775.125 516.5C772.6397 516.5 770.625 514.4853 770.625 512.0C770.625 509.5147 772.6397 507.5 775.125 507.5C777.6103 507.5 779.625 509.5147 779.625 512.0Z" fill-rule="nonzero"/><path fill="#e69138" clip-path="url(#id_0)" d="M162.375 512.0C162.375 514.4853 160.36028 516.5 157.875 516.5C155.38972 516.5 153.375 514.4853 153.375 512.0C153.375 509.5147 155.38972 507.5 157.875 507.5C160.36028 507.5 162.375 509.5147 162.375 512.0Z" fill-rule="nonzero"/><path fill="#e69138" clip-path="url(#id_0)" d="M368.125 294.38333C368.125 296.86862 366.1103 298.88333 363.625 298.88333C361.1397 298.88333 359.125 296.86862 359.125 294.38333C359.125 291.89804 361.1397 289.88333 363.625 289.88333C366.1103 289.88333 368.125 291.89804 368.125 294.38333Z" fill-rule="nonzero"/><path fill="#e69138" clip-path="url(#id_0)" d="M573.875 254.81667C573.875 257.30194 571.8603 259.31668 569.375 259.31668C566.8897 259.31668 564.875 257.30194 564.875 254.81667C564.875 252.33139 566.8897 250.31667 569.375 250.31667C571.8603 250.31667 573.875 252.33139 573.875 254.81667Z" fill-rule="nonzero"/><path fill="#e69138" clip-path="url(#id_0)" d="M779.625 512.0C779.625 514.4853 777.6103 516.5 775.125 516.5C772.6397 516.5 770.625 514.4853 770.625 512.0C770.625 509.5147 772.6397 507.5 775.125 507.5C777.6103 507.5 779.625 509.5147 779.625 512.0Z" fill-rule="nonzero"/><path fill="#3aafa9" clip-path="url(#id_0)" d="M162.375 512.0C162.375 514.4853 160.36028 516.5 157.875 516.5C155.38972 516.5 153.375 514.4853 153.375 512.0C153.375 509.5147 155.38972 507.5 157.875 507.5C160.36028 507.5 162.375 509.5147 162.375 512.0Z" fill-rule="nonzero"/><path fill="#3aafa9" clip-path="url(#id_0)" d="M368.125 512.0C368.125 514.4853 366.1103 516.5 363.625 516.5C361.1397 516.5 359.125 514.4853 359.125 512.0C359.125 509.5147 361.1397 507.5 363.625 507.5C366.1103 507.5 368.125 509.5147 368.125 512.0Z" fill-rule="nonzero"/><path fill="#3aafa9" clip-path="url(#id_0)" d="M573.875 512.0C573.875 514.4853 571.8603 516.5 569.375 516.5C566.8897 516.5 564.875 514.4853 564.875 512.0C564.875 509.5147 566.8897 507.5 569.375 507.5C571.8603 507.5 573.875 509.5147 573.875 512.0Z" fill-rule="nonzero"/><path fill="#3aafa9" clip-path="url(#id_0)" d="M779.625 512.0C779.625 514.4853 777.6103 516.5 775.125 516.5C772.6397 516.5 770.625 514.4853 770.625 512.0C770.625 509.5147 772.6397 507.5 775.125 507.5C777.6103 507.5 779.625 509.5147 779.625 512.0Z" fill-rule="nonzero"/><path fill="#2b7a78" clip-path="url(#id_0)" d="M162.375 512.0C162.375 514.4853 160.36028 516.5 157.875 516.5C155.38972 516.5 153.375 514.4853 153.375 512.0C153.375 509.5147 155.38972 507.5 157.875 507.5C160.36028 507.5 162.375 509.5147 162.375 512.0Z" fill-rule="nonzero"/><path fill="#2b7a78" clip-path="url(#id_0)" d="M368.125 512.0C368.125 514.4853 366.1103 516.5 363.625 516.5C361.1397 516.5 359.125 514.4853 359.125 512.0C359.125 509.5147 361.1397 507.5 363.625 507.5C366.1103 507.5 368.125 509.5147 368.125 512.0Z" fill-rule="nonzero"/><path fill="#2b7a78" clip-path="url(#id_0)" d="M573.875 512.0C573.875 514.4853 571.8603 516.5 569.375 516.5C566.8897 516.5 564.875 514.4853 564.875 512.0C564.875 509.5147 566.8897 507.5 569.375 507.5C571.8603 507.5 573.875 509.5147 573.875 512.0Z" fill-rule="nonzero"/><path fill="#2b7a78" clip-path="url(#id_0)" d="M779.625 512.0C779.625 514.4853 777.6103 516.5 775.125 516.5C772.6397 516.5 770.625 514.4853 770.625 512.0C770.625 509.5147 772.6397 507.5 775.125 507.5C777.6103 507.5 779.625 509.5147 779.625 512.0Z" fill-rule="nonzero"/><path fill="#000000" d="M42.5 511.76562Q42.5 510.23438 42.8125 509.3125Q43.125 508.375 43.734375 507.875Q44.359375 507.375 45.296875 507.375Q45.984375 507.375 46.5 507.65625Q47.03125 507.9375 47.375 508.46875Q47.71875 508.98438 47.90625 509.73438Q48.09375 510.48438 48.09375 511.76562Q48.09375 513.28125 47.78125 514.2031Q47.484375 515.125 46.859375 515.6406Q46.25 516.1406 45.296875 516.1406Q44.0625 516.1406 43.34375 515.25Q42.5 514.1875 42.5 511.76562ZM43.578125 511.76562Q43.578125 513.875 44.078125 514.5781Q44.578125 515.28125 45.296875 515.28125Q46.03125 515.28125 46.515625 514.5781Q47.015625 513.875 47.015625 511.76562Q47.015625 509.64062 46.515625 508.95312Q46.03125 508.25 45.28125 508.25Q44.5625 508.25 44.125 508.85938Q43.578125 509.64062 43.578125 511.76562Z" fill-rule="nonzero"/><path fill="#000000" d="M42.5 414.83334L43.609375 414.7396Q43.734375 415.5521 44.171875 415.95834Q44.625 416.3646 45.265625 416.3646Q46.015625 416.3646 46.546875 415.78647Q47.078125 415.20834 47.078125 414.27084Q47.078125 413.3646 46.5625 412.84897Q46.0625 412.31772 45.234375 412.31772Q44.734375 412.31772 44.3125 412.5521Q43.90625 412.78647 43.671875 413.14584L42.6875 413.02084L43.515625 408.6146L47.796875 408.6146L47.796875 409.6146L44.359375 409.6146L43.90625 411.9271Q44.671875 411.38022 45.515625 411.38022Q46.640625 411.38022 47.40625 412.16147Q48.1875 412.94272 48.1875 414.1771Q48.1875 415.33334 47.515625 416.19272Q46.6875 417.22397 45.265625 417.22397Q44.09375 417.22397 43.34375 416.56772Q42.609375 415.91147 42.5 414.83334Z" fill-rule="nonzero"/><path fill="#000000" d="M39.46875 318.16666L38.421875 318.16666L38.421875 311.4479Q38.03125 311.80728 37.40625 312.18228Q36.796875 312.54166 36.3125 312.71353L36.3125 311.6979Q37.1875 311.27603 37.84375 310.6979Q38.515625 310.10416 38.796875 309.54166L39.46875 309.54166L39.46875 318.16666ZM42.5 313.93228Q42.5 312.40103 42.8125 311.47916Q43.125 310.54166 43.734375 310.04166Q44.359375 309.54166 45.296875 309.54166Q45.984375 309.54166 46.5 309.8229Q47.03125 310.10416 47.375 310.6354Q47.71875 311.15103 47.90625 311.90103Q48.09375 312.65103 48.09375 313.93228Q48.09375 315.4479 47.78125 316.36978Q47.484375 317.29166 46.859375 317.80728Q46.25 318.30728 45.296875 318.30728Q44.0625 318.30728 43.34375 317.41666Q42.5 316.35416 42.5 313.93228ZM43.578125 313.93228Q43.578125 316.04166 44.078125 316.74478Q44.578125 317.4479 45.296875 317.4479Q46.03125 317.4479 46.515625 316.74478Q47.015625 316.04166 47.015625 313.93228Q47.015625 311.80728 46.515625 311.11978Q46.03125 310.41666 45.28125 310.41666Q44.5625 310.41666 44.125 311.02603Q43.578125 311.80728 43.578125 313.93228Z" fill-rule="nonzero"/><path fill="#000000" d="M39.46875 219.25L38.421875 219.25L38.421875 212.53125Q38.03125 212.89062 37.40625 213.26562Q36.796875 213.625 36.3125 213.79688L36.3125 212.78125Q37.1875 212.35938 37.84375 211.78125Q38.515625 211.1875 38.796875 210.625L39.46875 210.625L39.46875 219.25ZM42.5 217.0L43.609375 216.90625Q43.734375 217.71875 44.171875 218.125Q44.625 218.53125 45.265625 218.53125Q46.015625 218.53125 46.546875 217.95312Q47.078125 217.375 47.078125 216.4375Q47.078125 215.53125 46.5625 215.01562Q46.0625 214.48438 45.234375 214.48438Q44.734375 214.48438 44.3125 214.71875Q43.90625 214.95312 43.671875 215.3125L42.6875 215.1875L43.515625 210.78125L47.796875 210.78125L47.796875 211.78125L44.359375 211.78125L43.90625 214.09375Q44.671875 213.54688 45.515625 213.54688Q46.640625 213.54688 47.40625 214.32812Q48.1875 215.10938 48.1875 216.34375Q48.1875 217.5 47.515625 218.35938Q46.6875 219.39062 45.265625 219.39062Q44.09375 219.39062 43.34375 218.73438Q42.609375 218.07812 42.5 217.0Z" fill-rule="nonzero"/><path fill="#000000" d="M41.046875 119.31771L41.046875 120.333336L35.359375 120.333336Q35.359375 119.958336 35.484375 119.59896Q35.703125 119.020836 36.171875 118.458336Q36.65625 117.895836 37.5625 117.16146Q38.96875 116.00521 39.453125 115.333336Q39.953125 114.66146 39.953125 114.06771Q39.953125 113.44271 39.5 113.020836Q39.046875 112.583336 38.328125 112.583336Q37.5625 112.583336 37.109375 113.03646Q36.65625 113.489586 36.640625 114.302086L35.5625 114.19271Q35.671875 112.97396 36.390625 112.34896Q37.125 111.708336 38.359375 111.708336Q39.59375 111.708336 40.3125 112.395836Q41.03125 113.083336 41.03125 114.09896Q41.03125 114.614586 40.8125 115.114586Q40.609375 115.59896 40.109375 116.16146Q39.625 116.708336 38.5 117.66146Q37.546875 118.458336 37.265625 118.75521Q37.0 119.03646 36.828125 119.31771L41.046875 119.31771ZM42.5 116.09896Q42.5 114.56771 42.8125 113.645836Q43.125 112.708336 43.734375 112.208336Q44.359375 111.708336 45.296875 111.708336Q45.984375 111.708336 46.5 111.989586Q47.03125 112.270836 47.375 112.802086Q47.71875 113.31771 47.90625 114.06771Q48.09375 114.81771 48.09375 116.09896Q48.09375 117.614586 47.78125 118.53646Q47.484375 119.458336 46.859375 119.97396Q46.25 120.47396 45.296875 120.47396Q44.0625 120.47396 43.34375 119.583336Q42.5 118.520836 42.5 116.09896ZM43.578125 116.09896Q43.578125 118.208336 44.078125 118.91146Q44.578125 119.614586 45.296875 119.614586Q46.03125 119.614586 46.515625 118.91146Q47.015625 118.208336 47.015625 116.09896Q47.015625 113.97396 46.515625 113.28646Q46.03125 112.583336 45.28125 112.583336Q44.5625 112.583336 44.125 113.19271Q43.578125 113.97396 43.578125 116.09896Z" fill-rule="nonzero"/><path fill="#000000" d="M147.20312 529.0L147.20312 528.21875Q146.60938 529.1406 145.46875 529.1406Q144.71875 529.1406 144.09375 528.7344Q143.46875 528.3125 143.125 527.5781Q142.78125 526.84375 142.78125 525.8906Q142.78125 524.96875 143.09375 524.2031Q143.40625 523.4375 144.03125 523.0469Q144.65625 522.6406 145.42188 522.6406Q145.98438 522.6406 146.42188 522.875Q146.85938 523.1094 147.14062 523.4844L147.14062 520.40625L148.1875 520.40625L148.1875 529.0L147.20312 529.0ZM143.875 525.8906Q143.875 527.09375 144.375 527.6875Q144.875 528.2656 145.5625 528.2656Q146.25 528.2656 146.73438 527.7031Q147.21875 527.1406 147.21875 525.9844Q147.21875 524.7031 146.71875 524.1094Q146.23438 523.5156 145.51562 523.5156Q144.8125 523.5156 144.34375 524.09375Q143.875 524.65625 143.875 525.8906ZM154.23438 528.2344Q153.64062 528.7344 153.09375 528.9375Q152.5625 529.1406 151.9375 529.1406Q150.90625 529.1406 150.35938 528.6406Q149.8125 528.1406 149.8125 527.3594Q149.8125 526.90625 150.01562 526.53125Q150.21875 526.1406 150.5625 525.9219Q150.90625 525.6875 151.32812 525.5781Q151.625 525.4844 152.26562 525.40625Q153.53125 525.2656 154.14062 525.0469Q154.14062 524.8281 154.14062 524.78125Q154.14062 524.125 153.84375 523.8594Q153.4375 523.5156 152.64062 523.5156Q151.90625 523.5156 151.54688 523.78125Q151.1875 524.03125 151.01562 524.6875L149.98438 524.5469Q150.125 523.8906 150.45312 523.4844Q150.78125 523.0781 151.39062 522.8594Q152.0 522.6406 152.79688 522.6406Q153.59375 522.6406 154.09375 522.8281Q154.59375 523.0156 154.82812 523.2969Q155.0625 523.5781 155.15625 524.0156Q155.20312 524.28125 155.20312 524.9844L155.20312 526.3906Q155.20312 527.8594 155.26562 528.25Q155.34375 528.6406 155.54688 529.0L154.4375 529.0Q154.28125 528.6719 154.23438 528.2344ZM154.14062 525.875Q153.5625 526.1094 152.42188 526.28125Q151.76562 526.375 151.5 526.5Q151.23438 526.6094 151.07812 526.8281Q150.9375 527.0469 150.9375 527.3281Q150.9375 527.75 151.25 528.03125Q151.57812 528.3125 152.1875 528.3125Q152.79688 528.3125 153.26562 528.0469Q153.75 527.78125 153.96875 527.3125Q154.14062 526.9531 154.14062 526.2656L154.14062 525.875ZM156.96875 529.5156L158.0 529.6719Q158.0625 530.1406 158.35938 530.3594Q158.75 530.65625 159.42188 530.65625Q160.15625 530.65625 160.54688 530.3594Q160.95312 530.0625 161.09375 529.5469Q161.1875 529.21875 161.17188 528.1875Q160.48438 529.0 159.45312 529.0Q158.17188 529.0 157.46875 528.0781Q156.76562 527.1406 156.76562 525.8594Q156.76562 524.96875 157.07812 524.21875Q157.40625 523.4531 158.01562 523.0469Q158.625 522.6406 159.45312 522.6406Q160.5625 522.6406 161.28125 523.53125L161.28125 522.78125L162.25 522.78125L162.25 528.15625Q162.25 529.6094 161.95312 530.21875Q161.65625 530.8281 161.01562 531.1719Q160.375 531.53125 159.4375 531.53125Q158.32812 531.53125 157.64062 531.03125Q156.95312 530.53125 156.96875 529.5156ZM157.84375 525.78125Q157.84375 527.0 158.32812 527.5625Q158.8125 528.125 159.54688 528.125Q160.28125 528.125 160.76562 527.5625Q161.26562 527.0 161.26562 525.8125Q161.26562 524.6719 160.75 524.09375Q160.25 523.5156 159.53125 523.5156Q158.82812 523.5156 158.32812 524.09375Q157.84375 524.65625 157.84375 525.78125ZM166.875 524.7656Q166.875 523.2344 167.1875 522.3125Q167.5 521.375 168.10938 520.875Q168.73438 520.375 169.67188 520.375Q170.35938 520.375 170.875 520.65625Q171.40625 520.9375 171.75 521.46875Q172.09375 521.9844 172.28125 522.7344Q172.46875 523.4844 172.46875 524.7656Q172.46875 526.28125 172.15625 527.2031Q171.85938 528.125 171.23438 528.6406Q170.625 529.1406 169.67188 529.1406Q168.4375 529.1406 167.71875 528.25Q166.875 527.1875 166.875 524.7656ZM167.95312 524.7656Q167.95312 526.875 168.45312 527.5781Q168.95312 528.28125 169.67188 528.28125Q170.40625 528.28125 170.89062 527.5781Q171.39062 526.875 171.39062 524.7656Q171.39062 522.6406 170.89062 521.9531Q170.40625 521.25 169.65625 521.25Q168.9375 521.25 168.5 521.8594Q167.95312 522.6406 167.95312 524.7656Z" fill-rule="nonzero"/><path fill="#000000" d="M352.95312 529.0L352.95312 528.21875Q352.35938 529.1406 351.21875 529.1406Q350.46875 529.1406 349.84375 528.7344Q349.21875 528.3125 348.875 527.5781Q348.53125 526.84375 348.53125 525.8906Q348.53125 524.96875 348.84375 524.2031Q349.15625 523.4375 349.78125 523.0469Q350.40625 522.6406 351.17188 522.6406Q351.73438 522.6406 352.17188 522.875Q352.60938 523.1094 352.89062 523.4844L352.89062 520.40625L353.9375 520.40625L353.9375 529.0L352.95312 529.0ZM349.625 525.8906Q349.625 527.09375 350.125 527.6875Q350.625 528.2656 351.3125 528.2656Q352.0 528.2656 352.48438 527.7031Q352.96875 527.1406 352.96875 525.9844Q352.96875 524.7031 352.46875 524.1094Q351.98438 523.5156 351.26562 523.5156Q350.5625 523.5156 350.09375 524.09375Q349.625 524.65625 349.625 525.8906ZM359.98438 528.2344Q359.39062 528.7344 358.84375 528.9375Q358.3125 529.1406 357.6875 529.1406Q356.65625 529.1406 356.10938 528.6406Q355.5625 528.1406 355.5625 527.3594Q355.5625 526.90625 355.76562 526.53125Q355.96875 526.1406 356.3125 525.9219Q356.65625 525.6875 357.07812 525.5781Q357.375 525.4844 358.01562 525.40625Q359.28125 525.2656 359.89062 525.0469Q359.89062 524.8281 359.89062 524.78125Q359.89062 524.125 359.59375 523.8594Q359.1875 523.5156 358.39062 523.5156Q357.65625 523.5156 357.29688 523.78125Q356.9375 524.03125 356.76562 524.6875L355.73438 524.5469Q355.875 523.8906 356.20312 523.4844Q356.53125 523.0781 357.14062 522.8594Q357.75 522.6406 358.54688 522.6406Q359.34375 522.6406 359.84375 522.8281Q360.34375 523.0156 360.57812 523.2969Q360.8125 523.5781 360.90625 524.0156Q360.95312 524.28125 360.95312 524.9844L360.95312 526.3906Q360.95312 527.8594 361.01562 528.25Q361.09375 528.6406 361.29688 529.0L360.1875 529.0Q360.03125 528.6719 359.98438 528.2344ZM359.89062 525.875Q359.3125 526.1094 358.17188 526.28125Q357.51562 526.375 357.25 526.5Q356.98438 526.6094 356.82812 526.8281Q356.6875 527.0469 356.6875 527.3281Q356.6875 527.75 357.0 528.03125Q357.32812 528.3125 357.9375 528.3125Q358.54688 528.3125 359.01562 528.0469Q359.5 527.78125 359.71875 527.3125Q359.89062 526.9531 359.89062 526.2656L359.89062 525.875ZM362.71875 529.5156L363.75 529.6719Q363.8125 530.1406 364.10938 530.3594Q364.5 530.65625 365.17188 530.65625Q365.90625 530.65625 366.29688 530.3594Q366.70312 530.0625 366.84375 529.5469Q366.9375 529.21875 366.92188 528.1875Q366.23438 529.0 365.20312 529.0Q363.92188 529.0 363.21875 528.0781Q362.51562 527.1406 362.51562 525.8594Q362.51562 524.96875 362.82812 524.21875Q363.15625 523.4531 363.76562 523.0469Q364.375 522.6406 365.20312 522.6406Q366.3125 522.6406 367.03125 523.53125L367.03125 522.78125L368.0 522.78125L368.0 528.15625Q368.0 529.6094 367.70312 530.21875Q367.40625 530.8281 366.76562 531.1719Q366.125 531.53125 365.1875 531.53125Q364.07812 531.53125 363.39062 531.03125Q362.70312 530.53125 362.71875 529.5156ZM363.59375 525.78125Q363.59375 527.0 364.07812 527.5625Q364.5625 528.125 365.29688 528.125Q366.03125 528.125 366.51562 527.5625Q367.01562 527.0 367.01562 525.8125Q367.01562 524.6719 366.5 524.09375Q366.0 523.5156 365.28125 523.5156Q364.57812 523.5156 364.07812 524.09375Q363.59375 524.65625 363.59375 525.78125ZM376.59375 529.0L375.54688 529.0L375.54688 522.28125Q375.15625 522.6406 374.53125 523.0156Q373.92188 523.375 373.4375 523.5469L373.4375 522.53125Q374.3125 522.1094 374.96875 521.53125Q375.64062 520.9375 375.92188 520.375L376.59375 520.375L376.59375 529.0Z" fill-rule="nonzero"/><path fill="#000000" d="M558.7031 529.0L558.7031 528.21875Q558.1094 529.1406 556.96875 529.1406Q556.21875 529.1406 555.59375 528.7344Q554.96875 528.3125 554.625 527.5781Q554.28125 526.84375 554.28125 525.8906Q554.28125 524.96875 554.59375 524.2031Q554.90625 523.4375 555.53125 523.0469Q556.15625 522.6406 556.9219 522.6406Q557.4844 522.6406 557.9219 522.875Q558.3594 523.1094 558.6406 523.4844L558.6406 520.40625L559.6875 520.40625L559.6875 529.0L558.7031 529.0ZM555.375 525.8906Q555.375 527.09375 555.875 527.6875Q556.375 528.2656 557.0625 528.2656Q557.75 528.2656 558.2344 527.7031Q558.71875 527.1406 558.71875 525.9844Q558.71875 524.7031 558.21875 524.1094Q557.7344 523.5156 557.0156 523.5156Q556.3125 523.5156 555.84375 524.09375Q555.375 524.65625 555.375 525.8906ZM565.7344 528.2344Q565.1406 528.7344 564.59375 528.9375Q564.0625 529.1406 563.4375 529.1406Q562.40625 529.1406 561.8594 528.6406Q561.3125 528.1406 561.3125 527.3594Q561.3125 526.90625 561.5156 526.53125Q561.71875 526.1406 562.0625 525.9219Q562.40625 525.6875 562.8281 525.5781Q563.125 525.4844 563.7656 525.40625Q565.03125 525.2656 565.6406 525.0469Q565.6406 524.8281 565.6406 524.78125Q565.6406 524.125 565.34375 523.8594Q564.9375 523.5156 564.1406 523.5156Q563.40625 523.5156 563.0469 523.78125Q562.6875 524.03125 562.5156 524.6875L561.4844 524.5469Q561.625 523.8906 561.9531 523.4844Q562.28125 523.0781 562.8906 522.8594Q563.5 522.6406 564.2969 522.6406Q565.09375 522.6406 565.59375 522.8281Q566.09375 523.0156 566.3281 523.2969Q566.5625 523.5781 566.65625 524.0156Q566.7031 524.28125 566.7031 524.9844L566.7031 526.3906Q566.7031 527.8594 566.7656 528.25Q566.84375 528.6406 567.0469 529.0L565.9375 529.0Q565.78125 528.6719 565.7344 528.2344ZM565.6406 525.875Q565.0625 526.1094 563.9219 526.28125Q563.2656 526.375 563.0 526.5Q562.7344 526.6094 562.5781 526.8281Q562.4375 527.0469 562.4375 527.3281Q562.4375 527.75 562.75 528.03125Q563.0781 528.3125 563.6875 528.3125Q564.2969 528.3125 564.7656 528.0469Q565.25 527.78125 565.46875 527.3125Q565.6406 526.9531 565.6406 526.2656L565.6406 525.875ZM568.46875 529.5156L569.5 529.6719Q569.5625 530.1406 569.8594 530.3594Q570.25 530.65625 570.9219 530.65625Q571.65625 530.65625 572.0469 530.3594Q572.4531 530.0625 572.59375 529.5469Q572.6875 529.21875 572.6719 528.1875Q571.9844 529.0 570.9531 529.0Q569.6719 529.0 568.96875 528.0781Q568.2656 527.1406 568.2656 525.8594Q568.2656 524.96875 568.5781 524.21875Q568.90625 523.4531 569.5156 523.0469Q570.125 522.6406 570.9531 522.6406Q572.0625 522.6406 572.78125 523.53125L572.78125 522.78125L573.75 522.78125L573.75 528.15625Q573.75 529.6094 573.4531 530.21875Q573.15625 530.8281 572.5156 531.1719Q571.875 531.53125 570.9375 531.53125Q569.8281 531.53125 569.1406 531.03125Q568.4531 530.53125 568.46875 529.5156ZM569.34375 525.78125Q569.34375 527.0 569.8281 527.5625Q570.3125 528.125 571.0469 528.125Q571.78125 528.125 572.2656 527.5625Q572.7656 527.0 572.7656 525.8125Q572.7656 524.6719 572.25 524.09375Q571.75 523.5156 571.03125 523.5156Q570.3281 523.5156 569.8281 524.09375Q569.34375 524.65625 569.34375 525.78125ZM578.375 526.7344L579.4375 526.59375Q579.6094 527.4844 580.0469 527.8906Q580.4844 528.28125 581.1094 528.28125Q581.8594 528.28125 582.375 527.7656Q582.8906 527.25 582.8906 526.4844Q582.8906 525.7656 582.40625 525.2969Q581.9375 524.8125 581.2031 524.8125Q580.90625 524.8125 580.4531 524.9375L580.5781 524.0Q580.6875 524.0156 580.75 524.0156Q581.4219 524.0156 581.9531 523.6719Q582.5 523.3125 582.5 522.5781Q582.5 522.0 582.1094 521.625Q581.71875 521.2344 581.09375 521.2344Q580.4844 521.2344 580.0625 521.625Q579.65625 522.0156 579.5469 522.78125L578.4844 522.59375Q578.6719 521.5469 579.3594 520.96875Q580.0469 520.375 581.0625 520.375Q581.7656 520.375 582.3594 520.6875Q582.9531 520.9844 583.2656 521.5Q583.5781 522.0156 583.5781 522.6094Q583.5781 523.15625 583.28125 523.625Q582.9844 524.0781 582.40625 524.34375Q583.15625 524.5156 583.5781 525.0781Q584.0 525.625 584.0 526.46875Q584.0 527.59375 583.1719 528.375Q582.3594 529.15625 581.1094 529.15625Q579.9844 529.15625 579.2344 528.4844Q578.4844 527.7969 578.375 526.7344Z" fill-rule="nonzero"/><path fill="#000000" d="M749.9531 529.0L749.9531 528.21875Q749.3594 529.1406 748.21875 529.1406Q747.46875 529.1406 746.84375 528.7344Q746.21875 528.3125 745.875 527.5781Q745.53125 526.84375 745.53125 525.8906Q745.53125 524.96875 745.84375 524.2031Q746.15625 523.4375 746.78125 523.0469Q747.40625 522.6406 748.1719 522.6406Q748.7344 522.6406 749.1719 522.875Q749.6094 523.1094 749.8906 523.4844L749.8906 520.40625L750.9375 520.40625L750.9375 529.0L749.9531 529.0ZM746.625 525.8906Q746.625 527.09375 747.125 527.6875Q747.625 528.2656 748.3125 528.2656Q749.0 528.2656 749.4844 527.7031Q749.96875 527.1406 749.96875 525.9844Q749.96875 524.7031 749.46875 524.1094Q748.9844 523.5156 748.2656 523.5156Q747.5625 523.5156 747.09375 524.09375Q746.625 524.65625 746.625 525.8906ZM756.9844 528.2344Q756.3906 528.7344 755.84375 528.9375Q755.3125 529.1406 754.6875 529.1406Q753.65625 529.1406 753.1094 528.6406Q752.5625 528.1406 752.5625 527.3594Q752.5625 526.90625 752.7656 526.53125Q752.96875 526.1406 753.3125 525.9219Q753.65625 525.6875 754.0781 525.5781Q754.375 525.4844 755.0156 525.40625Q756.28125 525.2656 756.8906 525.0469Q756.8906 524.8281 756.8906 524.78125Q756.8906 524.125 756.59375 523.8594Q756.1875 523.5156 755.3906 523.5156Q754.65625 523.5156 754.2969 523.78125Q753.9375 524.03125 753.7656 524.6875L752.7344 524.5469Q752.875 523.8906 753.2031 523.4844Q753.53125 523.0781 754.1406 522.8594Q754.75 522.6406 755.5469 522.6406Q756.34375 522.6406 756.84375 522.8281Q757.34375 523.0156 757.5781 523.2969Q757.8125 523.5781 757.90625 524.0156Q757.9531 524.28125 757.9531 524.9844L757.9531 526.3906Q757.9531 527.8594 758.0156 528.25Q758.09375 528.6406 758.2969 529.0L757.1875 529.0Q757.03125 528.6719 756.9844 528.2344ZM756.8906 525.875Q756.3125 526.1094 755.1719 526.28125Q754.5156 526.375 754.25 526.5Q753.9844 526.6094 753.8281 526.8281Q753.6875 527.0469 753.6875 527.3281Q753.6875 527.75 754.0 528.03125Q754.3281 528.3125 754.9375 528.3125Q755.5469 528.3125 756.0156 528.0469Q756.5 527.78125 756.71875 527.3125Q756.8906 526.9531 756.8906 526.2656L756.8906 525.875ZM759.71875 529.5156L760.75 529.6719Q760.8125 530.1406 761.1094 530.3594Q761.5 530.65625 762.1719 530.65625Q762.90625 530.65625 763.2969 530.3594Q763.7031 530.0625 763.84375 529.5469Q763.9375 529.21875 763.9219 528.1875Q763.2344 529.0 762.2031 529.0Q760.9219 529.0 760.21875 528.0781Q759.5156 527.1406 759.5156 525.8594Q759.5156 524.96875 759.8281 524.21875Q760.15625 523.4531 760.7656 523.0469Q761.375 522.6406 762.2031 522.6406Q763.3125 522.6406 764.03125 523.53125L764.03125 522.78125L765.0 522.78125L765.0 528.15625Q765.0 529.6094 764.7031 530.21875Q764.40625 530.8281 763.7656 531.1719Q763.125 531.53125 762.1875 531.53125Q761.0781 531.53125 760.3906 531.03125Q759.7031 530.53125 759.71875 529.5156ZM760.59375 525.78125Q760.59375 527.0 761.0781 527.5625Q761.5625 528.125 762.2969 528.125Q763.03125 528.125 763.5156 527.5625Q764.0156 527.0 764.0156 525.8125Q764.0156 524.6719 763.5 524.09375Q763.0 523.5156 762.28125 523.5156Q761.5781 523.5156 761.0781 524.09375Q760.59375 524.65625 760.59375 525.78125ZM771.25 524.34375Q770.59375 524.09375 770.2656 523.65625Q769.9531 523.2031 769.9531 522.59375Q769.9531 521.65625 770.625 521.0156Q771.3125 520.375 772.4219 520.375Q773.5469 520.375 774.2344 521.03125Q774.9219 521.6875 774.9219 522.625Q774.9219 523.21875 774.6094 523.65625Q774.2969 524.09375 773.65625 524.34375Q774.4531 524.59375 774.8594 525.1719Q775.2656 525.75 775.2656 526.5469Q775.2656 527.6406 774.4844 528.3906Q773.71875 529.1406 772.4375 529.1406Q771.1719 529.1406 770.3906 528.3906Q769.6094 527.6406 769.6094 526.5156Q769.6094 525.6719 770.03125 525.1094Q770.46875 524.5469 771.25 524.34375ZM771.03125 522.5469Q771.03125 523.15625 771.4219 523.5469Q771.8281 523.9375 772.4531 523.9375Q773.0625 523.9375 773.4531 523.5625Q773.84375 523.1719 773.84375 522.6094Q773.84375 522.03125 773.4375 521.6406Q773.03125 521.2344 772.4375 521.2344Q771.8281 521.2344 771.4219 521.625Q771.03125 522.0156 771.03125 522.5469ZM770.7031 526.5156Q770.7031 526.96875 770.90625 527.3906Q771.125 527.8125 771.5469 528.0469Q771.96875 528.28125 772.4531 528.28125Q773.2031 528.28125 773.6875 527.7969Q774.1875 527.3125 774.1875 526.5625Q774.1875 525.7969 773.6875 525.2969Q773.1875 524.7969 772.4219 524.7969Q771.6719 524.7969 771.1875 525.2969Q770.7031 525.78125 770.7031 526.5156ZM777.2031 523.9844L777.2031 522.78125L778.40625 522.78125L778.40625 523.9844L777.2031 523.9844ZM777.2031 529.0L777.2031 527.7969L778.40625 527.7969L778.40625 529.0L777.2031 529.0ZM783.0469 529.0L783.0469 520.40625L786.0156 520.40625Q787.0156 520.40625 787.5469 520.53125Q788.28125 520.7031 788.7969 521.1406Q789.4844 521.71875 789.8125 522.625Q790.15625 523.5156 790.15625 524.65625Q790.15625 525.6406 789.9219 526.3906Q789.7031 527.1406 789.34375 527.6406Q788.9844 528.1406 788.5469 528.4219Q788.125 528.7031 787.53125 528.8594Q786.9375 529.0 786.15625 529.0L783.0469 529.0ZM784.1875 527.9844L786.0156 527.9844Q786.875 527.9844 787.3594 527.8281Q787.84375 527.6719 788.125 527.375Q788.53125 526.9844 788.75 526.2969Q788.9844 525.6094 788.9844 524.6406Q788.9844 523.2969 788.53125 522.5781Q788.09375 521.84375 787.46875 521.59375Q787.0 521.4219 786.0 521.4219L784.1875 521.4219L784.1875 527.9844ZM791.53125 525.8906Q791.53125 524.15625 792.4844 523.3281Q793.28125 522.6406 794.4375 522.6406Q795.71875 522.6406 796.53125 523.4844Q797.3594 524.3125 797.3594 525.7969Q797.3594 527.0 797.0 527.6875Q796.6406 528.375 795.9375 528.7656Q795.25 529.1406 794.4375 529.1406Q793.1406 529.1406 792.3281 528.3125Q791.53125 527.46875 791.53125 525.8906ZM792.6094 525.8906Q792.6094 527.0781 793.125 527.6719Q793.65625 528.2656 794.4375 528.2656Q795.2344 528.2656 795.75 527.6719Q796.2656 527.0781 796.2656 525.8594Q796.2656 524.7031 795.7344 524.1094Q795.21875 523.5156 794.4375 523.5156Q793.65625 523.5156 793.125 524.1094Q792.6094 524.6875 792.6094 525.8906ZM792.7969 521.5625L792.7969 520.3594L793.8906 520.3594L793.8906 521.5625L792.7969 521.5625ZM794.9844 521.5625L794.9844 520.3594L796.0781 520.3594L796.0781 521.5625L794.9844 521.5625ZM802.9531 529.0L802.9531 528.21875Q802.3594 529.1406 801.21875 529.1406Q800.46875 529.1406 799.84375 528.7344Q799.21875 528.3125 798.875 527.5781Q798.53125 526.84375 798.53125 525.8906Q798.53125 524.96875 798.84375 524.2031Q799.15625 523.4375 799.78125 523.0469Q800.40625 522.6406 801.1719 522.6406Q801.7344 522.6406 802.1719 522.875Q802.6094 523.1094 802.8906 523.4844L802.8906 520.40625L803.9375 520.40625L803.9375 529.0L802.9531 529.0ZM799.625 525.8906Q799.625 527.09375 800.125 527.6875Q800.625 528.2656 801.3125 528.2656Q802.0 528.2656 802.4844 527.7031Q802.96875 527.1406 802.96875 525.9844Q802.96875 524.7031 802.46875 524.1094Q801.9844 523.5156 801.2656 523.5156Q800.5625 523.5156 800.09375 524.09375Q799.625 524.65625 799.625 525.8906Z" fill-rule="nonzero"/><path fill="#f9cb9c" d="M242.5 82.666664C242.5 85.98038 239.8137 88.666664 236.5 88.666664C233.1863 88.666664 230.5 85.98038 230.5 82.666664C230.5 79.35296 233.1863 76.666664 236.5 76.666664C239.8137 76.666664 242.5 79.35296 242.5 82.666664Z" fill-rule="nonzero"/><path fill="#1a1a1a" d="M251.625 87.666664L251.625 77.65104L252.95312 77.65104L252.95312 81.760414L258.15625 81.760414L258.15625 77.65104L259.48438 77.65104L259.48438 87.666664L258.15625 87.666664L258.15625 82.947914L252.95312 82.947914L252.95312 87.666664L251.625 87.666664ZM259.96875 84.041664Q259.96875 82.02604 261.09375 81.041664Q262.01562 80.24479 263.375 80.24479Q264.85938 80.24479 265.8125 81.229164Q266.76562 82.197914 266.76562 83.93229Q266.76562 85.33854 266.34375 86.15104Q265.92188 86.947914 265.10938 87.40104Q264.3125 87.83854 263.375 87.83854Q261.84375 87.83854 260.90625 86.854164Q259.96875 85.86979 259.96875 84.041664ZM261.23438 84.041664Q261.23438 85.43229 261.84375 86.135414Q262.45312 86.822914 263.375 86.822914Q264.28125 86.822914 264.89062 86.11979Q265.5 85.416664 265.5 83.99479Q265.5 82.65104 264.89062 81.96354Q264.28125 81.260414 263.375 81.260414Q262.45312 81.260414 261.84375 81.947914Q261.23438 82.635414 261.23438 84.041664ZM261.45312 78.979164L261.45312 77.58854L262.73438 77.58854L262.73438 78.979164L261.45312 78.979164ZM264.0 78.979164L264.0 77.58854L265.28125 77.58854L265.28125 78.979164L264.0 78.979164ZM268.42188 79.072914L268.42188 77.65104L269.64062 77.65104L269.64062 79.072914L268.42188 79.072914ZM266.85938 90.479164L267.09375 89.43229Q267.45312 89.52604 267.67188 89.52604Q268.04688 89.52604 268.23438 89.27604Q268.42188 89.041664 268.42188 88.041664L268.42188 80.40104L269.64062 80.40104L269.64062 88.05729Q269.64062 89.40104 269.29688 89.93229Q268.85938 90.61979 267.82812 90.61979Q267.32812 90.61979 266.85938 90.479164ZM276.14062 87.666664L276.14062 86.74479Q275.4375 87.83854 274.10938 87.83854Q273.23438 87.83854 272.5 87.354164Q271.78125 86.86979 271.375 86.010414Q270.98438 85.15104 270.98438 84.041664Q270.98438 82.96354 271.34375 82.072914Q271.70312 81.18229 272.42188 80.71354Q273.15625 80.24479 274.04688 80.24479Q274.70312 80.24479 275.21875 80.52604Q275.73438 80.791664 276.04688 81.24479L276.04688 77.65104L277.28125 77.65104L277.28125 87.666664L276.14062 87.666664ZM272.25 84.041664Q272.25 85.43229 272.82812 86.135414Q273.42188 86.822914 274.21875 86.822914Q275.03125 86.822914 275.59375 86.166664Q276.15625 85.49479 276.15625 84.15104Q276.15625 82.65104 275.57812 81.96354Q275.0 81.260414 274.17188 81.260414Q273.34375 81.260414 272.79688 81.93229Q272.25 82.604164 272.25 84.041664ZM285.78125 90.61979Q284.75 89.322914 284.04688 87.604164Q283.34375 85.885414 283.34375 84.041664Q283.34375 82.416664 283.875 80.916664Q284.48438 79.18229 285.78125 77.479164L286.65625 77.479164Q285.82812 78.90104 285.5625 79.510414Q285.14062 80.447914 284.90625 81.479164Q284.60938 82.74479 284.60938 84.041664Q284.60938 87.33854 286.65625 90.61979L285.78125 90.61979ZM293.15625 85.010414L294.375 85.166664Q294.17188 86.416664 293.34375 87.135414Q292.53125 87.83854 291.34375 87.83854Q289.85938 87.83854 288.95312 86.86979Q288.04688 85.885414 288.04688 84.05729Q288.04688 82.885414 288.4375 82.010414Q288.82812 81.11979 289.625 80.68229Q290.42188 80.24479 291.35938 80.24479Q292.53125 80.24479 293.28125 80.83854Q294.04688 81.43229 294.25 82.541664L293.0625 82.729164Q292.89062 81.99479 292.45312 81.635414Q292.01562 81.260414 291.40625 81.260414Q290.46875 81.260414 289.89062 81.93229Q289.3125 82.58854 289.3125 84.02604Q289.3125 85.49479 289.875 86.166664Q290.4375 86.822914 291.32812 86.822914Q292.0625 86.822914 292.54688 86.385414Q293.03125 85.93229 293.15625 85.010414ZM295.42188 87.666664L295.42188 80.40104L296.53125 80.40104L296.53125 81.43229Q296.85938 80.885414 297.42188 80.572914Q298.0 80.24479 298.71875 80.24479Q299.53125 80.24479 300.04688 80.58854Q300.5625 80.916664 300.78125 81.510414Q301.64062 80.24479 303.01562 80.24479Q304.09375 80.24479 304.67188 80.83854Q305.26562 81.43229 305.26562 82.68229L305.26562 87.666664L304.03125 87.666664L304.03125 83.08854Q304.03125 82.354164 303.90625 82.02604Q303.79688 81.697914 303.48438 81.510414Q303.17188 81.30729 302.75 81.30729Q301.98438 81.30729 301.46875 81.822914Q300.96875 82.322914 300.96875 83.447914L300.96875 87.666664L299.73438 87.666664L299.73438 82.947914Q299.73438 82.135414 299.4375 81.729164Q299.14062 81.30729 298.45312 81.30729Q297.9375 81.30729 297.48438 81.58854Q297.04688 81.854164 296.84375 82.385414Q296.65625 82.90104 296.65625 83.90104L296.65625 87.666664L295.42188 87.666664ZM307.23438 90.61979L306.34375 90.61979Q308.39062 87.33854 308.39062 84.041664Q308.39062 82.760414 308.09375 81.49479Q307.85938 80.46354 307.45312 79.52604Q307.1875 78.916664 306.34375 77.479164L307.23438 77.479164Q308.51562 79.18229 309.125 80.916664Q309.65625 82.416664 309.65625 84.041664Q309.65625 85.885414 308.9375 87.604164Q308.23438 89.322914 307.23438 90.61979Z" fill-rule="nonzero"/><path fill="#e69138" d="M338.5 82.666664C338.5 85.98038 335.81372 88.666664 332.5 88.666664C329.18628 88.666664 326.5 85.98038 326.5 82.666664C326.5 79.35296 329.18628 76.666664 332.5 76.666664C335.81372 76.666664 338.5 79.35296 338.5 82.666664Z" fill-rule="nonzero"/><path fill="#1a1a1a" d="M347.53125 87.666664L347.53125 77.65104L348.85938 77.65104L348.85938 86.479164L353.78125 86.479164L353.78125 87.666664L347.53125 87.666664ZM355.42188 79.072914L355.42188 77.65104L356.64062 77.65104L356.64062 79.072914L355.42188 79.072914ZM353.85938 90.479164L354.09375 89.43229Q354.45312 89.52604 354.67188 89.52604Q355.04688 89.52604 355.23438 89.27604Q355.42188 89.041664 355.42188 88.041664L355.42188 80.40104L356.64062 80.40104L356.64062 88.05729Q356.64062 89.40104 356.29688 89.93229Q355.85938 90.61979 354.82812 90.61979Q354.32812 90.61979 353.85938 90.479164ZM363.1875 87.666664L363.1875 86.604164Q362.32812 87.83854 360.875 87.83854Q360.23438 87.83854 359.67188 87.58854Q359.125 87.33854 358.84375 86.96354Q358.57812 86.58854 358.46875 86.05729Q358.39062 85.697914 358.39062 84.90104L358.39062 80.40104L359.625 80.40104L359.625 84.43229Q359.625 85.40104 359.70312 85.729164Q359.8125 86.21354 360.1875 86.49479Q360.5625 86.77604 361.125 86.77604Q361.67188 86.77604 362.15625 86.49479Q362.64062 86.197914 362.84375 85.71354Q363.04688 85.229164 363.04688 84.291664L363.04688 80.40104L364.28125 80.40104L364.28125 87.666664L363.1875 87.666664ZM365.9375 85.49479L367.14062 85.30729Q367.25 86.041664 367.71875 86.43229Q368.1875 86.822914 369.03125 86.822914Q369.875 86.822914 370.28125 86.479164Q370.70312 86.135414 370.70312 85.666664Q370.70312 85.24479 370.32812 85.010414Q370.07812 84.83854 369.07812 84.58854Q367.71875 84.24479 367.1875 83.99479Q366.67188 83.74479 366.40625 83.30729Q366.14062 82.86979 366.14062 82.33854Q366.14062 81.854164 366.35938 81.447914Q366.57812 81.02604 366.96875 80.74479Q367.25 80.541664 367.73438 80.40104Q368.23438 80.24479 368.8125 80.24479Q369.65625 80.24479 370.29688 80.49479Q370.95312 80.729164 371.26562 81.15104Q371.57812 81.572914 371.6875 82.27604L370.48438 82.447914Q370.40625 81.885414 370.0 81.572914Q369.60938 81.260414 368.89062 81.260414Q368.04688 81.260414 367.6875 81.541664Q367.32812 81.80729 367.32812 82.197914Q367.32812 82.43229 367.46875 82.61979Q367.625 82.822914 367.95312 82.947914Q368.125 83.010414 369.03125 83.260414Q370.34375 83.61979 370.85938 83.83854Q371.375 84.05729 371.65625 84.479164Q371.95312 84.90104 371.95312 85.52604Q371.95312 86.15104 371.59375 86.697914Q371.25 87.229164 370.5625 87.541664Q369.89062 87.83854 369.03125 87.83854Q367.625 87.83854 366.875 87.24479Q366.14062 86.65104 365.9375 85.49479ZM379.78125 90.61979Q378.75 89.322914 378.04688 87.604164Q377.34375 85.885414 377.34375 84.041664Q377.34375 82.416664 377.875 80.916664Q378.48438 79.18229 379.78125 77.479164L380.65625 77.479164Q379.82812 78.90104 379.5625 79.510414Q379.14062 80.447914 378.90625 81.479164Q378.60938 82.74479 378.60938 84.041664Q378.60938 87.33854 380.65625 90.61979L379.78125 90.61979ZM382.42188 87.666664L382.42188 77.65104L383.65625 77.65104L383.65625 81.24479Q384.51562 80.24479 385.82812 80.24479Q386.64062 80.24479 387.23438 80.572914Q387.82812 80.885414 388.07812 81.447914Q388.34375 81.99479 388.34375 83.072914L388.34375 87.666664L387.10938 87.666664L387.10938 83.072914Q387.10938 82.135414 386.70312 81.729164Q386.3125 81.30729 385.57812 81.30729Q385.03125 81.30729 384.54688 81.58854Q384.0625 81.86979 383.85938 82.354164Q383.65625 82.83854 383.65625 83.697914L383.65625 87.666664L382.42188 87.666664ZM391.23438 90.61979L390.34375 90.61979Q392.39062 87.33854 392.39062 84.041664Q392.39062 82.760414 392.09375 81.49479Q391.85938 80.46354 391.45312 79.52604Q391.1875 78.916664 390.34375 77.479164L391.23438 77.479164Q392.51562 79.18229 393.125 80.916664Q393.65625 82.416664 393.65625 84.041664Q393.65625 85.885414 392.9375 87.604164Q392.23438 89.322914 391.23438 90.61979Z" fill-rule="nonzero"/><path fill="#3aafa9" d="M422.5 82.666664C422.5 85.98038 419.81372 88.666664 416.5 88.666664C413.18628 88.666664 410.5 85.98038 410.5 82.666664C410.5 79.35296 413.18628 76.666664 416.5 76.666664C419.81372 76.666664 422.5 79.35296 422.5 82.666664Z" fill-rule="nonzero"/><path fill="#1a1a1a" d="M434.4375 87.666664L430.5625 77.65104L432.0 77.65104L434.60938 84.93229Q434.92188 85.80729 435.125 86.572914Q435.35938 85.74479 435.67188 84.93229L438.375 77.65104L439.73438 77.65104L435.8125 87.666664L434.4375 87.666664ZM445.15625 86.77604Q444.48438 87.354164 443.84375 87.604164Q443.21875 87.83854 442.48438 87.83854Q441.29688 87.83854 440.64062 87.260414Q440.0 86.666664 440.0 85.74479Q440.0 85.21354 440.23438 84.77604Q440.48438 84.33854 440.875 84.072914Q441.28125 83.80729 441.76562 83.666664Q442.125 83.572914 442.85938 83.479164Q444.35938 83.30729 445.0625 83.05729Q445.0625 82.80729 445.0625 82.74479Q445.0625 81.979164 444.71875 81.68229Q444.25 81.260414 443.3125 81.260414Q442.45312 81.260414 442.03125 81.572914Q441.625 81.86979 441.42188 82.635414L440.21875 82.479164Q440.375 81.697914 440.75 81.229164Q441.14062 80.760414 441.84375 80.510414Q442.5625 80.24479 443.5 80.24479Q444.42188 80.24479 445.0 80.46354Q445.57812 80.68229 445.84375 81.010414Q446.125 81.33854 446.23438 81.854164Q446.29688 82.166664 446.29688 82.979164L446.29688 84.61979Q446.29688 86.33854 446.375 86.791664Q446.45312 87.24479 446.6875 87.666664L445.40625 87.666664Q445.21875 87.27604 445.15625 86.77604ZM445.0625 84.02604Q444.39062 84.291664 443.04688 84.49479Q442.29688 84.604164 441.96875 84.74479Q441.65625 84.86979 441.48438 85.135414Q441.3125 85.40104 441.3125 85.71354Q441.3125 86.21354 441.6875 86.541664Q442.0625 86.86979 442.78125 86.86979Q443.5 86.86979 444.04688 86.55729Q444.59375 86.24479 444.85938 85.697914Q445.0625 85.291664 445.0625 84.479164L445.0625 84.02604ZM451.10938 86.572914L451.28125 87.65104Q450.76562 87.760414 450.35938 87.760414Q449.6875 87.760414 449.3125 87.55729Q448.95312 87.33854 448.79688 86.99479Q448.65625 86.65104 448.65625 85.541664L448.65625 81.36979L447.75 81.36979L447.75 80.40104L448.65625 80.40104L448.65625 78.604164L449.875 77.86979L449.875 80.40104L451.10938 80.40104L451.10938 81.36979L449.875 81.36979L449.875 85.604164Q449.875 86.135414 449.9375 86.291664Q450.0 86.43229 450.14062 86.52604Q450.29688 86.61979 450.5625 86.61979Q450.78125 86.61979 451.10938 86.572914ZM455.10938 86.572914L455.28125 87.65104Q454.76562 87.760414 454.35938 87.760414Q453.6875 87.760414 453.3125 87.55729Q452.95312 87.33854 452.79688 86.99479Q452.65625 86.65104 452.65625 85.541664L452.65625 81.36979L451.75 81.36979L451.75 80.40104L452.65625 80.40104L452.65625 78.604164L453.875 77.86979L453.875 80.40104L455.10938 80.40104L455.10938 81.36979L453.875 81.36979L453.875 85.604164Q453.875 86.135414 453.9375 86.291664Q454.0 86.43229 454.14062 86.52604Q454.29688 86.61979 454.5625 86.61979Q454.78125 86.61979 455.10938 86.572914ZM461.39062 85.322914L462.67188 85.479164Q462.35938 86.604164 461.54688 87.229164Q460.73438 87.83854 459.46875 87.83854Q457.875 87.83854 456.9375 86.854164Q456.01562 85.86979 456.01562 84.104164Q456.01562 82.260414 456.95312 81.260414Q457.90625 80.24479 459.40625 80.24479Q460.85938 80.24479 461.78125 81.24479Q462.70312 82.229164 462.70312 84.02604Q462.70312 84.135414 462.70312 84.354164L457.28125 84.354164Q457.35938 85.541664 457.95312 86.18229Q458.5625 86.822914 459.48438 86.822914Q460.15625 86.822914 460.625 86.46354Q461.10938 86.104164 461.39062 85.322914ZM457.35938 83.33854L461.40625 83.33854Q461.32812 82.416664 460.9375 81.96354Q460.35938 81.260414 459.42188 81.260414Q458.5625 81.260414 457.98438 81.822914Q457.42188 82.385414 457.35938 83.33854ZM464.42188 87.666664L464.42188 80.40104L465.53125 80.40104L465.53125 81.43229Q466.32812 80.24479 467.84375 80.24479Q468.5 80.24479 469.04688 80.479164Q469.59375 80.71354 469.85938 81.104164Q470.14062 81.479164 470.25 82.010414Q470.32812 82.354164 470.32812 83.197914L470.32812 87.666664L469.09375 87.666664L469.09375 83.24479Q469.09375 82.49479 468.95312 82.135414Q468.8125 81.760414 468.4375 81.541664Q468.07812 81.30729 467.57812 81.30729Q466.79688 81.30729 466.21875 81.80729Q465.65625 82.30729 465.65625 83.697914L465.65625 87.666664L464.42188 87.666664ZM478.78125 90.61979Q477.75 89.322914 477.04688 87.604164Q476.34375 85.885414 476.34375 84.041664Q476.34375 82.416664 476.875 80.916664Q477.48438 79.18229 478.78125 77.479164L479.65625 77.479164Q478.82812 78.90104 478.5625 79.510414Q478.14062 80.447914 477.90625 81.479164Q477.60938 82.74479 477.60938 84.041664Q477.60938 87.33854 479.65625 90.61979L478.78125 90.61979ZM481.39062 87.666664L481.39062 77.65104L482.625 77.65104L482.625 87.666664L481.39062 87.666664ZM485.23438 90.61979L484.34375 90.61979Q486.39062 87.33854 486.39062 84.041664Q486.39062 82.760414 486.09375 81.49479Q485.85938 80.46354 485.45312 79.52604Q485.1875 78.916664 484.34375 77.479164L485.23438 77.479164Q486.51562 79.18229 487.125 80.916664Q487.65625 82.416664 487.65625 84.041664Q487.65625 85.885414 486.9375 87.604164Q486.23438 89.322914 485.23438 90.61979ZM493.42188 90.447914L493.42188 80.40104L494.54688 80.40104L494.54688 81.354164Q494.9375 80.791664 495.4375 80.52604Q495.9375 80.24479 496.65625 80.24479Q497.57812 80.24479 498.28125 80.729164Q499.0 81.197914 499.35938 82.072914Q499.71875 82.947914 499.71875 83.979164Q499.71875 85.08854 499.3125 85.99479Q498.92188 86.885414 498.15625 87.36979Q497.40625 87.83854 496.5625 87.83854Q495.95312 87.83854 495.45312 87.572914Q494.96875 87.30729 494.65625 86.916664L494.65625 90.447914L493.42188 90.447914ZM494.53125 84.072914Q494.53125 85.479164 495.09375 86.15104Q495.67188 86.822914 496.48438 86.822914Q497.29688 86.822914 497.875 86.135414Q498.46875 85.43229 498.46875 83.979164Q498.46875 82.58854 497.89062 81.90104Q497.32812 81.21354 496.53125 81.21354Q495.75 81.21354 495.14062 81.947914Q494.53125 82.68229 494.53125 84.072914ZM506.15625 86.77604Q505.48438 87.354164 504.84375 87.604164Q504.21875 87.83854 503.48438 87.83854Q502.29688 87.83854 501.64062 87.260414Q501.0 86.666664 501.0 85.74479Q501.0 85.21354 501.23438 84.77604Q501.48438 84.33854 501.875 84.072914Q502.28125 83.80729 502.76562 83.666664Q503.125 83.572914 503.85938 83.479164Q505.35938 83.30729 506.0625 83.05729Q506.0625 82.80729 506.0625 82.74479Q506.0625 81.979164 505.71875 81.68229Q505.25 81.260414 504.3125 81.260414Q503.45312 81.260414 503.03125 81.572914Q502.625 81.86979 502.42188 82.635414L501.21875 82.479164Q501.375 81.697914 501.75 81.229164Q502.14062 80.760414 502.84375 80.510414Q503.5625 80.24479 504.5 80.24479Q505.42188 80.24479 506.0 80.46354Q506.57812 80.68229 506.84375 81.010414Q507.125 81.33854 507.23438 81.854164Q507.29688 82.166664 507.29688 82.979164L507.29688 84.61979Q507.29688 86.33854 507.375 86.791664Q507.45312 87.24479 507.6875 87.666664L506.40625 87.666664Q506.21875 87.27604 506.15625 86.77604ZM506.0625 84.02604Q505.39062 84.291664 504.04688 84.49479Q503.29688 84.604164 502.96875 84.74479Q502.65625 84.86979 502.48438 85.135414Q502.3125 85.40104 502.3125 85.71354Q502.3125 86.21354 502.6875 86.541664Q503.0625 86.86979 503.78125 86.86979Q504.5 86.86979 505.04688 86.55729Q505.59375 86.24479 505.85938 85.697914Q506.0625 85.291664 506.0625 84.479164L506.0625 84.02604ZM503.125 78.52604Q503.125 78.02604 503.48438 77.666664Q503.85938 77.291664 504.35938 77.291664Q504.85938 77.291664 505.21875 77.666664Q505.57812 78.02604 505.57812 78.541664Q505.57812 79.072914 505.21875 79.43229Q504.85938 79.791664 504.35938 79.791664Q503.84375 79.791664 503.48438 79.43229Q503.125 79.072914 503.125 78.52604ZM503.64062 78.52604Q503.64062 78.854164 503.85938 79.072914Q504.07812 79.291664 504.375 79.291664Q504.65625 79.291664 504.875 79.072914Q505.09375 78.854164 505.09375 78.541664Q505.09375 78.229164 504.875 78.010414Q504.67188 77.791664 504.375 77.791664Q504.07812 77.791664 503.85938 78.010414Q503.64062 78.229164 503.64062 78.52604ZM509.71875 87.666664L509.71875 81.36979L508.625 81.36979L508.625 80.40104L509.71875 80.40104L509.71875 79.635414Q509.71875 78.90104 509.84375 78.541664Q510.03125 78.072914 510.46875 77.77604Q510.92188 77.479164 511.73438 77.479164Q512.25 77.479164 512.875 77.604164L512.6875 78.666664Q512.3125 78.604164 511.96875 78.604164Q511.40625 78.604164 511.17188 78.83854Q510.9375 79.072914 510.9375 79.729164L510.9375 80.40104L512.3594 80.40104L512.3594 81.36979L510.9375 81.36979L510.9375 87.666664L509.71875 87.666664ZM513.375 90.46354L513.2344 89.30729Q513.6406 89.416664 513.9375 89.416664Q514.34375 89.416664 514.59375 89.27604Q514.84375 89.15104 515.0 88.90104Q515.1094 88.71354 515.375 87.979164Q515.40625 87.885414 515.4844 87.68229L512.71875 80.40104L514.0469 80.40104L515.5625 84.604164Q515.8594 85.416664 516.09375 86.291664Q516.2969 85.447914 516.59375 84.635414L518.1406 80.40104L519.375 80.40104L516.6094 87.791664Q516.1719 88.979164 515.9219 89.43229Q515.59375 90.041664 515.1719 90.322914Q514.75 90.61979 514.15625 90.61979Q513.8125 90.61979 513.375 90.46354ZM520.3906 87.666664L520.3906 77.65104L521.625 77.65104L521.625 87.666664L520.3906 87.666664ZM523.3906 87.666664L523.3906 77.65104L524.625 77.65104L524.625 87.666664L523.3906 87.666664ZM529.1094 86.572914L529.28125 87.65104Q528.7656 87.760414 528.3594 87.760414Q527.6875 87.760414 527.3125 87.55729Q526.9531 87.33854 526.7969 86.99479Q526.65625 86.65104 526.65625 85.541664L526.65625 81.36979L525.75 81.36979L525.75 80.40104L526.65625 80.40104L526.65625 78.604164L527.875 77.86979L527.875 80.40104L529.1094 80.40104L529.1094 81.36979L527.875 81.36979L527.875 85.604164Q527.875 86.135414 527.9375 86.291664Q528.0 86.43229 528.1406 86.52604Q528.2969 86.61979 528.5625 86.61979Q528.78125 86.61979 529.1094 86.572914Z" fill-rule="nonzero"/><path fill="#2b7a78" d="M557.5 82.666664C557.5 85.98038 554.8137 88.666664 551.5 88.666664C548.1863 88.666664 545.5 85.98038 545.5 82.666664C545.5 79.35296 548.1863 76.666664 551.5 76.666664C554.8137 76.666664 557.5 79.35296 557.5 82.666664Z" fill-rule="nonzero"/><path fill="#1a1a1a" d="M566.5625 87.666664L566.5625 77.65104L567.9219 77.65104L573.1875 85.510414L573.1875 77.65104L574.46875 77.65104L574.46875 87.666664L573.1094 87.666664L567.84375 79.791664L567.84375 87.666664L566.5625 87.666664ZM580.15625 86.77604Q579.4844 87.354164 578.84375 87.604164Q578.21875 87.83854 577.4844 87.83854Q576.2969 87.83854 575.6406 87.260414Q575.0 86.666664 575.0 85.74479Q575.0 85.21354 575.2344 84.77604Q575.4844 84.33854 575.875 84.072914Q576.28125 83.80729 576.7656 83.666664Q577.125 83.572914 577.8594 83.479164Q579.3594 83.30729 580.0625 83.05729Q580.0625 82.80729 580.0625 82.74479Q580.0625 81.979164 579.71875 81.68229Q579.25 81.260414 578.3125 81.260414Q577.4531 81.260414 577.03125 81.572914Q576.625 81.86979 576.4219 82.635414L575.21875 82.479164Q575.375 81.697914 575.75 81.229164Q576.1406 80.760414 576.84375 80.510414Q577.5625 80.24479 578.5 80.24479Q579.4219 80.24479 580.0 80.46354Q580.5781 80.68229 580.84375 81.010414Q581.125 81.33854 581.2344 81.854164Q581.2969 82.166664 581.2969 82.979164L581.2969 84.61979Q581.2969 86.33854 581.375 86.791664Q581.4531 87.24479 581.6875 87.666664L580.40625 87.666664Q580.21875 87.27604 580.15625 86.77604ZM580.0625 84.02604Q579.3906 84.291664 578.0469 84.49479Q577.2969 84.604164 576.96875 84.74479Q576.65625 84.86979 576.4844 85.135414Q576.3125 85.40104 576.3125 85.71354Q576.3125 86.21354 576.6875 86.541664Q577.0625 86.86979 577.78125 86.86979Q578.5 86.86979 579.0469 86.55729Q579.59375 86.24479 579.8594 85.697914Q580.0625 85.291664 580.0625 84.479164L580.0625 84.02604ZM576.4375 78.979164L576.4375 77.58854L577.71875 77.58854L577.71875 78.979164L576.4375 78.979164ZM578.9844 78.979164L578.9844 77.58854L580.2656 77.58854L580.2656 78.979164L578.9844 78.979164ZM583.40625 87.666664L583.40625 80.40104L584.5156 80.40104L584.5156 81.510414Q584.9375 80.729164 585.2969 80.49479Q585.65625 80.24479 586.09375 80.24479Q586.71875 80.24479 587.3594 80.635414L586.9375 81.77604Q586.4844 81.510414 586.03125 81.510414Q585.625 81.510414 585.2969 81.760414Q584.9844 81.99479 584.84375 82.43229Q584.6406 83.08854 584.6406 83.86979L584.6406 87.666664L583.40625 87.666664ZM588.4375 79.05729L588.4375 77.65104L589.65625 77.65104L589.65625 79.05729L588.4375 79.05729ZM588.4375 87.666664L588.4375 80.40104L589.65625 80.40104L589.65625 87.666664L588.4375 87.666664ZM591.4219 87.666664L591.4219 80.40104L592.53125 80.40104L592.53125 81.43229Q593.3281 80.24479 594.84375 80.24479Q595.5 80.24479 596.0469 80.479164Q596.59375 80.71354 596.8594 81.104164Q597.1406 81.479164 597.25 82.010414Q597.3281 82.354164 597.3281 83.197914L597.3281 87.666664L596.09375 87.666664L596.09375 83.24479Q596.09375 82.49479 595.9531 82.135414Q595.8125 81.760414 595.4375 81.541664Q595.0781 81.30729 594.5781 81.30729Q593.7969 81.30729 593.21875 81.80729Q592.65625 82.30729 592.65625 83.697914L592.65625 87.666664L591.4219 87.666664ZM599.2031 88.27604L600.3906 88.447914Q600.46875 88.99479 600.8125 89.260414Q601.2656 89.58854 602.0625 89.58854Q602.9219 89.58854 603.375 89.24479Q603.84375 88.916664 604.0156 88.291664Q604.1094 87.916664 604.09375 86.71354Q603.2969 87.666664 602.09375 87.666664Q600.59375 87.666664 599.7656 86.58854Q598.9531 85.510414 598.9531 83.99479Q598.9531 82.96354 599.3281 82.08854Q599.7031 81.197914 600.40625 80.729164Q601.125 80.24479 602.09375 80.24479Q603.375 80.24479 604.21875 81.27604L604.21875 80.40104L605.34375 80.40104L605.34375 86.68229Q605.34375 88.385414 605.0 89.08854Q604.65625 89.791664 603.90625 90.197914Q603.15625 90.61979 602.0625 90.61979Q600.7656 90.61979 599.96875 90.02604Q599.1719 89.447914 599.2031 88.27604ZM600.21875 83.90104Q600.21875 85.33854 600.78125 85.99479Q601.34375 86.65104 602.2031 86.65104Q603.0469 86.65104 603.625 85.99479Q604.2031 85.33854 604.2031 83.947914Q604.2031 82.61979 603.6094 81.947914Q603.0156 81.260414 602.1875 81.260414Q601.3594 81.260414 600.78125 81.93229Q600.21875 82.58854 600.21875 83.90104ZM613.78125 90.61979Q612.75 89.322914 612.0469 87.604164Q611.34375 85.885414 611.34375 84.041664Q611.34375 82.416664 611.875 80.916664Q612.4844 79.18229 613.78125 77.479164L614.65625 77.479164Q613.8281 78.90104 613.5625 79.510414Q613.1406 80.447914 612.90625 81.479164Q612.6094 82.74479 612.6094 84.041664Q612.6094 87.33854 614.65625 90.61979L613.78125 90.61979ZM616.4219 87.666664L616.4219 80.40104L617.53125 80.40104L617.53125 81.43229Q617.8594 80.885414 618.4219 80.572914Q619.0 80.24479 619.71875 80.24479Q620.53125 80.24479 621.0469 80.58854Q621.5625 80.916664 621.78125 81.510414Q622.6406 80.24479 624.0156 80.24479Q625.09375 80.24479 625.6719 80.83854Q626.2656 81.43229 626.2656 82.68229L626.2656 87.666664L625.03125 87.666664L625.03125 83.08854Q625.03125 82.354164 624.90625 82.02604Q624.7969 81.697914 624.4844 81.510414Q624.1719 81.30729 623.75 81.30729Q622.9844 81.30729 622.46875 81.822914Q621.96875 82.322914 621.96875 83.447914L621.96875 87.666664L620.7344 87.666664L620.7344 82.947914Q620.7344 82.135414 620.4375 81.729164Q620.1406 81.30729 619.4531 81.30729Q618.9375 81.30729 618.4844 81.58854Q618.0469 81.854164 617.84375 82.385414Q617.65625 82.90104 617.65625 83.90104L617.65625 87.666664L616.4219 87.666664ZM627.3906 87.666664L627.3906 77.65104L628.625 77.65104L628.625 87.666664L627.3906 87.666664ZM631.2344 90.61979L630.34375 90.61979Q632.3906 87.33854 632.3906 84.041664Q632.3906 82.760414 632.09375 81.49479Q631.8594 80.46354 631.4531 79.52604Q631.1875 78.916664 630.34375 77.479164L631.2344 77.479164Q632.5156 79.18229 633.125 80.916664Q633.65625 82.416664 633.65625 84.041664Q633.65625 85.885414 632.9375 87.604164Q632.2344 89.322914 631.2344 90.61979ZM639.4219 90.447914L639.4219 80.40104L640.5469 80.40104L640.5469 81.354164Q640.9375 80.791664 641.4375 80.52604Q641.9375 80.24479 642.65625 80.24479Q643.5781 80.24479 644.28125 80.729164Q645.0 81.197914 645.3594 82.072914Q645.71875 82.947914 645.71875 83.979164Q645.71875 85.08854 645.3125 85.99479Q644.9219 86.885414 644.15625 87.36979Q643.40625 87.83854 642.5625 87.83854Q641.9531 87.83854 641.4531 87.572914Q640.96875 87.30729 640.65625 86.916664L640.65625 90.447914L639.4219 90.447914ZM640.53125 84.072914Q640.53125 85.479164 641.09375 86.15104Q641.6719 86.822914 642.4844 86.822914Q643.2969 86.822914 643.875 86.135414Q644.46875 85.43229 644.46875 83.979164Q644.46875 82.58854 643.8906 81.90104Q643.3281 81.21354 642.53125 81.21354Q641.75 81.21354 641.1406 81.947914Q640.53125 82.68229 640.53125 84.072914ZM652.15625 86.77604Q651.4844 87.354164 650.84375 87.604164Q650.21875 87.83854 649.4844 87.83854Q648.2969 87.83854 647.6406 87.260414Q647.0 86.666664 647.0 85.74479Q647.0 85.21354 647.2344 84.77604Q647.4844 84.33854 647.875 84.072914Q648.28125 83.80729 648.7656 83.666664Q649.125 83.572914 649.8594 83.479164Q651.3594 83.30729 652.0625 83.05729Q652.0625 82.80729 652.0625 82.74479Q652.0625 81.979164 651.71875 81.68229Q651.25 81.260414 650.3125 81.260414Q649.4531 81.260414 649.03125 81.572914Q648.625 81.86979 648.4219 82.635414L647.21875 82.479164Q647.375 81.697914 647.75 81.229164Q648.1406 80.760414 648.84375 80.510414Q649.5625 80.24479 650.5 80.24479Q651.4219 80.24479 652.0 80.46354Q652.5781 80.68229 652.84375 81.010414Q653.125 81.33854 653.2344 81.854164Q653.2969 82.166664 653.2969 82.979164L653.2969 84.61979Q653.2969 86.33854 653.375 86.791664Q653.4531 87.24479 653.6875 87.666664L652.40625 87.666664Q652.21875 87.27604 652.15625 86.77604ZM652.0625 84.02604Q651.3906 84.291664 650.0469 84.49479Q649.2969 84.604164 648.96875 84.74479Q648.65625 84.86979 648.4844 85.135414Q648.3125 85.40104 648.3125 85.71354Q648.3125 86.21354 648.6875 86.541664Q649.0625 86.86979 649.78125 86.86979Q650.5 86.86979 651.0469 86.55729Q651.59375 86.24479 651.8594 85.697914Q652.0625 85.291664 652.0625 84.479164L652.0625 84.02604ZM649.125 78.52604Q649.125 78.02604 649.4844 77.666664Q649.8594 77.291664 650.3594 77.291664Q650.8594 77.291664 651.21875 77.666664Q651.5781 78.02604 651.5781 78.541664Q651.5781 79.072914 651.21875 79.43229Q650.8594 79.791664 650.3594 79.791664Q649.84375 79.791664 649.4844 79.43229Q649.125 79.072914 649.125 78.52604ZM649.6406 78.52604Q649.6406 78.854164 649.8594 79.072914Q650.0781 79.291664 650.375 79.291664Q650.65625 79.291664 650.875 79.072914Q651.09375 78.854164 651.09375 78.541664Q651.09375 78.229164 650.875 78.010414Q650.6719 77.791664 650.375 77.791664Q650.0781 77.791664 649.8594 78.010414Q649.6406 78.229164 649.6406 78.52604ZM655.71875 87.666664L655.71875 81.36979L654.625 81.36979L654.625 80.40104L655.71875 80.40104L655.71875 79.635414Q655.71875 78.90104 655.84375 78.541664Q656.03125 78.072914 656.46875 77.77604Q656.9219 77.479164 657.7344 77.479164Q658.25 77.479164 658.875 77.604164L658.6875 78.666664Q658.3125 78.604164 657.96875 78.604164Q657.40625 78.604164 657.1719 78.83854Q656.9375 79.072914 656.9375 79.729164L656.9375 80.40104L658.3594 80.40104L658.3594 81.36979L656.9375 81.36979L656.9375 87.666664L655.71875 87.666664ZM659.375 90.46354L659.2344 89.30729Q659.6406 89.416664 659.9375 89.416664Q660.34375 89.416664 660.59375 89.27604Q660.84375 89.15104 661.0 88.90104Q661.1094 88.71354 661.375 87.979164Q661.40625 87.885414 661.4844 87.68229L658.71875 80.40104L660.0469 80.40104L661.5625 84.604164Q661.8594 85.416664 662.09375 86.291664Q662.2969 85.447914 662.59375 84.635414L664.1406 80.40104L665.375 80.40104L662.6094 87.791664Q662.1719 88.979164 661.9219 89.43229Q661.59375 90.041664 661.1719 90.322914Q660.75 90.61979 660.15625 90.61979Q659.8125 90.61979 659.375 90.46354ZM666.3906 87.666664L666.3906 77.65104L667.625 77.65104L667.625 87.666664L666.3906 87.666664ZM669.3906 87.666664L669.3906 77.65104L670.625 77.65104L670.625 87.666664L669.3906 87.666664ZM675.1094 86.572914L675.28125 87.65104Q674.7656 87.760414 674.3594 87.760414Q673.6875 87.760414 673.3125 87.55729Q672.9531 87.33854 672.7969 86.99479Q672.65625 86.65104 672.65625 85.541664L672.65625 81.36979L671.75 81.36979L671.75 80.40104L672.65625 80.40104L672.65625 78.604164L673.875 77.86979L673.875 80.40104L675.1094 80.40104L675.1094 81.36979L673.875 81.36979L673.875 85.604164Q673.875 86.135414 673.9375 86.291664Q674.0 86.43229 674.1406 86.52604Q674.2969 86.61979 674.5625 86.61979Q674.78125 86.61979 675.1094 86.572914Z" fill-rule="nonzero"/><path fill="#757575" d="M378.07812 44.484375L380.21875 44.296875Q380.375 45.578125 380.92188 46.40625Q381.48438 47.234375 382.65625 47.75Q383.82812 48.25 385.29688 48.25Q386.59375 48.25 387.59375 47.875Q388.59375 47.484375 389.07812 46.8125Q389.5625 46.125 389.5625 45.328125Q389.5625 44.53125 389.09375 43.921875Q388.625 43.3125 387.54688 42.90625Q386.85938 42.640625 384.48438 42.078125Q382.125 41.5 381.17188 41.0Q379.9375 40.359375 379.32812 39.40625Q378.73438 38.4375 378.73438 37.265625Q378.73438 35.953125 379.46875 34.828125Q380.21875 33.703125 381.625 33.125Q383.04688 32.53125 384.78125 32.53125Q386.6875 32.53125 388.14062 33.140625Q389.60938 33.75 390.39062 34.953125Q391.1875 36.140625 391.23438 37.65625L389.0625 37.828125Q388.89062 36.1875 387.875 35.359375Q386.85938 34.53125 384.875 34.53125Q382.8125 34.53125 381.85938 35.296875Q380.92188 36.046875 380.92188 37.109375Q380.92188 38.03125 381.59375 38.625Q382.25 39.234375 385.01562 39.859375Q387.79688 40.484375 388.82812 40.953125Q390.32812 41.640625 391.03125 42.703125Q391.75 43.765625 391.75 45.140625Q391.75 46.515625 390.96875 47.734375Q390.1875 48.9375 388.71875 49.625Q387.25 50.296875 385.40625 50.296875Q383.07812 50.296875 381.5 49.625Q379.92188 48.9375 379.01562 47.578125Q378.125 46.203125 378.07812 44.484375ZM399.1875 48.109375L399.5 49.96875Q398.60938 50.171875 397.90625 50.171875Q396.75 50.171875 396.10938 49.8125Q395.48438 49.4375 395.21875 48.84375Q394.96875 48.25 394.96875 46.359375L394.96875 39.1875L393.42188 39.1875L393.42188 37.546875L394.96875 37.546875L394.96875 34.46875L397.0625 33.203125L397.0625 37.546875L399.1875 37.546875L399.1875 39.1875L397.0625 39.1875L397.0625 46.46875Q397.0625 47.375 397.17188 47.640625Q397.29688 47.890625 397.54688 48.046875Q397.79688 48.1875 398.26562 48.1875Q398.60938 48.1875 399.1875 48.109375ZM409.70312 48.46875Q408.53125 49.453125 407.4375 49.875Q406.35938 50.28125 405.125 50.28125Q403.07812 50.28125 401.96875 49.28125Q400.875 48.28125 400.875 46.71875Q400.875 45.796875 401.28125 45.046875Q401.70312 44.296875 402.375 43.84375Q403.04688 43.375 403.89062 43.140625Q404.51562 42.984375 405.76562 42.828125Q408.32812 42.515625 409.53125 42.09375Q409.54688 41.671875 409.54688 41.546875Q409.54688 40.265625 408.9375 39.734375Q408.14062 39.015625 406.54688 39.015625Q405.04688 39.015625 404.34375 39.546875Q403.64062 40.0625 403.29688 41.390625L401.23438 41.109375Q401.51562 39.78125 402.15625 38.96875Q402.79688 38.15625 404.01562 37.71875Q405.23438 37.265625 406.84375 37.265625Q408.4375 37.265625 409.4375 37.640625Q410.4375 38.015625 410.90625 38.59375Q411.375 39.15625 411.5625 40.03125Q411.65625 40.5625 411.65625 41.96875L411.65625 44.78125Q411.65625 47.71875 411.79688 48.5Q411.9375 49.28125 412.32812 50.0L410.125 50.0Q409.79688 49.34375 409.70312 48.46875ZM409.53125 43.75Q408.375 44.21875 406.07812 44.546875Q404.78125 44.734375 404.23438 44.96875Q403.70312 45.203125 403.40625 45.65625Q403.125 46.109375 403.125 46.65625Q403.125 47.5 403.75 48.0625Q404.39062 48.625 405.625 48.625Q406.84375 48.625 407.79688 48.09375Q408.75 47.5625 409.1875 46.640625Q409.53125 45.921875 409.53125 44.53125L409.53125 43.75ZM419.1875 48.109375L419.5 49.96875Q418.60938 50.171875 417.90625 50.171875Q416.75 50.171875 416.10938 49.8125Q415.48438 49.4375 415.21875 48.84375Q414.96875 48.25 414.96875 46.359375L414.96875 39.1875L413.42188 39.1875L413.42188 37.546875L414.96875 37.546875L414.96875 34.46875L417.0625 33.203125L417.0625 37.546875L419.1875 37.546875L419.1875 39.1875L417.0625 39.1875L417.0625 46.46875Q417.0625 47.375 417.17188 47.640625Q417.29688 47.890625 417.54688 48.046875Q417.79688 48.1875 418.26562 48.1875Q418.60938 48.1875 419.1875 48.109375ZM421.59375 35.25L421.59375 32.8125L423.70312 32.8125L423.70312 35.25L421.59375 35.25ZM421.59375 50.0L421.59375 37.546875L423.70312 37.546875L423.70312 50.0L421.59375 50.0ZM425.73438 46.28125L427.82812 45.953125Q428.0 47.203125 428.79688 47.875Q429.60938 48.546875 431.04688 48.546875Q432.5 48.546875 433.20312 47.953125Q433.90625 47.359375 433.90625 46.5625Q433.90625 45.84375 433.28125 45.4375Q432.85938 45.15625 431.125 44.71875Q428.8125 44.140625 427.90625 43.71875Q427.01562 43.28125 426.54688 42.53125Q426.09375 41.765625 426.09375 40.859375Q426.09375 40.03125 426.46875 39.328125Q426.85938 38.609375 427.51562 38.140625Q428.0 37.78125 428.84375 37.53125Q429.70312 37.265625 430.67188 37.265625Q432.14062 37.265625 433.25 37.6875Q434.35938 38.109375 434.875 38.84375Q435.40625 39.5625 435.60938 40.765625L433.54688 41.046875Q433.40625 40.078125 432.73438 39.546875Q432.0625 39.0 430.82812 39.0Q429.375 39.0 428.75 39.484375Q428.125 39.96875 428.125 40.609375Q428.125 41.015625 428.39062 41.34375Q428.64062 41.6875 429.20312 41.90625Q429.51562 42.03125 431.0625 42.453125Q433.29688 43.046875 434.17188 43.4375Q435.0625 43.8125 435.5625 44.546875Q436.07812 45.265625 436.07812 46.34375Q436.07812 47.390625 435.45312 48.328125Q434.84375 49.265625 433.6875 49.78125Q432.53125 50.28125 431.0625 50.28125Q428.64062 50.28125 427.35938 49.28125Q426.09375 48.265625 425.73438 46.28125ZM443.1875 48.109375L443.5 49.96875Q442.60938 50.171875 441.90625 50.171875Q440.75 50.171875 440.10938 49.8125Q439.48438 49.4375 439.21875 48.84375Q438.96875 48.25 438.96875 46.359375L438.96875 39.1875L437.42188 39.1875L437.42188 37.546875L438.96875 37.546875L438.96875 34.46875L441.0625 33.203125L441.0625 37.546875L443.1875 37.546875L443.1875 39.1875L441.0625 39.1875L441.0625 46.46875Q441.0625 47.375 441.17188 47.640625Q441.29688 47.890625 441.54688 48.046875Q441.79688 48.1875 442.26562 48.1875Q442.60938 48.1875 443.1875 48.109375ZM445.59375 35.25L445.59375 32.8125L447.70312 32.8125L447.70312 35.25L445.59375 35.25ZM445.59375 50.0L445.59375 37.546875L447.70312 37.546875L447.70312 50.0L445.59375 50.0ZM450.59375 50.0L450.59375 32.8125L452.70312 32.8125L452.70312 42.609375L457.70312 37.546875L460.42188 37.546875L455.67188 42.171875L460.90625 50.0L458.3125 50.0L454.1875 43.640625L452.70312 45.0625L452.70312 50.0L450.59375 50.0ZM469.07812 44.484375L471.21875 44.296875Q471.375 45.578125 471.92188 46.40625Q472.48438 47.234375 473.65625 47.75Q474.82812 48.25 476.29688 48.25Q477.59375 48.25 478.59375 47.875Q479.59375 47.484375 480.07812 46.8125Q480.5625 46.125 480.5625 45.328125Q480.5625 44.53125 480.09375 43.921875Q479.625 43.3125 478.54688 42.90625Q477.85938 42.640625 475.48438 42.078125Q473.125 41.5 472.17188 41.0Q470.9375 40.359375 470.32812 39.40625Q469.73438 38.4375 469.73438 37.265625Q469.73438 35.953125 470.46875 34.828125Q471.21875 33.703125 472.625 33.125Q474.04688 32.53125 475.78125 32.53125Q477.6875 32.53125 479.14062 33.140625Q480.60938 33.75 481.39062 34.953125Q482.1875 36.140625 482.23438 37.65625L480.0625 37.828125Q479.89062 36.1875 478.875 35.359375Q477.85938 34.53125 475.875 34.53125Q473.8125 34.53125 472.85938 35.296875Q471.92188 36.046875 471.92188 37.109375Q471.92188 38.03125 472.59375 38.625Q473.25 39.234375 476.01562 39.859375Q478.79688 40.484375 479.82812 40.953125Q481.32812 41.640625 482.03125 42.703125Q482.75 43.765625 482.75 45.140625Q482.75 46.515625 481.96875 47.734375Q481.1875 48.9375 479.71875 49.625Q478.25 50.296875 476.40625 50.296875Q474.07812 50.296875 472.5 49.625Q470.92188 48.9375 470.01562 47.578125Q469.125 46.203125 469.07812 44.484375ZM493.70312 48.46875Q492.53125 49.453125 491.4375 49.875Q490.35938 50.28125 489.125 50.28125Q487.07812 50.28125 485.96875 49.28125Q484.875 48.28125 484.875 46.71875Q484.875 45.796875 485.28125 45.046875Q485.70312 44.296875 486.375 43.84375Q487.04688 43.375 487.89062 43.140625Q488.51562 42.984375 489.76562 42.828125Q492.32812 42.515625 493.53125 42.09375Q493.54688 41.671875 493.54688 41.546875Q493.54688 40.265625 492.9375 39.734375Q492.14062 39.015625 490.54688 39.015625Q489.04688 39.015625 488.34375 39.546875Q487.64062 40.0625 487.29688 41.390625L485.23438 41.109375Q485.51562 39.78125 486.15625 38.96875Q486.79688 38.15625 488.01562 37.71875Q489.23438 37.265625 490.84375 37.265625Q492.4375 37.265625 493.4375 37.640625Q494.4375 38.015625 494.90625 38.59375Q495.375 39.15625 495.5625 40.03125Q495.65625 40.5625 495.65625 41.96875L495.65625 44.78125Q495.65625 47.71875 495.79688 48.5Q495.9375 49.28125 496.32812 50.0L494.125 50.0Q493.79688 49.34375 493.70312 48.46875ZM493.53125 43.75Q492.375 44.21875 490.07812 44.546875Q488.78125 44.734375 488.23438 44.96875Q487.70312 45.203125 487.40625 45.65625Q487.125 46.109375 487.125 46.65625Q487.125 47.5 487.75 48.0625Q488.39062 48.625 489.625 48.625Q490.84375 48.625 491.79688 48.09375Q492.75 47.5625 493.1875 46.640625Q493.53125 45.921875 493.53125 44.53125L493.53125 43.75ZM498.53125 50.0L498.53125 32.8125L500.64062 32.8125L500.64062 50.0L498.53125 50.0ZM504.53125 50.0L504.53125 32.8125L506.64062 32.8125L506.64062 50.0L504.53125 50.0ZM518.7031 48.46875Q517.53125 49.453125 516.4375 49.875Q515.3594 50.28125 514.125 50.28125Q512.0781 50.28125 510.96875 49.28125Q509.875 48.28125 509.875 46.71875Q509.875 45.796875 510.28125 45.046875Q510.70312 44.296875 511.375 43.84375Q512.0469 43.375 512.8906 43.140625Q513.5156 42.984375 514.7656 42.828125Q517.3281 42.515625 518.53125 42.09375Q518.5469 41.671875 518.5469 41.546875Q518.5469 40.265625 517.9375 39.734375Q517.1406 39.015625 515.5469 39.015625Q514.0469 39.015625 513.34375 39.546875Q512.6406 40.0625 512.2969 41.390625L510.23438 41.109375Q510.51562 39.78125 511.15625 38.96875Q511.79688 38.15625 513.0156 37.71875Q514.2344 37.265625 515.84375 37.265625Q517.4375 37.265625 518.4375 37.640625Q519.4375 38.015625 519.90625 38.59375Q520.375 39.15625 520.5625 40.03125Q520.65625 40.5625 520.65625 41.96875L520.65625 44.78125Q520.65625 47.71875 520.7969 48.5Q520.9375 49.28125 521.3281 50.0L519.125 50.0Q518.7969 49.34375 518.7031 48.46875ZM518.53125 43.75Q517.375 44.21875 515.0781 44.546875Q513.78125 44.734375 513.2344 44.96875Q512.7031 45.203125 512.40625 45.65625Q512.125 46.109375 512.125 46.65625Q512.125 47.5 512.75 48.0625Q513.3906 48.625 514.625 48.625Q515.84375 48.625 516.7969 48.09375Q517.75 47.5625 518.1875 46.640625Q518.53125 45.921875 518.53125 44.53125L518.53125 43.75ZM528.1875 48.109375L528.5 49.96875Q527.6094 50.171875 526.90625 50.171875Q525.75 50.171875 525.1094 49.8125Q524.4844 49.4375 524.21875 48.84375Q523.96875 48.25 523.96875 46.359375L523.96875 39.1875L522.4219 39.1875L522.4219 37.546875L523.96875 37.546875L523.96875 34.46875L526.0625 33.203125L526.0625 37.546875L528.1875 37.546875L528.1875 39.1875L526.0625 39.1875L526.0625 46.46875Q526.0625 47.375 526.1719 47.640625Q526.2969 47.890625 526.5469 48.046875Q526.7969 48.1875 527.2656 48.1875Q527.6094 48.1875 528.1875 48.109375Z" fill-rule="nonzero"/></svg>