<?xml version="1.0" encoding="UTF-8"?>
<svg xmlns="http://www.w3.org/2000/svg" version="1.1" viewBox="0 0 595.28 841.89">
  <defs>
    <style>
      .cls-1 {
        opacity: .97;
      }

      .cls-1, .cls-2, .cls-3, .cls-4, .cls-5, .cls-6 {
        stroke-miterlimit: 10;
      }

      .cls-1, .cls-2, .cls-3, .cls-4, .cls-5, .cls-6, .cls-7 {
        stroke-width: 9px;
      }

      .cls-1, .cls-2, .cls-3, .cls-5, .cls-6 {
        stroke: #063;
      }

      .cls-1, .cls-3, .cls-5, .cls-7 {
        stroke-linecap: round;
      }

      .cls-1, .cls-3, .cls-7 {
        fill: none;
      }

      .cls-2, .cls-5 {
        fill: #3aaa35;
      }

      .cls-4 {
        fill: #f39200;
      }

      .cls-4, .cls-7 {
        stroke: #7d4e24;
      }

      .cls-6 {
        fill: #063;
      }

      .cls-7 {
        stroke-linejoin: round;
      }
    </style>
  </defs>
  <g id="Lager_2" data-name="Lager 2">
    <g>
      <g>
        <path class="cls-5" d="M212.84,270.62c-5.12,15.54-7.33,46.35-4.66,60.15,8,41.39,32.85,57.19,71.56,64.22,14.58,2.65,43.91-6.46,56.5-20.55,13.68-15.3,40.88-38.98,31.74-57.8-6.74-13.88,10.01-50.84,6.48-62.45-9.47-31.15-8.62.65-26.45-4.52-12.48-3.62-28.1-17.21-21.86-49.29,2.23-11.49,3.35-17.74-4.14-14.27-14.59,6.76,4.97-16.08,2.64-27.66-4.4-21.9-74.83-26.23-65.39,1.22,3.82,11.12-13.76,12.48-19.1,25.9-5.69,14.32-1.18,63.05-15.68,47.03-7.98-8.81-7.75,26.16-11.65,38.01Z"/>
        <path class="cls-3" d="M355.56,275.17c0,43.15-83.16,52.6-83.16,95.75"/>
        <path class="cls-1" d="M277.68,158.46c0,29.95-6.36,67.8-3.53,97.86,4.02,42.67-4.12,84.67-1.76,114.59"/>
        <path class="cls-3" d="M312.95,197.91c0,20.25-38.2,43.45-38.2,63.7"/>
        <path class="cls-3" d="M247.12,207.77c-.75,11.44,24.78,33.76,27.03,48.55"/>
        <path class="cls-3" d="M225.08,275.17c-3.23,24.25,47.31,66.65,47.31,95.75"/>
      </g>
      <g>
        <path class="cls-5" d="M137,270.62c-5.12,15.54-7.33,46.35-4.66,60.15,8,41.39,32.85,57.19,71.56,64.22,14.58,2.65,43.91-6.46,56.5-20.55,13.68-15.3,40.88-38.98,31.74-57.8-6.74-13.88,10.01-50.84,6.48-62.45-9.47-31.15-8.62.65-26.45-4.52-12.48-3.62-28.1-17.21-21.86-49.29,2.23-11.49-6.1-32.89-13.59-29.41-14.59,6.76-15.71-12.67-18.03-24.25-4.4-21.9-44.7-14.49-35.26,12.96,3.82,11.12-13.76,12.48-19.1,25.9-5.69,14.32-1.18,63.05-15.68,47.03-7.98-8.81-7.75,26.16-11.65,38.01Z"/>
        <path class="cls-3" d="M279.72,275.17c0,43.15-83.16,52.6-83.16,95.75"/>
        <path class="cls-1" d="M201.84,158.46c0,29.95-6.36,67.8-3.53,97.86,4.02,42.67-4.12,84.67-1.76,114.59"/>
        <path class="cls-3" d="M237.11,197.91c0,20.25-38.2,43.45-38.2,63.7"/>
        <path class="cls-3" d="M171.28,207.77c-.75,11.44,24.78,33.76,27.03,48.55"/>
        <path class="cls-3" d="M149.24,275.17c-3.23,24.25,47.31,66.65,47.31,95.75"/>
      </g>
      <g>
        <path class="cls-5" d="M415.67,364.53c2.33,19.8-22.83,48.94-31.17,63.6-23.24,40.89-90.71,74.92-147.37,68.13-21.34-2.56-14.31-38.92-27.62-59.93-14.45-22.82-45.31-60.45-26.55-78.54,13.83-13.34,1.84-62.21,10.45-74.19,23.09-32.12,11.92,4.06,38.63,4.97,18.69.64,44.93-8.96,46.2-48.19.46-14.05,18.88-35.41,28.34-28.55,18.4,13.36,11.77-.06,18.67-12.45,13.05-23.45,85.02-37.4,63.14-9.51-8.87,11.3,12.16,49.09,15.46,66.54,3.53,18.62-18.1,72.83,7.32,60.01,13.99-7.05,2.71,33,4.48,48.11Z"/>
        <path class="cls-1" d="M350.96,212.89c-9.38,34.38-6.74,91.88-20.15,125.29-11.34,28.26-20.1,95.76-44.99,130.54-16.89,23.61-52.53,17.31-57.67,30.83"/>
      </g>
      <g>
        <path class="cls-5" d="M89.04,357.73c-2.33,19.8,22.83,48.94,31.17,63.6,23.24,40.89,90.71,74.92,147.37,68.13,21.34-2.56,14.31-38.92,27.62-59.93,14.45-22.82,45.31-60.45,26.55-78.54-13.83-13.34-1.84-62.21-10.45-74.19-23.09-32.12-11.92,4.06-38.63,4.97-18.69.64-44.93-8.96-46.2-48.19-.46-14.05-18.88-35.41-28.34-28.55-18.4,13.36-51.67-37.58-58.57-49.97-13.05-23.45-41.83,29.6-19.95,57.49,8.87,11.3-15.45,19.61-18.75,37.07-3.53,18.62,18.1,72.83-7.32,60.01-13.99-7.05-2.71,33-4.48,48.11Z"/>
        <path class="cls-1" d="M153.76,206.09c9.38,34.38,6.74,91.88,20.15,125.29,11.34,28.26,20.1,95.76,44.99,130.54,16.89,23.61,52.53,17.31,57.67,30.83"/>
      </g>
      <g>
        <path class="cls-5" d="M347,339.38c9.2,19.98,13.18,59.61,8.38,77.35-14.39,53.22-59.08,73.54-128.68,82.59-26.21,3.41-78.95-8.3-101.6-26.42-24.59-19.68-73.52-50.12-57.08-74.32,12.12-17.85-18.01-65.37-11.66-80.31,17.03-40.05,15.5.84,47.56-5.81,22.44-4.65,50.53-22.13,39.31-63.39-4.02-14.77,10.96-42.29,24.44-37.82,26.23,8.69,28.24-16.29,32.43-31.18,7.91-28.16,80.38-18.63,63.41,16.67-6.88,14.3,24.74,16.05,34.34,33.31,10.24,18.41,2.12,81.08,28.2,60.48,14.35-11.33,13.93,33.63,20.95,48.87Z"/>
        <path class="cls-3" d="M90.37,345.23c0,55.48,149.55,67.64,149.55,123.12"/>
        <path class="cls-1" d="M230.41,195.15c0,38.51,11.44,87.19,6.34,125.84-7.24,54.86,7.41,108.88,3.17,147.36"/>
        <path class="cls-3" d="M166.99,245.88c0,26.04,68.7,55.87,68.7,81.91"/>
        <path class="cls-3" d="M285.36,258.56c1.35,14.71-44.57,43.41-48.61,62.43"/>
        <path class="cls-3" d="M324.99,345.23c5.81,31.18-85.08,85.71-85.08,123.12"/>
      </g>
      <g>
        <path class="cls-5" d="M50.56,396.03c.48,19.93,29.49,45.24,39.81,58.58,28.77,37.21,100.35,61.41,155.49,46.71,20.77-5.54,8.69-40.55,18.91-63.22,11.09-24.63,36.35-66.22,15.23-81.49-15.57-11.26-10.58-61.33-20.79-71.98-27.38-28.55-11.23,5.69-37.54,10.35-18.42,3.26-45.74-2.55-52.52-41.21-2.43-13.84-23.68-32.4-32.07-24.28-16.34,15.82-27.01-4.76-35.59-16.06-16.22-21.38-66.69,10.02-41.1,34.55,10.37,9.94-12.54,21.59-13.35,39.34-.87,18.93,28.17,69.56,1.19,60.44-14.84-5.02,1.97,33.05,2.33,48.26Z"/>
        <path class="cls-3" d="M243.27,317.27c20.36,47.14-86.53,105.55-66.17,152.69"/>
        <path class="cls-1" d="M83.94,234.8c14.13,32.72,19.6,90.01,37.58,121.21,15.2,26.38,33.37,91.97,62.91,122.91,20.05,21,54.45,9.74,61.43,22.41"/>
        <path class="cls-3" d="M149.77,257.5c9.55,22.12-36.49,79.34-26.94,101.46"/>
        <path class="cls-3" d="M66.29,306.34c4.39,12.93,33.55,6.59,43.54,21.45"/>
        <path class="cls-3" d="M68.57,392.71c7.11,28.36,95.33,45.23,108.52,77.24"/>
      </g>
    </g>
  </g>
  <g id="Lager_1" data-name="Lager 1">
    <g>
      <path class="cls-6" d="M538.91,302.44c8.43,8.49-7.41,30.95-31.24,58.07-19.5,22.2-48.05,44.64-56.48,36.14s6.35-32.29,31.98-57.71c25.63-25.43,47.31-45,55.74-36.5Z"/>
      <path class="cls-6" d="M569.33,373.56c3.44,11.46-29.18,7.08-62.97,19.79-27.66,10.4-58.82,29.22-62.26,17.76-3.44-11.46,18.54-39.21,53.12-49.58,34.58-10.37,68.67.57,72.11,12.03Z"/>
      <path class="cls-2" d="M497.21,359.88c23.4-33.24,29.33-69.38,13.25-80.7-16.09-11.33-44.17,24.98-51.74,60.29-8.52,39.75-49.1,48.77-33.01,60.1s48.1-6.44,71.51-39.69Z"/>
      <path class="cls-2" d="M553.83,423.11c-8.32,1.57-11.7-6.58-47.69-4.3-35.99,2.27-63.62-4.9-64.15-13.35-.53-8.45,37.05-30.61,78.03-25.87,28.42,3.28,51.16,40.24,33.81,43.52Z"/>
      <path class="cls-2" d="M552.66,323.09c7.42,10.02-11.77,36.79-42.86,59.79-31.08,23-62.29,33.52-69.71,23.5-7.42-10.02,22.04-32.24,42.86-59.79,23.31-30.85,62.29-33.52,69.71-23.5Z"/>
      <path class="cls-4" d="M184.67,520.09l.32-3.48c-5.26-54.79,70.1-82.51,98.19-101.74l101.64-52.89c20.36-9.49,49.05-1.08,58.54,19.29l4.94,20.64c10.1,19.39,12.4,25.92-19.69,54.05l-116.4,54.24c-19.07,9.6-83.45,34.63-121.25,13.45-1.22-.68-5.5-2.4-6.29-3.55Z"/>
      <path class="cls-7" d="M269.72,525.89c9.58-13.83,4.19-45.98-10.09-55.73"/>
      <path class="cls-7" d="M288.5,413.57c10.78-.61,26.95,16.84,27.94,24.47"/>
      <path class="cls-7" d="M226.15,494.01c-2.37-14.86-11.02-22.77-20.41-25.16"/>
      <path class="cls-7" d="M388.37,440.95c2.1-9.83-5.05-19.29-12.06-25.71"/>
      <path class="cls-7" d="M364.98,458.83c8.37,8.37,6.44,21.27,6.44,21.27"/>
    </g>
  </g>
</svg>